SplineFontDB: 3.0
FontName: Coda-Heavy
FullName: Coda Heavy
FamilyName: Coda
Weight: Black
Copyright: Copyright (c) 2009 by vernon adams. All rights reserved.
Version: 1.000
ItalicAngle: 0
UnderlinePosition: -103
UnderlineWidth: 102
Ascent: 1638
Descent: 410
LayerCount: 2
Layer: 0 1 "Back"  1
Layer: 1 1 "Fore"  0
NeedsXUIDChange: 1
XUID: [1021 423 1553708084 3992338]
FSType: 4
OS2Version: 2
OS2_WeightWidthSlopeOnly: 0
OS2_UseTypoMetrics: 1
CreationTime: 1291041891
ModificationTime: 1291048505
PfmFamily: 33
TTFWeight: 800
TTFWidth: 5
LineGap: 61
VLineGap: 0
Panose: 2 0 5 5 2 0 0 2 0 4
OS2TypoAscent: 72
OS2TypoAOffset: 1
OS2TypoDescent: 2
OS2TypoDOffset: 1
OS2TypoLinegap: 123
OS2WinAscent: -1
OS2WinAOffset: 1
OS2WinDescent: 1
OS2WinDOffset: 1
HheadAscent: -1
HheadAOffset: 1
HheadDescent: -1
HheadDOffset: 1
OS2SubXSize: 1434
OS2SubYSize: 1331
OS2SubXOff: 0
OS2SubYOff: 287
OS2SupXSize: 1434
OS2SupYSize: 1331
OS2SupXOff: 0
OS2SupYOff: 977
OS2StrikeYSize: 102
OS2StrikeYPos: 512
OS2Vendor: 'SIL '
OS2CodePages: 00000013.00000000
OS2UnicodeRanges: a00000af.4000004b.00000000.00000000
Lookup: 4 0 1 "Ligature Substitution in Latin lookup 0"  {"Ligature Substitution in Latin lookup 0-1"  } ['liga' ('DFLT' <'dflt' > 'latn' <'dflt' > ) ]
Lookup: 258 0 0 "'kern' Horizontal Kerning in Latin lookup 0"  {"'kern' Horizontal Kerning in Latin lookup 0 per glyph data 0"  "'kern' Horizontal Kerning in Latin lookup 0 per glyph data 1"  "'kern' Horizontal Kerning in Latin lookup 0 kerning class 2"  "'kern' Horizontal Kerning in Latin lookup 0 kerning class 3"  "'kern' Horizontal Kerning in Latin lookup 0 kerning class 4"  "'kern' Horizontal Kerning in Latin lookup 0 kerning class 5"  "'kern' Horizontal Kerning in Latin lookup 0 kerning class 6"  "'kern' Horizontal Kerning in Latin lookup 0 kerning class 7"  } ['kern' ('latn' <'dflt' > ) ]
DEI: 91125
KernClass2: 1+ 2 "'kern' Horizontal Kerning in Latin lookup 0 kerning class 2" 
 47 .notdef d q ugrave uacute ucircumflex udieresis

StartChar: D
Encoding: 68 68 4
Width: 1665
Flags: W
HStem: 0 233<773 904> 1364 231<773 904>
VStem: 97 676<233 1364> 904 676<233.762 1362.88>
LayerCount: 2
Fore
SplineSet
1580 393 m 2,0,1
 1580 353 1580 353 1577 308.5 c 128,-1,2
 1574 264 1574 264 1555.5 220 c 128,-1,3
 1537 176 1537 176 1496.5 136.5 c 128,-1,4
 1456 97 1456 97 1381.5 66.5 c 128,-1,5
 1307 36 1307 36 1192.5 18 c 128,-1,6
 1078 0 1078 0 911 0 c 2,7,-1
 97 0 l 1,8,-1
 97 1595 l 1,9,-1
 911 1595 l 2,10,11
 1078 1595 1078 1595 1192.5 1577 c 128,-1,12
 1307 1559 1307 1559 1381.5 1529 c 128,-1,13
 1456 1499 1456 1499 1496.5 1459.5 c 128,-1,14
 1537 1420 1537 1420 1555.5 1376.5 c 128,-1,15
 1574 1333 1574 1333 1577 1288.5 c 128,-1,16
 1580 1244 1580 1244 1580 1204 c 2,17,-1
 1580 393 l 2,0,1
773 233 m 1,18,-1
 904 233 l 1,19,-1
 904 1364 l 1,20,-1
 773 1364 l 1,21,-1
 773 233 l 1,18,-1
EndSplineSet
Validated: 16385
EndChar

StartChar: H
Encoding: 72 72 5
Width: 1677
Flags: W
HStem: 0 21G<97 773 904 1580> 688 250<773 904> 1575 20G<97 773 904 1580>
VStem: 97 676<0 688 938 1595> 904 676<0 688 938 1595>
LayerCount: 2
Fore
SplineSet
1580 1595 m 1,0,-1
 1580 0 l 1,1,-1
 904 0 l 1,2,-1
 904 688 l 1,3,-1
 773 688 l 1,4,-1
 773 0 l 1,5,-1
 97 0 l 1,6,-1
 97 1595 l 1,7,-1
 773 1595 l 1,8,-1
 773 938 l 1,9,-1
 904 938 l 1,10,-1
 904 1595 l 1,11,-1
 1580 1595 l 1,0,-1
EndSplineSet
Validated: 16385
EndChar

StartChar: C
Encoding: 67 67 6
Width: 1640
Flags: W
HStem: -39 272<765.26 888.694> 1364 268<762.646 890.949>
VStem: 85 676<233.408 1363.53> 892 676<233.408 686 909 1363.53>
LayerCount: 2
Fore
SplineSet
892 1364 m 1,0,-1
 761 1364 l 1,1,-1
 761 233 l 1,2,-1
 892 233 l 1,3,-1
 892 686 l 1,4,-1
 1568 686 l 1,5,-1
 1568 371 l 2,6,7
 1568 331 1568 331 1562.5 285 c 128,-1,8
 1557 239 1557 239 1534 193.5 c 128,-1,9
 1511 148 1511 148 1465 106 c 128,-1,10
 1419 64 1419 64 1337.5 32 c 128,-1,11
 1256 0 1256 0 1133.5 -19.5 c 128,-1,12
 1011 -39 1011 -39 835 -39 c 0,13,14
 658 -39 658 -39 533.5 -19.5 c 128,-1,15
 409 0 409 0 326 32 c 128,-1,16
 243 64 243 64 194.5 106 c 128,-1,17
 146 148 146 148 122 193.5 c 128,-1,18
 98 239 98 239 91.5 285 c 128,-1,19
 85 331 85 331 85 371 c 2,20,-1
 85 1227 l 2,21,22
 85 1267 85 1267 91.5 1312.5 c 128,-1,23
 98 1358 98 1358 122 1403 c 128,-1,24
 146 1448 146 1448 194 1489.5 c 128,-1,25
 242 1531 242 1531 325 1562.5 c 128,-1,26
 408 1594 408 1594 532 1613 c 128,-1,27
 656 1632 656 1632 832 1632 c 128,-1,28
 1008 1632 1008 1632 1131.5 1613 c 128,-1,29
 1255 1594 1255 1594 1336.5 1562.5 c 128,-1,30
 1418 1531 1418 1531 1464.5 1489.5 c 128,-1,31
 1511 1448 1511 1448 1534 1403 c 128,-1,32
 1557 1358 1557 1358 1562.5 1312.5 c 128,-1,33
 1568 1267 1568 1267 1568 1227 c 2,34,-1
 1568 909 l 1,35,-1
 892 909 l 1,36,-1
 892 1364 l 1,0,-1
EndSplineSet
Validated: 16385
EndChar

StartChar: P
Encoding: 80 80 7
Width: 1599
Flags: W
HStem: 0 21G<97 773> 432 232<773 904> 1364 231<773 904>
VStem: 97 676<0 432 664 1364> 904 676<664.474 1362.88>
LayerCount: 2
Fore
SplineSet
773 664 m 1,0,-1
 904 664 l 1,1,-1
 904 1364 l 1,2,-1
 773 1364 l 1,3,-1
 773 664 l 1,0,-1
97 1595 m 1,4,-1
 911 1595 l 2,5,6
 1078 1595 1078 1595 1192.5 1577 c 128,-1,7
 1307 1559 1307 1559 1381.5 1529 c 128,-1,8
 1456 1499 1456 1499 1496.5 1459.5 c 128,-1,9
 1537 1420 1537 1420 1555.5 1376.5 c 128,-1,10
 1574 1333 1574 1333 1577 1288.5 c 128,-1,11
 1580 1244 1580 1244 1580 1204 c 2,12,-1
 1580 823 l 2,13,14
 1580 783 1580 783 1577 738.5 c 128,-1,15
 1574 694 1574 694 1555.5 651 c 128,-1,16
 1537 608 1537 608 1496.5 568 c 128,-1,17
 1456 528 1456 528 1381.5 498 c 128,-1,18
 1307 468 1307 468 1192.5 450 c 128,-1,19
 1078 432 1078 432 911 432 c 2,20,-1
 773 432 l 1,21,-1
 773 0 l 1,22,-1
 97 0 l 1,23,-1
 97 1595 l 1,4,-1
EndSplineSet
Validated: 16385
EndChar

StartChar: G
Encoding: 71 71 8
Width: 1660
Flags: W
HStem: -39 272<761 882.392> 0 21G<1035.04 1568> 1364 268<762.052 887.332>
VStem: 85 676<233.172 1363.5> 892 676<233 594 909 1363.53>
LayerCount: 2
Fore
SplineSet
1568 825 m 1,0,-1
 1568 0 l 1,1,-1
 1046 0 l 1,2,-1
 989 104 l 1,3,4
 966 64 966 64 925 32 c 0,5,6
 890 5 890 5 830.5 -17 c 128,-1,7
 771 -39 771 -39 681 -39 c 0,8,9
 565 -39 565 -39 475.5 -20.5 c 128,-1,10
 386 -2 386 -2 320 28.5 c 128,-1,11
 254 59 254 59 209 99.5 c 128,-1,12
 164 140 164 140 136.5 184.5 c 128,-1,13
 109 229 109 229 97 273.5 c 128,-1,14
 85 318 85 318 85 358 c 2,15,-1
 85 1227 l 2,16,17
 85 1270 85 1270 91.5 1317 c 128,-1,18
 98 1364 98 1364 123 1409 c 128,-1,19
 148 1454 148 1454 196 1494.5 c 128,-1,20
 244 1535 244 1535 327 1565.5 c 128,-1,21
 410 1596 410 1596 533 1614 c 128,-1,22
 656 1632 656 1632 831 1632 c 0,23,24
 999 1632 999 1632 1119 1613 c 128,-1,25
 1239 1594 1239 1594 1321 1562.5 c 128,-1,26
 1403 1531 1403 1531 1451.5 1489.5 c 128,-1,27
 1500 1448 1500 1448 1526 1403 c 128,-1,28
 1552 1358 1552 1358 1560 1312.5 c 128,-1,29
 1568 1267 1568 1267 1568 1227 c 2,30,-1
 1568 909 l 1,31,-1
 892 909 l 1,32,-1
 892 1364 l 1,33,-1
 761 1364 l 1,34,-1
 761 233 l 1,35,-1
 892 233 l 1,36,-1
 892 594 l 1,37,-1
 830 594 l 1,38,-1
 830 825 l 1,39,-1
 1568 825 l 1,0,-1
EndSplineSet
Validated: 16385
EndChar

StartChar: L
Encoding: 76 76 9
Width: 1146
Flags: W
HStem: 0 244<773 1136> 1575 20G<97 773>
VStem: 97 676<244 1595>
LayerCount: 2
Fore
SplineSet
97 0 m 1,0,-1
 97 1595 l 1,1,-1
 773 1595 l 1,2,-1
 773 244 l 1,3,-1
 1136 244 l 1,4,-1
 1136 0 l 1,5,-1
 97 0 l 1,0,-1
EndSplineSet
Validated: 16385
EndChar

StartChar: E
Encoding: 69 69 10
Width: 1186
Flags: W
HStem: 0 244<773 1136> 711 250<773 1111> 1354 241<773 1136>
VStem: 97 676<244 711 961 1354>
LayerCount: 2
Fore
SplineSet
1136 1595 m 1,0,-1
 1136 1354 l 1,1,-1
 773 1354 l 1,2,-1
 773 961 l 1,3,-1
 1111 961 l 1,4,-1
 1111 711 l 1,5,-1
 773 711 l 1,6,-1
 773 244 l 1,7,-1
 1136 244 l 1,8,-1
 1136 0 l 1,9,-1
 97 0 l 1,10,-1
 97 1595 l 1,11,-1
 1136 1595 l 1,0,-1
EndSplineSet
Validated: 16385
EndChar

StartChar: T
Encoding: 84 84 11
Width: 1397
Flags: W
HStem: 0 21G<359 1035> 1304 291<0 359 1035 1397>
VStem: 359 676<0 1304>
LayerCount: 2
Fore
SplineSet
1397 1595 m 1,0,-1
 1397 1304 l 1,1,-1
 1035 1304 l 1,2,-1
 1035 0 l 1,3,-1
 359 0 l 1,4,-1
 359 1304 l 1,5,-1
 0 1304 l 1,6,-1
 0 1595 l 1,7,-1
 1397 1595 l 1,0,-1
EndSplineSet
Validated: 16385
EndChar

StartChar: U
Encoding: 85 85 12
Width: 1661
Flags: W
HStem: -39 272<766.488 894.814> 1575 20G<89 765 896 1572>
VStem: 89 676<233.408 1595> 896 676<233.408 1595>
LayerCount: 2
Fore
SplineSet
765 233 m 1,0,-1
 896 233 l 1,1,-1
 896 1595 l 1,2,-1
 1572 1595 l 1,3,-1
 1572 371 l 2,4,5
 1572 331 1572 331 1566 285 c 128,-1,6
 1560 239 1560 239 1536 193.5 c 128,-1,7
 1512 148 1512 148 1464.5 106 c 128,-1,8
 1417 64 1417 64 1335 32 c 128,-1,9
 1253 0 1253 0 1129.5 -19.5 c 128,-1,10
 1006 -39 1006 -39 831 -39 c 0,11,12
 654 -39 654 -39 530 -19.5 c 128,-1,13
 406 0 406 0 323.5 32 c 128,-1,14
 241 64 241 64 194 106 c 128,-1,15
 147 148 147 148 123.5 193.5 c 128,-1,16
 100 239 100 239 94.5 285 c 128,-1,17
 89 331 89 331 89 371 c 2,18,-1
 89 1595 l 1,19,-1
 765 1595 l 1,20,-1
 765 233 l 1,0,-1
EndSplineSet
Validated: 16385
EndChar

StartChar: Q
Encoding: 81 81 13
Width: 1653
Flags: W
HStem: -455 370<1119.94 1375> 1364 268<761.506 890.154>
VStem: 85 676<233.408 1363.53> 892 676<233.408 1363.53>
LayerCount: 2
Fore
SplineSet
761 233 m 1,0,-1
 892 233 l 1,1,-1
 892 1364 l 1,2,-1
 761 1364 l 1,3,-1
 761 233 l 1,0,-1
1097 -24 m 1,4,-1
 1100 -26 l 2,5,6
 1132 -51 1132 -51 1171.5 -68 c 128,-1,7
 1211 -85 1211 -85 1270 -85 c 0,8,9
 1317 -85 1317 -85 1375 -72 c 1,10,-1
 1457 -39 l 1,11,-1
 1449 -387 l 1,12,13
 1406 -406 1406 -406 1362 -421 c 0,14,15
 1324 -434 1324 -434 1280 -444 c 128,-1,16
 1236 -454 1236 -454 1197 -455 c 0,17,18
 1140 -455 1140 -455 1098 -443 c 128,-1,19
 1056 -431 1056 -431 1024 -411.5 c 128,-1,20
 992 -392 992 -392 967.5 -367 c 128,-1,21
 943 -342 943 -342 921 -316 c 1,22,-1
 874 -266 l 2,23,24
 850 -242 850 -242 820 -222 c 128,-1,25
 790 -202 790 -202 750.5 -190 c 128,-1,26
 711 -178 711 -178 657 -178 c 0,27,28
 582 -178 582 -178 523.5 -198 c 128,-1,29
 465 -218 465 -218 423 -242 c 0,30,31
 375 -270 375 -270 337 -305 c 1,32,-1
 212 -45 l 1,33,34
 256 -2 256 -2 318 33 c 1,35,36
 237 65 237 65 190 106 c 0,37,38
 143 148 143 148 119.5 193.5 c 128,-1,39
 96 239 96 239 90.5 285 c 128,-1,40
 85 331 85 331 85 371 c 2,41,-1
 85 1227 l 2,42,43
 85 1267 85 1267 90.5 1312.5 c 128,-1,44
 96 1358 96 1358 119.5 1403 c 128,-1,45
 143 1448 143 1448 190 1489.5 c 128,-1,46
 237 1531 237 1531 319.5 1562.5 c 128,-1,47
 402 1594 402 1594 525.5 1613 c 128,-1,48
 649 1632 649 1632 826 1632 c 0,49,50
 1002 1632 1002 1632 1125.5 1613 c 128,-1,51
 1249 1594 1249 1594 1331.5 1562.5 c 128,-1,52
 1414 1531 1414 1531 1461.5 1489.5 c 128,-1,53
 1509 1448 1509 1448 1532.5 1403 c 128,-1,54
 1556 1358 1556 1358 1562 1312.5 c 128,-1,55
 1568 1267 1568 1267 1568 1227 c 2,56,-1
 1568 371 l 2,57,58
 1568 331 1568 331 1562 285 c 128,-1,59
 1556 239 1556 239 1532.5 193.5 c 128,-1,60
 1509 148 1509 148 1461.5 106 c 128,-1,61
 1414 64 1414 64 1332 32 c 128,-1,62
 1250 0 1250 0 1126 -20 c 0,63,64
 1112 -22 1112 -22 1097 -24 c 1,4,-1
EndSplineSet
Validated: 16385
EndChar

StartChar: R
Encoding: 82 82 14
Width: 1640
Flags: W
HStem: 0 21G<97 773 904 1582> 649 232<773 904> 1364 231<773 901.632>
VStem: 97 676<0 649 881 1364> 904 678<0 647.518> 904 652<885.756 1362.36>
LayerCount: 2
Fore
SplineSet
773 881 m 1,0,-1
 904 881 l 1,1,-1
 904 1364 l 1,2,-1
 773 1364 l 1,3,-1
 773 881 l 1,0,-1
904 649 m 1,4,-1
 773 649 l 1,5,-1
 773 0 l 1,6,-1
 97 0 l 1,7,-1
 97 1595 l 1,8,-1
 886 1595 l 2,9,10
 1054 1595 1054 1595 1168.5 1576.5 c 128,-1,11
 1283 1558 1283 1558 1357.5 1525.5 c 128,-1,12
 1432 1493 1432 1493 1472.5 1448 c 128,-1,13
 1513 1403 1513 1403 1531.5 1349 c 128,-1,14
 1550 1295 1550 1295 1553 1234 c 128,-1,15
 1556 1173 1556 1173 1556 1110 c 0,16,17
 1556 1033 1556 1033 1545.5 982 c 128,-1,18
 1535 931 1535 931 1517.5 897 c 128,-1,19
 1500 863 1500 863 1478.5 844 c 128,-1,20
 1457 825 1457 825 1435 813 c 0,21,22
 1409 799 1409 799 1378.5 789 c 128,-1,23
 1348 779 1348 779 1316 774 c 1,24,25
 1355 771 1355 771 1401 756.5 c 128,-1,26
 1447 742 1447 742 1487 710 c 0,27,28
 1528 678 1528 678 1554 623 c 0,29,30
 1580 570 1580 570 1580 487 c 2,31,-1
 1582 0 l 1,32,-1
 904 0 l 1,33,-1
 904 649 l 1,4,-1
EndSplineSet
Validated: 16385
EndChar

StartChar: I
Encoding: 73 73 15
Width: 870
Flags: W
HStem: 0 21G<97 773> 1575 20G<97 773>
VStem: 97 676<0 1595>
LayerCount: 2
Fore
SplineSet
773 1595 m 1,0,-1
 773 0 l 1,1,-1
 97 0 l 1,2,-1
 97 1595 l 1,3,-1
 773 1595 l 1,0,-1
EndSplineSet
Validated: 16385
EndChar

StartChar: M
Encoding: 77 77 16
Width: 2131
Flags: W
HStem: 0 21G<97 646 823.369 1305.64 1445 2034> 1575 20G<219.445 948.257 1181.8 1912.54>
LayerCount: 2
Fore
SplineSet
828 0 m 1,0,-1
 646 786 l 1,1,-1
 646 0 l 1,2,-1
 97 0 l 1,3,-1
 221 1595 l 1,4,-1
 945 1595 l 1,5,-1
 1066 852 l 1,6,-1
 1185 1595 l 1,7,-1
 1911 1595 l 1,8,-1
 2034 0 l 1,9,-1
 1445 0 l 1,10,-1
 1445 786 l 1,11,-1
 1302 0 l 1,12,-1
 828 0 l 1,0,-1
EndSplineSet
Validated: 16385
EndChar

StartChar: A
Encoding: 65 65 17
Width: 1636
Flags: W
HStem: 0 21G<12 680.701 955.299 1624> 348 230<755 881> 1575 20G<356.624 1279.38>
LayerCount: 2
Fore
SplineSet
755 578 m 1,0,-1
 881 578 l 1,1,-1
 818 1001 l 1,2,-1
 755 578 l 1,0,-1
725 348 m 1,3,-1
 678 0 l 1,4,-1
 12 0 l 1,5,-1
 361 1595 l 1,6,-1
 1275 1595 l 1,7,-1
 1624 0 l 1,8,-1
 958 0 l 1,9,-1
 911 348 l 1,10,-1
 725 348 l 1,3,-1
EndSplineSet
Validated: 16385
EndChar

StartChar: O
Encoding: 79 79 18
Width: 1653
Flags: W
HStem: -39 272<761.506 890.154> 1364 268<761.506 890.154>
VStem: 85 676<233.408 1363.53> 892 676<233.408 1363.53>
LayerCount: 2
Fore
SplineSet
826 -39 m 0,0,1
 649 -39 649 -39 525.5 -19.5 c 128,-1,2
 402 0 402 0 319.5 32 c 128,-1,3
 237 64 237 64 190 106 c 128,-1,4
 143 148 143 148 119.5 193.5 c 128,-1,5
 96 239 96 239 90.5 285 c 128,-1,6
 85 331 85 331 85 371 c 2,7,-1
 85 1227 l 2,8,9
 85 1267 85 1267 90.5 1312.5 c 128,-1,10
 96 1358 96 1358 119.5 1403 c 128,-1,11
 143 1448 143 1448 190 1489.5 c 128,-1,12
 237 1531 237 1531 319.5 1562.5 c 128,-1,13
 402 1594 402 1594 525.5 1613 c 128,-1,14
 649 1632 649 1632 826 1632 c 0,15,16
 1002 1632 1002 1632 1125.5 1613 c 128,-1,17
 1249 1594 1249 1594 1331.5 1562.5 c 128,-1,18
 1414 1531 1414 1531 1461.5 1489.5 c 128,-1,19
 1509 1448 1509 1448 1532.5 1403 c 128,-1,20
 1556 1358 1556 1358 1562 1312.5 c 128,-1,21
 1568 1267 1568 1267 1568 1227 c 2,22,-1
 1568 371 l 2,23,24
 1568 331 1568 331 1562 285 c 128,-1,25
 1556 239 1556 239 1532.5 193.5 c 128,-1,26
 1509 148 1509 148 1461.5 106 c 128,-1,27
 1414 64 1414 64 1331.5 32 c 128,-1,28
 1249 0 1249 0 1125.5 -19.5 c 128,-1,29
 1002 -39 1002 -39 826 -39 c 0,0,1
761 233 m 1,30,-1
 892 233 l 1,31,-1
 892 1364 l 1,32,-1
 761 1364 l 1,33,-1
 761 233 l 1,30,-1
EndSplineSet
Validated: 16385
EndChar

StartChar: B
Encoding: 66 66 19
Width: 1600
Flags: W
HStem: 0 233<773 904> 750 231<773 904> 1364 231<773 904>
VStem: 97 676<233 750 981 1364> 904 676<234.406 696.241>
LayerCount: 2
Fore
SplineSet
773 981 m 1,0,-1
 904 981 l 1,1,-1
 904 1364 l 1,2,-1
 773 1364 l 1,3,-1
 773 981 l 1,0,-1
773 233 m 1,4,-1
 904 233 l 1,5,-1
 904 750 l 1,6,-1
 773 750 l 1,7,-1
 773 233 l 1,4,-1
1580 460 m 0,8,9
 1580 397 1580 397 1577 338 c 128,-1,10
 1574 279 1574 279 1555.5 228 c 128,-1,11
 1537 177 1537 177 1497.5 135 c 128,-1,12
 1458 93 1458 93 1385 63 c 128,-1,13
 1312 33 1312 33 1199.5 16.5 c 128,-1,14
 1087 0 1087 0 923 0 c 2,15,-1
 97 0 l 1,16,-1
 97 1595 l 1,17,-1
 923 1595 l 2,18,19
 1075 1595 1075 1595 1179.5 1578 c 128,-1,20
 1284 1561 1284 1561 1352 1531 c 128,-1,21
 1420 1501 1420 1501 1456.5 1461 c 128,-1,22
 1493 1421 1493 1421 1510 1376 c 128,-1,23
 1527 1331 1527 1331 1530 1282.5 c 128,-1,24
 1533 1234 1533 1234 1533 1188 c 0,25,26
 1533 1123 1533 1123 1519 1076.5 c 128,-1,27
 1505 1030 1505 1030 1482 997.5 c 128,-1,28
 1459 965 1459 965 1430 944 c 0,29,30
 1402 923 1402 923 1371 909 c 0,31,32
 1301 876 1301 876 1211 870 c 1,33,34
 1314 864 1314 864 1395 827 c 0,35,36
 1430 811 1430 811 1463 786.5 c 128,-1,37
 1496 762 1496 762 1522 720 c 128,-1,38
 1548 678 1548 678 1564 615.5 c 128,-1,39
 1580 553 1580 553 1580 460 c 0,8,9
EndSplineSet
Validated: 16385
EndChar

StartChar: S
Encoding: 83 83 20
Width: 1561
Flags: W
HStem: -39 272<716.551 842.21> 1364 268<717.341 845.584>
VStem: 39 676<233.408 533 1081.69 1362.53> 846 676<243.906 581.43>
LayerCount: 2
Fore
SplineSet
715 1106 m 2,0,1
 715 1090 715 1090 749.5 1083.5 c 128,-1,2
 784 1077 784 1077 841 1071.5 c 128,-1,3
 898 1066 898 1066 970.5 1058 c 128,-1,4
 1043 1050 1043 1050 1118.5 1032 c 128,-1,5
 1194 1014 1194 1014 1266.5 982 c 128,-1,6
 1339 950 1339 950 1396 897 c 128,-1,7
 1453 844 1453 844 1487.5 766 c 128,-1,8
 1522 688 1522 688 1522 578 c 0,9,10
 1522 499 1522 499 1517 422.5 c 128,-1,11
 1512 346 1512 346 1490 277.5 c 128,-1,12
 1468 209 1468 209 1423 151 c 128,-1,13
 1378 93 1378 93 1298 51 c 128,-1,14
 1218 9 1218 9 1098 -15 c 128,-1,15
 978 -39 978 -39 805 -39 c 128,-1,16
 632 -39 632 -39 508 -19.5 c 128,-1,17
 384 0 384 0 299 32 c 128,-1,18
 214 64 214 64 162.5 106 c 128,-1,19
 111 148 111 148 83.5 193.5 c 128,-1,20
 56 239 56 239 47.5 285 c 128,-1,21
 39 331 39 331 39 371 c 2,22,-1
 39 533 l 1,23,-1
 715 533 l 1,24,-1
 715 233 l 1,25,-1
 846 233 l 1,26,-1
 846 553 l 2,27,28
 846 568 846 568 811.5 578.5 c 128,-1,29
 777 589 777 589 720 601 c 2,30,-1
 590 628 l 2,31,32
 518 642 518 642 442.5 664.5 c 128,-1,33
 367 687 367 687 294.5 719.5 c 128,-1,34
 222 752 222 752 165 800 c 128,-1,35
 108 848 108 848 73.5 912.5 c 128,-1,36
 39 977 39 977 39 1064 c 0,37,38
 39 1172 39 1172 52.5 1256.5 c 128,-1,39
 66 1341 66 1341 99.5 1404 c 128,-1,40
 133 1467 133 1467 189 1510.5 c 128,-1,41
 245 1554 245 1554 329.5 1581 c 128,-1,42
 414 1608 414 1608 530.5 1620 c 128,-1,43
 647 1632 647 1632 801 1632 c 0,44,45
 963 1632 963 1632 1075.5 1614.5 c 128,-1,46
 1188 1597 1188 1597 1263 1567.5 c 128,-1,47
 1338 1538 1338 1538 1380.5 1499.5 c 128,-1,48
 1423 1461 1423 1461 1444 1418 c 128,-1,49
 1465 1375 1465 1375 1470 1331 c 128,-1,50
 1475 1287 1475 1287 1475 1247 c 2,51,-1
 1475 1128 l 1,52,-1
 846 1128 l 1,53,-1
 846 1364 l 1,54,-1
 715 1364 l 1,55,-1
 715 1106 l 2,0,1
EndSplineSet
Validated: 16385
EndChar

StartChar: Z
Encoding: 90 90 21
Width: 1152
Flags: W
HStem: 0 294<759 1117> 1304 291<38 434>
LayerCount: 2
Fore
SplineSet
1128 1595 m 1,0,-1
 759 294 l 1,1,-1
 1117 294 l 1,2,-1
 1117 0 l 1,3,-1
 26 0 l 1,4,-1
 434 1304 l 1,5,-1
 38 1304 l 1,6,-1
 38 1595 l 1,7,-1
 1128 1595 l 1,0,-1
EndSplineSet
Validated: 16385
EndChar

StartChar: Y
Encoding: 89 89 22
Width: 1560
Flags: W
HStem: 0 21G<441 1117> 1575 20G<-24 586.491 973.311 1584>
LayerCount: 2
Fore
SplineSet
580 1595 m 1,0,-1
 777 988 l 1,1,-1
 980 1595 l 1,2,-1
 1584 1595 l 1,3,-1
 1117 449 l 1,4,-1
 1117 0 l 1,5,-1
 441 0 l 1,6,-1
 441 459 l 1,7,-1
 -24 1595 l 1,8,-1
 580 1595 l 1,0,-1
EndSplineSet
Validated: 16385
EndChar

StartChar: J
Encoding: 74 74 23
Width: 1599
Flags: W
HStem: -39 272<696.237 825.003>
VStem: 20 675<233.408 686> 826 676<233.408 1595>
LayerCount: 2
Fore
SplineSet
826 1595 m 1,0,-1
 1502 1595 l 1,1,-1
 1502 371 l 2,2,3
 1502 331 1502 331 1494 285 c 128,-1,4
 1486 239 1486 239 1460.5 193.5 c 128,-1,5
 1435 148 1435 148 1386.5 106 c 128,-1,6
 1338 64 1338 64 1256.5 32 c 128,-1,7
 1175 0 1175 0 1055.5 -19.5 c 128,-1,8
 936 -39 936 -39 769 -39 c 0,9,10
 584 -39 584 -39 457 -19.5 c 128,-1,11
 330 0 330 0 246.5 32 c 128,-1,12
 163 64 163 64 117.5 106 c 128,-1,13
 72 148 72 148 50 193.5 c 128,-1,14
 28 239 28 239 24 285 c 128,-1,15
 20 331 20 331 20 371 c 2,16,-1
 20 686 l 1,17,-1
 695 686 l 1,18,-1
 695 233 l 1,19,-1
 826 233 l 1,20,-1
 826 1595 l 1,0,-1
EndSplineSet
Validated: 16385
EndChar

StartChar: period
Encoding: 46 46 24
Width: 699
Flags: W
HStem: 0 467<80 619>
VStem: 80 539<0 467>
LayerCount: 2
Fore
SplineSet
619 0 m 1,0,-1
 80 0 l 1,1,-1
 80 467 l 1,2,-1
 619 467 l 1,3,-1
 619 0 l 1,0,-1
EndSplineSet
Validated: 16385
EndChar

StartChar: V
Encoding: 86 86 25
Width: 1706
Flags: W
HStem: 0 21G<432.658 1273.34> 1575 20G<12 689.458 1016.5 1694>
LayerCount: 2
Fore
SplineSet
1694 1595 m 1,0,-1
 1268 0 l 1,1,-1
 438 0 l 1,2,-1
 12 1595 l 1,3,-1
 686 1595 l 1,4,-1
 852 635 l 1,5,-1
 1020 1595 l 1,6,-1
 1694 1595 l 1,0,-1
EndSplineSet
Validated: 16385
EndChar

StartChar: o
Encoding: 111 111 26
Width: 1538
Flags: W
HStem: -39 270<710.846 827.87> 1069 274<710.846 827.87>
VStem: 88 621<231.591 1068.36> 829 621<231.591 1068.36>
LayerCount: 2
Fore
SplineSet
772 -39 m 0,0,1
 604 -39 604 -39 488.5 -21 c 128,-1,2
 373 -3 373 -3 297 27 c 128,-1,3
 221 57 221 57 179 97 c 128,-1,4
 137 137 137 137 116.5 180 c 128,-1,5
 96 223 96 223 92 267.5 c 128,-1,6
 88 312 88 312 88 352 c 2,7,-1
 88 952 l 2,8,9
 88 992 88 992 92 1036.5 c 128,-1,10
 96 1081 96 1081 116.5 1124.5 c 128,-1,11
 137 1168 137 1168 179 1207.5 c 128,-1,12
 221 1247 221 1247 297 1277 c 128,-1,13
 373 1307 373 1307 488.5 1325 c 128,-1,14
 604 1343 604 1343 772 1343 c 0,15,16
 939 1343 939 1343 1054 1325 c 128,-1,17
 1169 1307 1169 1307 1244.5 1277 c 128,-1,18
 1320 1247 1320 1247 1361.5 1207.5 c 128,-1,19
 1403 1168 1403 1168 1422.5 1124.5 c 128,-1,20
 1442 1081 1442 1081 1446 1036.5 c 128,-1,21
 1450 992 1450 992 1450 952 c 2,22,-1
 1450 352 l 2,23,24
 1450 312 1450 312 1446 267.5 c 128,-1,25
 1442 223 1442 223 1422.5 180 c 128,-1,26
 1403 137 1403 137 1361.5 97 c 128,-1,27
 1320 57 1320 57 1244.5 27 c 128,-1,28
 1169 -3 1169 -3 1054 -21 c 128,-1,29
 939 -39 939 -39 772 -39 c 0,0,1
709 231 m 1,30,-1
 829 231 l 1,31,-1
 829 1069 l 1,32,-1
 709 1069 l 1,33,-1
 709 231 l 1,30,-1
EndSplineSet
Validated: 16385
EndChar

StartChar: c
Encoding: 99 99 27
Width: 1505
Flags: W
HStem: -37 268<710.846 827.87> 1069 274<710.846 825.268>
VStem: 88 621<232.22 1068.13> 829 621<231.754 598 741 1068.18>
LayerCount: 2
Fore
SplineSet
1450 598 m 1,0,-1
 1450 354 l 2,1,2
 1450 315 1450 315 1446 270.5 c 128,-1,3
 1442 226 1442 226 1422.5 182.5 c 128,-1,4
 1403 139 1403 139 1361.5 99.5 c 128,-1,5
 1320 60 1320 60 1244.5 29.5 c 128,-1,6
 1169 -1 1169 -1 1054 -19 c 128,-1,7
 939 -37 939 -37 772 -37 c 0,8,9
 604 -37 604 -37 488.5 -19 c 128,-1,10
 373 -1 373 -1 297 29 c 128,-1,11
 221 59 221 59 179 99 c 128,-1,12
 137 139 137 139 116.5 182 c 128,-1,13
 96 225 96 225 92 269.5 c 128,-1,14
 88 314 88 314 88 354 c 2,15,-1
 88 954 l 2,16,17
 88 994 88 994 92 1038 c 128,-1,18
 96 1082 96 1082 116.5 1125 c 128,-1,19
 137 1168 137 1168 179 1207.5 c 128,-1,20
 221 1247 221 1247 297 1277 c 128,-1,21
 373 1307 373 1307 488.5 1325 c 128,-1,22
 604 1343 604 1343 772 1343 c 0,23,24
 931 1343 931 1343 1043 1327 c 128,-1,25
 1155 1311 1155 1311 1230 1283 c 128,-1,26
 1305 1255 1305 1255 1349 1219 c 128,-1,27
 1393 1183 1393 1183 1415.5 1142 c 128,-1,28
 1438 1101 1438 1101 1444 1059 c 128,-1,29
 1450 1017 1450 1017 1450 978 c 2,30,-1
 1450 741 l 1,31,-1
 829 741 l 1,32,-1
 829 1069 l 1,33,-1
 709 1069 l 1,34,-1
 709 231 l 1,35,-1
 829 231 l 1,36,-1
 829 598 l 1,37,-1
 1450 598 l 1,0,-1
EndSplineSet
Validated: 16385
EndChar

StartChar: e
Encoding: 101 101 28
Width: 1503
Flags: W
HStem: -37 268<710.846 827.87> 621 206<709 829> 1069 274<710.846 827.87>
VStem: 88 621<232.22 621 827 1068.13> 829 621<232.22 531 827 1067.92>
LayerCount: 2
Fore
SplineSet
709 827 m 1,0,-1
 829 827 l 1,1,-1
 829 1069 l 1,2,-1
 709 1069 l 1,3,-1
 709 827 l 1,0,-1
1450 531 m 1,4,-1
 1450 354 l 2,5,6
 1450 314 1450 314 1446 269.5 c 128,-1,7
 1442 225 1442 225 1422.5 182 c 128,-1,8
 1403 139 1403 139 1361.5 99 c 128,-1,9
 1320 59 1320 59 1244.5 29 c 128,-1,10
 1169 -1 1169 -1 1054 -19 c 128,-1,11
 939 -37 939 -37 772 -37 c 0,12,13
 604 -37 604 -37 488.5 -19 c 128,-1,14
 373 -1 373 -1 297 29 c 128,-1,15
 221 59 221 59 179 99 c 128,-1,16
 137 139 137 139 116.5 182 c 128,-1,17
 96 225 96 225 92 269.5 c 128,-1,18
 88 314 88 314 88 354 c 2,19,-1
 88 954 l 2,20,21
 88 994 88 994 92 1038 c 128,-1,22
 96 1082 96 1082 116.5 1125 c 128,-1,23
 137 1168 137 1168 179 1207.5 c 128,-1,24
 221 1247 221 1247 297 1277 c 128,-1,25
 373 1307 373 1307 488.5 1325 c 128,-1,26
 604 1343 604 1343 772 1343 c 0,27,28
 939 1343 939 1343 1054 1325 c 128,-1,29
 1169 1307 1169 1307 1244.5 1277 c 128,-1,30
 1320 1247 1320 1247 1361.5 1207.5 c 128,-1,31
 1403 1168 1403 1168 1422.5 1125 c 128,-1,32
 1442 1082 1442 1082 1446 1037.5 c 128,-1,33
 1450 993 1450 993 1450 954 c 2,34,-1
 1450 621 l 1,35,-1
 709 621 l 1,36,-1
 709 231 l 1,37,-1
 829 231 l 1,38,-1
 829 531 l 1,39,-1
 1450 531 l 1,4,-1
EndSplineSet
Validated: 16385
EndChar

StartChar: n
Encoding: 110 110 29
Width: 1544
Flags: W
HStem: 0 21G<92 713 833 1454> 1280 20G<92 643.267 983.5 1059>
VStem: 92 621<0 1069> 833 621<0 1067.62>
LayerCount: 2
Fore
SplineSet
92 0 m 1,0,-1
 92 1300 l 1,1,-1
 635 1300 l 1,2,-1
 666 1225 l 1,3,4
 691 1255 691 1255 732 1277.5 c 128,-1,5
 773 1300 773 1300 819.5 1314.5 c 128,-1,6
 866 1329 866 1329 914.5 1336 c 128,-1,7
 963 1343 963 1343 1004 1343 c 0,8,9
 1114 1343 1114 1343 1190 1323 c 128,-1,10
 1266 1303 1266 1303 1316 1270 c 128,-1,11
 1366 1237 1366 1237 1394 1194 c 128,-1,12
 1422 1151 1422 1151 1435 1105 c 128,-1,13
 1448 1059 1448 1059 1451 1013 c 128,-1,14
 1454 967 1454 967 1454 928 c 2,15,-1
 1454 0 l 1,16,-1
 833 0 l 1,17,-1
 833 1069 l 1,18,-1
 713 1069 l 1,19,-1
 713 0 l 1,20,-1
 92 0 l 1,0,-1
EndSplineSet
Validated: 16385
EndChar

StartChar: u
Encoding: 117 117 30
Width: 1505
Flags: W
HStem: 0 21G<878.842 1431>
VStem: 69 621<231.684 1300> 810 621<231 1300>
LayerCount: 2
Fore
SplineSet
1431 1300 m 1,0,-1
 1431 0 l 1,1,-1
 887 0 l 1,2,-1
 856 76 l 1,3,4
 835 45 835 45 794 23.5 c 128,-1,5
 753 2 753 2 705 -11.5 c 128,-1,6
 657 -25 657 -25 607.5 -31 c 128,-1,7
 558 -37 558 -37 520 -37 c 0,8,9
 410 -37 410 -37 333.5 -17.5 c 128,-1,10
 257 2 257 2 207 35 c 128,-1,11
 157 68 157 68 129 111 c 128,-1,12
 101 154 101 154 87.5 200 c 128,-1,13
 74 246 74 246 71.5 292.5 c 128,-1,14
 69 339 69 339 69 379 c 2,15,-1
 69 1300 l 1,16,-1
 690 1300 l 1,17,-1
 690 231 l 1,18,-1
 810 231 l 1,19,-1
 810 1300 l 1,20,-1
 1431 1300 l 1,0,-1
EndSplineSet
Validated: 16385
EndChar

StartChar: m
Encoding: 109 109 31
Width: 2274
Flags: W
HStem: 0 21G<92 713 833 1443 1563 2184> 1280 20G<92 642.267 982.5 1038.5 1671.5 1779>
VStem: 92 621<0 1069> 833 610<0 1069> 1563 621<0 1067.62>
CounterMasks: 1 38
LayerCount: 2
Fore
SplineSet
1433 1069 m 1,0,1
 1441 1026 1441 1026 1442 985 c 128,-1,2
 1443 944 1443 944 1443 909 c 2,3,-1
 1443 0 l 1,4,-1
 833 0 l 1,5,-1
 833 1069 l 1,6,-1
 713 1069 l 1,7,-1
 713 0 l 1,8,-1
 92 -1 l 1,9,-1
 92 1300 l 1,10,-1
 634 1300 l 1,11,-1
 665 1225 l 1,12,13
 690 1255 690 1255 731 1277.5 c 128,-1,14
 772 1300 772 1300 818.5 1314.5 c 128,-1,15
 865 1329 865 1329 913.5 1336 c 128,-1,16
 962 1343 962 1343 1003 1343 c 0,17,18
 1074 1343 1074 1343 1129 1332 c 128,-1,19
 1184 1321 1184 1321 1226.5 1302.5 c 128,-1,20
 1269 1284 1269 1284 1300 1261 c 128,-1,21
 1331 1238 1331 1238 1355 1214 c 1,22,23
 1359 1220 1359 1220 1377.5 1241 c 128,-1,24
 1396 1262 1396 1262 1438 1284.5 c 128,-1,25
 1480 1307 1480 1307 1549.5 1325 c 128,-1,26
 1619 1343 1619 1343 1724 1343 c 0,27,28
 1834 1343 1834 1343 1911 1323 c 128,-1,29
 1988 1303 1988 1303 2039 1270 c 128,-1,30
 2090 1237 2090 1237 2119 1194 c 128,-1,31
 2148 1151 2148 1151 2162.5 1105 c 128,-1,32
 2177 1059 2177 1059 2180.5 1013 c 128,-1,33
 2184 967 2184 967 2184 928 c 2,34,-1
 2184 0 l 1,35,-1
 1563 0 l 1,36,-1
 1563 1069 l 1,37,-1
 1433 1069 l 1,0,1
EndSplineSet
Validated: 16385
EndChar

StartChar: i
Encoding: 105 105 32
Width: 774
Flags: W
HStem: 0 21G<75 696> 1280 20G<75 696> 1393 315<75 696>
VStem: 75 621<0 1300 1393 1708>
LayerCount: 2
Fore
SplineSet
696 1708 m 1,0,-1
 696 1393 l 1,1,-1
 75 1393 l 1,2,-1
 75 1708 l 1,3,-1
 696 1708 l 1,0,-1
696 0 m 1,4,-1
 75 0 l 1,5,-1
 75 1300 l 1,6,-1
 696 1300 l 1,7,-1
 696 0 l 1,4,-1
EndSplineSet
Validated: 16385
EndChar

StartChar: b
Encoding: 98 98 33
Width: 1542
Flags: W
HStem: 0 21G<92 642.949> 1690 20G<92 713>
VStem: 92 621<231 1069 1225 1710> 833 621<232.127 1067.75>
LayerCount: 2
Fore
SplineSet
713 231 m 1,0,-1
 833 231 l 1,1,-1
 833 1069 l 1,2,-1
 713 1069 l 1,3,-1
 713 231 l 1,0,-1
713 1710 m 1,4,-1
 713 1225 l 1,5,6
 730 1253 730 1253 754.5 1275 c 128,-1,7
 779 1297 779 1297 815 1312 c 128,-1,8
 851 1327 851 1327 899.5 1335 c 128,-1,9
 948 1343 948 1343 1013 1343 c 0,10,11
 1123 1343 1123 1343 1198.5 1323.5 c 128,-1,12
 1274 1304 1274 1304 1323 1271.5 c 128,-1,13
 1372 1239 1372 1239 1398.5 1196.5 c 128,-1,14
 1425 1154 1425 1154 1437.5 1108 c 128,-1,15
 1450 1062 1450 1062 1452 1016 c 128,-1,16
 1454 970 1454 970 1454 930 c 2,17,-1
 1454 377 l 2,18,19
 1454 338 1454 338 1452 291.5 c 128,-1,20
 1450 245 1450 245 1437.5 199 c 128,-1,21
 1425 153 1425 153 1398.5 110.5 c 128,-1,22
 1372 68 1372 68 1323 35 c 128,-1,23
 1274 2 1274 2 1198.5 -17.5 c 128,-1,24
 1123 -37 1123 -37 1013 -37 c 0,25,26
 975 -37 975 -37 925.5 -31 c 128,-1,27
 876 -25 876 -25 827 -11.5 c 128,-1,28
 778 2 778 2 734.5 24 c 128,-1,29
 691 46 691 46 666 78 c 1,30,-1
 635 0 l 1,31,-1
 92 0 l 1,32,-1
 92 1710 l 1,33,-1
 713 1710 l 1,4,-1
EndSplineSet
Validated: 16385
EndChar

StartChar: d
Encoding: 100 100 34
Width: 1496
Flags: W
HStem: 0 21G<899.051 1450> 1690 20G<829 1450>
VStem: 88 621<232.062 1067.75> 829 621<231 1069 1225 1710>
LayerCount: 2
Fore
SplineSet
829 1069 m 1,0,-1
 709 1069 l 1,1,-1
 709 231 l 1,2,-1
 829 231 l 1,3,-1
 829 1069 l 1,0,-1
1450 1710 m 1,4,-1
 1450 0 l 1,5,-1
 907 0 l 1,6,-1
 876 78 l 1,7,8
 850 46 850 46 807 24 c 128,-1,9
 764 2 764 2 715 -11.5 c 128,-1,10
 666 -25 666 -25 616.5 -31 c 128,-1,11
 567 -37 567 -37 529 -37 c 0,12,13
 419 -37 419 -37 343.5 -17.5 c 128,-1,14
 268 2 268 2 219 35 c 128,-1,15
 170 68 170 68 143.5 110.5 c 128,-1,16
 117 153 117 153 104.5 199 c 128,-1,17
 92 245 92 245 90 291 c 128,-1,18
 88 337 88 337 88 377 c 2,19,-1
 88 930 l 2,20,21
 88 970 88 970 90 1016 c 128,-1,22
 92 1062 92 1062 104.5 1108 c 128,-1,23
 117 1154 117 1154 143.5 1196.5 c 128,-1,24
 170 1239 170 1239 219 1271.5 c 128,-1,25
 268 1304 268 1304 343.5 1323.5 c 128,-1,26
 419 1343 419 1343 529 1343 c 0,27,28
 594 1343 594 1343 642.5 1335 c 128,-1,29
 691 1327 691 1327 727 1312 c 128,-1,30
 763 1297 763 1297 787.5 1275 c 128,-1,31
 812 1253 812 1253 829 1225 c 1,32,-1
 829 1710 l 1,33,-1
 1450 1710 l 1,4,-1
EndSplineSet
Validated: 16385
EndChar

StartChar: h
Encoding: 104 104 35
Width: 1544
Flags: W
HStem: 0 21G<92 713 833 1454> 1323 20G<995 1069> 1690 20G<92 713>
VStem: 92 621<0 1069 1225 1710> 833 621<0 1067.75>
LayerCount: 2
Fore
SplineSet
92 0 m 1,0,-1
 92 1710 l 1,1,-1
 713 1710 l 1,2,-1
 713 1225 l 1,3,4
 732 1257 732 1257 767.5 1279.5 c 128,-1,5
 803 1302 803 1302 845 1316 c 128,-1,6
 887 1330 887 1330 931.5 1336.5 c 128,-1,7
 976 1343 976 1343 1014 1343 c 0,8,9
 1124 1343 1124 1343 1199.5 1323.5 c 128,-1,10
 1275 1304 1275 1304 1324 1271.5 c 128,-1,11
 1373 1239 1373 1239 1399 1196.5 c 128,-1,12
 1425 1154 1425 1154 1437.5 1108 c 128,-1,13
 1450 1062 1450 1062 1452 1016 c 128,-1,14
 1454 970 1454 970 1454 930 c 2,15,-1
 1454 0 l 1,16,-1
 833 0 l 1,17,-1
 833 1069 l 1,18,-1
 713 1069 l 1,19,-1
 713 0 l 1,20,-1
 92 0 l 1,0,-1
EndSplineSet
Validated: 16385
EndChar

StartChar: l
Encoding: 108 108 36
Width: 774
Flags: W
HStem: 0 21G<78 699> 1690 20G<78 699>
VStem: 78 621<0 1710>
LayerCount: 2
Fore
SplineSet
699 0 m 1,0,-1
 78 0 l 1,1,-1
 78 1710 l 1,2,-1
 699 1710 l 1,3,-1
 699 0 l 1,0,-1
EndSplineSet
Validated: 16385
EndChar

StartChar: r
Encoding: 114 114 37
Width: 1012
Flags: W
HStem: 0 21G<92 713> 1280 20G<92 643.267 983.5 1004>
VStem: 92 621<0 909>
LayerCount: 2
Fore
SplineSet
92 0 m 1,0,-1
 92 1300 l 1,1,-1
 635 1300 l 1,2,-1
 666 1225 l 1,3,4
 691 1255 691 1255 732 1277 c 128,-1,5
 773 1299 773 1299 819.5 1313.5 c 128,-1,6
 866 1328 866 1328 914.5 1335 c 128,-1,7
 963 1342 963 1342 1004 1343 c 1,8,-1
 1004 949 l 1,9,-1
 713 909 l 1,10,-1
 713 0 l 1,11,-1
 92 0 l 1,0,-1
EndSplineSet
Validated: 16385
EndChar

StartChar: p
Encoding: 112 112 38
Width: 1542
Flags: W
HStem: 1280 20G<92 643.267>
VStem: 92 621<-408 78 233 1069> 833 621<233.127 1067.62>
LayerCount: 2
Fore
SplineSet
713 233 m 1,0,-1
 833 233 l 1,1,-1
 833 1069 l 1,2,-1
 713 1069 l 1,3,-1
 713 233 l 1,0,-1
92 -408 m 1,4,-1
 92 1300 l 1,5,-1
 635 1300 l 1,6,-1
 666 1225 l 1,7,8
 691 1255 691 1255 732 1277.5 c 128,-1,9
 773 1300 773 1300 819.5 1314.5 c 128,-1,10
 866 1329 866 1329 914.5 1336 c 128,-1,11
 963 1343 963 1343 1004 1343 c 0,12,13
 1114 1343 1114 1343 1190 1323 c 128,-1,14
 1266 1303 1266 1303 1316 1270 c 128,-1,15
 1366 1237 1366 1237 1394 1194 c 128,-1,16
 1422 1151 1422 1151 1435 1105 c 128,-1,17
 1448 1059 1448 1059 1451 1013 c 128,-1,18
 1454 967 1454 967 1454 928 c 2,19,-1
 1454 379 l 2,20,21
 1454 339 1454 339 1451 292.5 c 128,-1,22
 1448 246 1448 246 1435 200 c 128,-1,23
 1422 154 1422 154 1394 111 c 128,-1,24
 1366 68 1366 68 1316 35 c 128,-1,25
 1266 2 1266 2 1190 -17.5 c 128,-1,26
 1114 -37 1114 -37 1004 -37 c 0,27,28
 968 -37 968 -37 926 -32 c 128,-1,29
 884 -27 884 -27 843.5 -14.5 c 128,-1,30
 803 -2 803 -2 768.5 20.5 c 128,-1,31
 734 43 734 43 713 78 c 1,32,-1
 713 -408 l 1,33,-1
 92 -408 l 1,4,-1
EndSplineSet
Validated: 16385
EndChar

StartChar: q
Encoding: 113 113 39
Width: 1472
Flags: W
HStem: 1280 20G<888.467 1426>
VStem: 88 613<233.127 1067.62> 820 606<233 1069> 842 584<-408 78>
LayerCount: 2
Fore
SplineSet
820 1069 m 1,0,-1
 701 1069 l 1,1,-1
 701 233 l 1,2,-1
 820 233 l 1,3,-1
 820 1069 l 1,0,-1
842 -408 m 1,4,-1
 842 78 l 1,5,6
 824 46 824 46 791 27 c 0,7,8
 775 17 775 17 752 6 c 128,-1,9
 729 -5 729 -5 697 -14.5 c 128,-1,10
 665 -24 665 -24 623 -30.5 c 128,-1,11
 581 -37 581 -37 529 -37 c 0,12,13
 419 -37 419 -37 343.5 -17.5 c 128,-1,14
 268 2 268 2 219 35 c 128,-1,15
 170 68 170 68 143.5 111 c 128,-1,16
 117 154 117 154 104.5 200 c 128,-1,17
 92 246 92 246 90 292.5 c 128,-1,18
 88 339 88 339 88 379 c 2,19,-1
 88 928 l 2,20,21
 88 967 88 967 90 1013 c 128,-1,22
 92 1059 92 1059 104.5 1105 c 128,-1,23
 117 1151 117 1151 143.5 1194 c 128,-1,24
 170 1237 170 1237 219 1270 c 128,-1,25
 268 1303 268 1303 343.5 1323 c 128,-1,26
 419 1343 419 1343 529 1343 c 0,27,28
 564 1343 564 1343 612 1336 c 128,-1,29
 660 1329 660 1329 708 1315 c 128,-1,30
 756 1301 756 1301 798.5 1278.5 c 128,-1,31
 841 1256 841 1256 865 1225 c 1,32,-1
 897 1300 l 1,33,-1
 1426 1300 l 1,34,-1
 1426 -408 l 1,35,-1
 842 -408 l 1,4,-1
EndSplineSet
Validated: 16385
EndChar

StartChar: t
Encoding: 116 116 40
Width: 922
Flags: W
HStem: 0 21G<146 767> 1100 200<0 146 767 922> 1575 20G<146 767>
VStem: 146 621<0 1100 1300 1595>
LayerCount: 2
Fore
SplineSet
767 0 m 1,0,-1
 146 0 l 1,1,-1
 146 1100 l 1,2,-1
 0 1100 l 1,3,-1
 0 1300 l 1,4,-1
 146 1300 l 1,5,-1
 146 1595 l 1,6,-1
 767 1595 l 1,7,-1
 767 1300 l 1,8,-1
 922 1300 l 1,9,-1
 922 1100 l 1,10,-1
 767 1100 l 1,11,-1
 767 0 l 1,0,-1
EndSplineSet
Validated: 16385
EndChar

StartChar: a
Encoding: 97 97 41
Width: 1513
Flags: W
HStem: 0 21G<898.958 1500> 1323 20G<709 865>
VStem: 90.5 618.5<232.142 600.812> 829 620<231.712 602 782 1068.36>
LayerCount: 2
Fore
SplineSet
709 602 m 1,0,-1
 709 231 l 1,1,-1
 829 231 l 1,2,-1
 829 602 l 1,3,-1
 709 602 l 1,0,-1
904 0 m 1,4,-1
 874 119 l 1,5,6
 846 75 846 75 800 41 c 0,7,8
 778 26 778 26 754 12 c 0,9,10
 728 -2 728 -2 696 -13 c 128,-1,11
 664 -24 664 -24 624.5 -30.5 c 128,-1,12
 585 -37 585 -37 538 -37 c 0,13,14
 428 -37 428 -37 351.5 -15.5 c 128,-1,15
 275 6 275 6 225 41 c 128,-1,16
 175 76 175 76 147.5 121.5 c 128,-1,17
 120 167 120 167 106.5 215.5 c 128,-1,18
 93 264 93 264 90.5 311.5 c 128,-1,19
 88 359 88 359 88 399 c 0,20,21
 88 441 88 441 90.5 490 c 128,-1,22
 93 539 93 539 106.5 588.5 c 128,-1,23
 120 638 120 638 147.5 683.5 c 128,-1,24
 175 729 175 729 225 764.5 c 128,-1,25
 275 800 275 800 351.5 821 c 128,-1,26
 428 842 428 842 538 842 c 0,27,28
 596 842 596 842 642 836.5 c 128,-1,29
 688 831 688 831 723.5 822 c 128,-1,30
 759 813 759 813 785 802.5 c 128,-1,31
 811 792 811 792 829 782 c 1,32,-1
 829 1069 l 1,33,-1
 755 1069 l 1,34,-1
 755 928 l 1,35,-1
 142 894 l 1,36,37
 142 914 142 914 141.5 935 c 128,-1,38
 141 956 141 956 141 977 c 0,39,40
 141 1020 141 1020 148.5 1064.5 c 128,-1,41
 156 1109 156 1109 179 1149.5 c 128,-1,42
 202 1190 202 1190 245 1225.5 c 128,-1,43
 288 1261 288 1261 359.5 1287 c 128,-1,44
 431 1313 431 1313 534 1328 c 128,-1,45
 637 1343 637 1343 781 1343 c 0,46,47
 949 1343 949 1343 1063.5 1325 c 128,-1,48
 1178 1307 1178 1307 1252 1277 c 128,-1,49
 1326 1247 1326 1247 1366 1207.5 c 128,-1,50
 1406 1168 1406 1168 1424.5 1124.5 c 128,-1,51
 1443 1081 1443 1081 1446 1036.5 c 128,-1,52
 1449 992 1449 992 1449 952 c 2,53,-1
 1449 257 l 2,54,55
 1449 209 1449 209 1456.5 164 c 128,-1,56
 1464 119 1464 119 1474 82 c 0,57,58
 1485 39 1485 39 1500 0 c 1,59,-1
 904 0 l 1,4,-1
EndSplineSet
Validated: 16385
EndChar

StartChar: f
Encoding: 102 102 42
Width: 1156
Flags: W
HStem: 0 21G<208 829> 1098 202<-12 208 829 1162> 1477 254<829 1145.16> 1477 219<1105.99 1153>
VStem: 208 621<0 1098 1300 1475.57>
LayerCount: 2
Fore
SplineSet
208 1317 m 2,0,1
 208 1420 208 1420 233 1498 c 128,-1,2
 258 1576 258 1576 321 1627.5 c 128,-1,3
 384 1679 384 1679 491 1705 c 128,-1,4
 598 1731 598 1731 762 1731 c 0,5,6
 874 1731 874 1731 946.5 1723.5 c 128,-1,7
 1019 1716 1019 1716 1067 1706 c 2,8,-1
 1112 1696 l 2,9,10
 1134 1691 1134 1691 1153 1683 c 1,11,-1
 1153 1477 l 1,12,-1
 829 1477 l 1,13,-1
 829 1300 l 1,14,-1
 1162 1300 l 1,15,-1
 1162 1098 l 1,16,-1
 829 1098 l 1,17,-1
 829 0 l 1,18,-1
 208 0 l 1,19,-1
 208 1098 l 1,20,-1
 -12 1098 l 1,21,-1
 -12 1300 l 1,22,-1
 208 1300 l 1,23,-1
 208 1317 l 2,0,1
EndSplineSet
Validated: 16385
EndChar

StartChar: j
Encoding: 106 106 43
Width: 814
Flags: W
HStem: -318.5 252.5<-190.122 110> -285 219<-191 109.828> 1280 20G<110 731> 1393 315<110 731>
VStem: 110 621<-64.8511 1300 1393 1708>
LayerCount: 2
Fore
SplineSet
731 1708 m 1,0,-1
 731 1393 l 1,1,-1
 110 1393 l 1,2,-1
 110 1708 l 1,3,-1
 731 1708 l 1,0,-1
731 94 m 2,4,5
 731 54 731 54 728.5 7.5 c 128,-1,6
 726 -39 726 -39 712 -85 c 128,-1,7
 698 -131 698 -131 669 -174 c 128,-1,8
 640 -217 640 -217 587 -250 c 128,-1,9
 534 -283 534 -283 452.5 -302.5 c 128,-1,10
 371 -322 371 -322 253 -322 c 0,11,12
 162 -322 162 -322 92 -318.5 c 128,-1,13
 22 -315 22 -315 -32 -309.5 c 128,-1,14
 -86 -304 -86 -304 -124.5 -297.5 c 128,-1,15
 -163 -291 -163 -291 -191 -285 c 1,16,-1
 -191 -66 l 1,17,-1
 110 -66 l 1,18,-1
 110 1300 l 1,19,-1
 731 1300 l 1,20,-1
 731 94 l 2,4,5
EndSplineSet
Validated: 16385
EndChar

StartChar: s
Encoding: 115 115 44
Width: 1368
Flags: W
HStem: -37 268<623.001 739.933> 1069 274<624.406 739.999>
VStem: 1 621<845.593 1068.82> 742 621<231.236 460.656>
LayerCount: 2
Fore
SplineSet
742 447 m 1,0,1
 734 456 734 456 698 461 c 2,2,-1
 608 473 l 2,3,4
 554 480 554 480 488 490.5 c 128,-1,5
 422 501 422 501 354.5 520 c 128,-1,6
 287 539 287 539 223.5 569 c 128,-1,7
 160 599 160 599 110.5 644.5 c 128,-1,8
 61 690 61 690 31 753 c 128,-1,9
 1 816 1 816 1 902 c 0,10,11
 1 966 1 966 11.5 1023.5 c 128,-1,12
 22 1081 22 1081 49.5 1130 c 128,-1,13
 77 1179 77 1179 126 1218.5 c 128,-1,14
 175 1258 175 1258 252 1285.5 c 128,-1,15
 329 1313 329 1313 438.5 1328 c 128,-1,16
 548 1343 548 1343 696 1343 c 0,17,18
 840 1343 840 1343 943 1329.5 c 128,-1,19
 1046 1316 1046 1316 1116 1292 c 128,-1,20
 1186 1268 1186 1268 1228.5 1234 c 128,-1,21
 1271 1200 1271 1200 1293 1158.5 c 128,-1,22
 1315 1117 1315 1117 1322 1069 c 128,-1,23
 1329 1021 1329 1021 1329 970 c 0,24,25
 1329 944 1329 944 1328.5 917.5 c 128,-1,26
 1328 891 1328 891 1328 864 c 1,27,-1
 742 894 l 1,28,-1
 742 1069 l 1,29,-1
 622 1069 l 1,30,-1
 622 860 l 1,31,32
 631 851 631 851 668 845 c 128,-1,33
 705 839 705 839 758.5 832.5 c 128,-1,34
 812 826 812 826 878 815.5 c 128,-1,35
 944 805 944 805 1011 786.5 c 128,-1,36
 1078 768 1078 768 1141.5 739.5 c 128,-1,37
 1205 711 1205 711 1254 667.5 c 128,-1,38
 1303 624 1303 624 1333 563.5 c 128,-1,39
 1363 503 1363 503 1363 421 c 0,40,41
 1363 346 1363 346 1351 282.5 c 128,-1,42
 1339 219 1339 219 1308.5 168.5 c 128,-1,43
 1278 118 1278 118 1227.5 79.5 c 128,-1,44
 1177 41 1177 41 1099.5 15 c 128,-1,45
 1022 -11 1022 -11 915.5 -24 c 128,-1,46
 809 -37 809 -37 667 -37 c 0,47,48
 523 -37 523 -37 420 -22.5 c 128,-1,49
 317 -8 317 -8 247 18 c 128,-1,50
 177 44 177 44 134.5 80 c 128,-1,51
 92 116 92 116 70 158 c 128,-1,52
 48 200 48 200 41 247.5 c 128,-1,53
 34 295 34 295 34 345 c 0,54,55
 34 370 34 370 34.5 394.5 c 128,-1,56
 35 419 35 419 35 444 c 1,57,-1
 622 414 l 1,58,-1
 622 231 l 1,59,-1
 742 231 l 1,60,-1
 742 447 l 1,0,1
EndSplineSet
Validated: 16385
EndChar

StartChar: W
Encoding: 87 87 45
Width: 2392
Flags: W
HStem: 0 21G<310.138 1068.7 1317.36 2076.85> 1575 20G<6 683.18 939.008 1448.97 1702.84 2380>
LayerCount: 2
Fore
SplineSet
2380 1595 m 1,0,-1
 2073 0 l 1,1,-1
 1321 0 l 1,2,-1
 1194 698 l 1,3,-1
 1065 0 l 1,4,-1
 314 0 l 1,5,-1
 6 1595 l 1,6,-1
 680 1595 l 1,7,-1
 815 746 l 1,8,-1
 942 1595 l 1,9,-1
 1446 1595 l 1,10,-1
 1572 746 l 1,11,-1
 1706 1595 l 1,12,-1
 2380 1595 l 1,0,-1
EndSplineSet
Validated: 16385
EndChar

StartChar: v
Encoding: 118 118 46
Width: 1403
Flags: W
HStem: 0 21G<338.354 1066.63> 1280 20G<-23 586.636 816.295 1427>
LayerCount: 2
Fore
SplineSet
-23 1300 m 1,0,-1
 584 1300 l 1,1,-1
 700 420 l 1,2,-1
 819 1300 l 1,3,-1
 1427 1300 l 1,4,-1
 1061 0 l 1,5,-1
 344 0 l 1,6,-1
 -23 1300 l 1,0,-1
EndSplineSet
Validated: 16385
EndChar

StartChar: x
Encoding: 120 120 47
Width: 1403
Flags: W
HStem: 0 21G<0 610.519 789.481 1400> 1280 20G<0 615.331 784.669 1400>
LayerCount: 2
Fore
SplineSet
0 0 m 1,0,-1
 397 652 l 1,1,-1
 0 1300 l 1,2,-1
 608 1300 l 1,3,-1
 700 1049 l 1,4,-1
 792 1300 l 1,5,-1
 1400 1300 l 1,6,-1
 1003 652 l 1,7,-1
 1400 0 l 1,8,-1
 797 0 l 1,9,-1
 700 258 l 1,10,-1
 603 0 l 1,11,-1
 0 0 l 1,0,-1
EndSplineSet
Validated: 16385
EndChar

StartChar: w
Encoding: 119 119 48
Width: 2122
Flags: W
HStem: 0 21G<215.277 966.544 1152.37 1907.72> 1280 20G<-23 561.045 775.068 1347.84 1559.91 2146>
LayerCount: 2
Fore
SplineSet
1058 739 m 1,0,-1
 964 0 l 1,1,-1
 219 0 l 1,2,-1
 -23 1300 l 1,3,-1
 559 1300 l 1,4,-1
 649 420 l 1,5,-1
 778 1300 l 1,6,-1
 1345 1300 l 1,7,-1
 1470 420 l 1,8,-1
 1562 1300 l 1,9,-1
 2146 1300 l 1,10,-1
 1904 0 l 1,11,-1
 1155 0 l 1,12,-1
 1058 739 l 1,0,-1
EndSplineSet
Validated: 16385
EndChar

StartChar: z
Encoding: 122 122 49
Width: 1145
Flags: W
HStem: 0 246<695 1082> 1051 249<61 418>
LayerCount: 2
Fore
SplineSet
61 1300 m 1,0,-1
 1074 1300 l 1,1,-1
 1074 1079 l 1,2,-1
 695 246 l 1,3,-1
 1082 246 l 1,4,-1
 1082 0 l 1,5,-1
 36 0 l 1,6,-1
 36 233 l 1,7,-1
 418 1051 l 1,8,-1
 61 1051 l 1,9,-1
 61 1300 l 1,0,-1
EndSplineSet
Validated: 16385
EndChar

StartChar: X
Encoding: 88 88 50
Width: 1611
Flags: W
HStem: 0 21G<6 660.732 950.01 1605> 1575 20G<6 622.73 988.039 1605>
LayerCount: 2
Fore
SplineSet
614 1595 m 1,0,-1
 803 1162 l 1,1,-1
 997 1595 l 1,2,-1
 1605 1595 l 1,3,-1
 1179 782 l 1,4,-1
 1605 0 l 1,5,-1
 958 0 l 1,6,-1
 803 388 l 1,7,-1
 653 0 l 1,8,-1
 6 0 l 1,9,-1
 428 782 l 1,10,-1
 6 1595 l 1,11,-1
 614 1595 l 1,0,-1
EndSplineSet
Validated: 16385
EndChar

StartChar: g
Encoding: 103 103 51
Width: 1491
Flags: W
HStem: -491 256<700.174 811.841> 1280 20G<860 1412>
VStem: 50 621<233.5 1067.75> 791 621<233 1069>
LayerCount: 2
Fore
SplineSet
791 1069 m 1,0,-1
 671 1069 l 1,1,-1
 671 233 l 1,2,-1
 791 233 l 1,3,-1
 791 1069 l 1,0,-1
1412 126 m 2,4,5
 1412 56 1412 56 1410 -16.5 c 128,-1,6
 1408 -89 1408 -89 1390.5 -158 c 128,-1,7
 1373 -227 1373 -227 1334.5 -287.5 c 128,-1,8
 1296 -348 1296 -348 1223.5 -393 c 128,-1,9
 1151 -438 1151 -438 1037 -464.5 c 128,-1,10
 923 -491 923 -491 756 -491 c 128,-1,11
 589 -491 589 -491 475.5 -473.5 c 128,-1,12
 362 -456 362 -456 289.5 -426 c 128,-1,13
 217 -396 217 -396 179.5 -356 c 128,-1,14
 142 -316 142 -316 125.5 -272 c 128,-1,15
 109 -228 109 -228 107.5 -181.5 c 128,-1,16
 106 -135 106 -135 106 -91 c 1,17,-1
 698 -121 l 1,18,-1
 698 -235 l 1,19,-1
 813 -235 l 1,20,-1
 813 78 l 1,21,22
 792 43 792 43 754 20.5 c 128,-1,23
 716 -2 716 -2 671.5 -14.5 c 128,-1,24
 627 -27 627 -27 581.5 -32 c 128,-1,25
 536 -37 536 -37 500 -37 c 0,26,27
 390 -37 390 -37 313.5 -17.5 c 128,-1,28
 237 2 237 2 187 35 c 128,-1,29
 137 68 137 68 109.5 110.5 c 128,-1,30
 82 153 82 153 68.5 199 c 128,-1,31
 55 245 55 245 52.5 291 c 128,-1,32
 50 337 50 337 50 377 c 2,33,-1
 50 930 l 2,34,35
 50 970 50 970 52.5 1016 c 128,-1,36
 55 1062 55 1062 68.5 1108 c 128,-1,37
 82 1154 82 1154 109.5 1196.5 c 128,-1,38
 137 1239 137 1239 187 1271.5 c 128,-1,39
 237 1304 237 1304 313.5 1323.5 c 128,-1,40
 390 1343 390 1343 500 1343 c 0,41,42
 596 1343 596 1343 660.5 1324.5 c 128,-1,43
 725 1306 725 1306 765 1284 c 0,44,45
 811 1258 811 1258 838 1225 c 1,46,-1
 868 1300 l 1,47,-1
 1412 1300 l 1,48,-1
 1412 126 l 2,4,5
EndSplineSet
Validated: 16385
EndChar

StartChar: K
Encoding: 75 75 52
Width: 1911
Flags: W
HStem: 0 21G<97 774 1132.1 1905> 1575 20G<97 774 1136.6 1882>
VStem: 97 677<0 470 1034 1595>
LayerCount: 2
Fore
SplineSet
774 0 m 1,0,-1
 97 0 l 1,1,-1
 97 1595 l 1,2,-1
 774 1595 l 1,3,-1
 774 1034 l 1,4,-1
 1150 1595 l 1,5,-1
 1882 1595 l 1,6,-1
 1348 834 l 1,7,-1
 1905 0 l 1,8,-1
 1144 0 l 1,9,-1
 834 521 l 1,10,-1
 774 470 l 1,11,-1
 774 0 l 1,0,-1
EndSplineSet
Validated: 16385
EndChar

StartChar: y
Encoding: 121 121 53
Width: 1545
Flags: W
HStem: -491 257<715.131 829.446>
VStem: 91 621<232.062 1300> 832 621<-199.836 78 231 1300>
LayerCount: 2
Fore
SplineSet
1453 1300 m 1,0,-1
 1453 128 l 2,1,2
 1453 48 1453 48 1447 -29 c 128,-1,3
 1441 -106 1441 -106 1418 -174.5 c 128,-1,4
 1395 -243 1395 -243 1351 -301.5 c 128,-1,5
 1307 -360 1307 -360 1230.5 -402 c 128,-1,6
 1154 -444 1154 -444 1040.5 -467.5 c 128,-1,7
 927 -491 927 -491 766 -491 c 0,8,9
 599 -491 599 -491 486 -473.5 c 128,-1,10
 373 -456 373 -456 301 -426 c 128,-1,11
 229 -396 229 -396 192 -356 c 128,-1,12
 155 -316 155 -316 139 -271.5 c 128,-1,13
 123 -227 123 -227 121.5 -180 c 128,-1,14
 120 -133 120 -133 120 -89 c 1,15,-1
 712 -121 l 1,16,-1
 712 -234 l 1,17,-1
 832 -234 l 1,18,-1
 832 78 l 1,19,20
 813 44 813 44 777.5 22 c 128,-1,21
 742 0 742 0 700 -13 c 128,-1,22
 658 -26 658 -26 613 -31.5 c 128,-1,23
 568 -37 568 -37 531 -37 c 0,24,25
 421 -37 421 -37 345.5 -17.5 c 128,-1,26
 270 2 270 2 221 34.5 c 128,-1,27
 172 67 172 67 145.5 110 c 128,-1,28
 119 153 119 153 107 199 c 128,-1,29
 95 245 95 245 93 291 c 128,-1,30
 91 337 91 337 91 377 c 2,31,-1
 91 1300 l 1,32,-1
 712 1300 l 1,33,-1
 712 231 l 1,34,-1
 832 231 l 1,35,-1
 832 1300 l 1,36,-1
 1453 1300 l 1,0,-1
EndSplineSet
Validated: 16385
EndChar

StartChar: k
Encoding: 107 107 54
Width: 1649
Flags: W
HStem: 0 21G<92 713 1025.71 1646> 1280 20G<985.117 1622> 1690 20G<92 713>
VStem: 92 621<0 348 888 1710>
LayerCount: 2
Fore
SplineSet
92 0 m 1,0,-1
 92 1710 l 1,1,-1
 713 1710 l 1,2,-1
 713 888 l 1,3,-1
 999 1300 l 1,4,-1
 1622 1300 l 1,5,-1
 1265 820 l 1,6,-1
 1646 0 l 1,7,-1
 1034 0 l 1,8,-1
 833 485 l 1,9,-1
 713 348 l 1,10,-1
 713 0 l 1,11,-1
 92 0 l 1,0,-1
EndSplineSet
Validated: 16385
EndChar

StartChar: F
Encoding: 70 70 55
Width: 1180
Flags: W
HStem: 0 21G<97 773> 705 249<773 1111> 1354 241<773 1136>
VStem: 97 676<0 705 954 1354>
LayerCount: 2
Fore
SplineSet
1136 1595 m 1,0,-1
 1136 1354 l 1,1,-1
 773 1354 l 1,2,-1
 773 954 l 1,3,-1
 1111 954 l 1,4,-1
 1111 705 l 1,5,-1
 773 705 l 1,6,-1
 773 0 l 1,7,-1
 97 0 l 1,8,-1
 97 1595 l 1,9,-1
 1136 1595 l 1,0,-1
EndSplineSet
Validated: 16385
EndChar

StartChar: N
Encoding: 78 78 56
Width: 1740
Flags: W
HStem: 0 21G<97 570 1009.29 1643> 1575 20G<97 702.615 1170 1643>
VStem: 97 473<0 711> 1170 473<834 1595>
LayerCount: 2
Fore
SplineSet
1022 0 m 1,0,-1
 570 711 l 1,1,-1
 570 0 l 1,2,-1
 97 0 l 1,3,-1
 97 1595 l 1,4,-1
 690 1595 l 1,5,-1
 1170 834 l 1,6,-1
 1170 1595 l 1,7,-1
 1643 1595 l 1,8,-1
 1643 0 l 1,9,-1
 1022 0 l 1,0,-1
EndSplineSet
Validated: 16385
EndChar

StartChar: Thorn
Encoding: 222 222 62
Width: 1607
Flags: W
HStem: 0 21G<97 769> 250 232<769 884> 1182 231<769 884> 1582 20G<97 769>
VStem: 97 672<0 250 482 1182 1413 1602> 884 669<482.474 1180.88>
LayerCount: 2
Fore
SplineSet
769 482 m 1,0,-1
 884 482 l 1,1,-1
 884 1182 l 1,2,-1
 769 1182 l 1,3,-1
 769 482 l 1,0,-1
97 1602 m 1,4,-1
 769 1602 l 1,5,-1
 769 1413 l 1,6,-1
 884 1413 l 2,7,8
 1051 1413 1051 1413 1165.5 1395 c 128,-1,9
 1280 1377 1280 1377 1354.5 1347 c 128,-1,10
 1429 1317 1429 1317 1469.5 1277.5 c 128,-1,11
 1510 1238 1510 1238 1528.5 1194.5 c 128,-1,12
 1547 1151 1547 1151 1550 1106.5 c 128,-1,13
 1553 1062 1553 1062 1553 1022 c 2,14,-1
 1553 641 l 2,15,16
 1553 601 1553 601 1550 556.5 c 128,-1,17
 1547 512 1547 512 1528.5 469 c 128,-1,18
 1510 426 1510 426 1469.5 386 c 128,-1,19
 1429 346 1429 346 1354.5 316 c 128,-1,20
 1280 286 1280 286 1165.5 268 c 128,-1,21
 1051 250 1051 250 884 250 c 2,22,-1
 769 250 l 1,23,-1
 769 0 l 1,24,-1
 97 0 l 1,25,-1
 97 1602 l 1,4,-1
EndSplineSet
Validated: 16385
EndChar

StartChar: germandbls
Encoding: 223 223 63
Width: 1507
Flags: W
HStem: 750 231<699 814> 1364 231<700.98 811.59>
VStem: 97 602<-205 750 981 1363.91> 814 589<1003.95 1363.17> 828 622<195 715.234>
LayerCount: 2
Fore
SplineSet
699 -205 m 1,0,-1
 97 -205 l 1,1,-1
 97 1217 l 2,2,3
 97 1256 97 1256 102 1299.5 c 128,-1,4
 107 1343 107 1343 127.5 1385 c 128,-1,5
 148 1427 148 1427 190 1465 c 128,-1,6
 232 1503 232 1503 306 1532 c 128,-1,7
 380 1561 380 1561 492 1578 c 128,-1,8
 604 1595 604 1595 764 1595 c 0,9,10
 920 1595 920 1595 1028.5 1574.5 c 128,-1,11
 1137 1554 1137 1554 1208 1520 c 128,-1,12
 1279 1486 1279 1486 1318.5 1441.5 c 128,-1,13
 1358 1397 1358 1397 1376.5 1350 c 128,-1,14
 1395 1303 1395 1303 1399 1256 c 128,-1,15
 1403 1209 1403 1209 1403 1170 c 0,16,17
 1403 1111 1403 1111 1389 1068.5 c 128,-1,18
 1375 1026 1375 1026 1352 995 c 128,-1,19
 1329 964 1329 964 1300 944 c 0,20,21
 1272 924 1272 924 1241 909 c 0,22,23
 1171 876 1171 876 1081 870 c 1,24,25
 1137 867 1137 867 1202 850.5 c 128,-1,26
 1267 834 1267 834 1322 798 c 128,-1,27
 1377 762 1377 762 1413.5 702.5 c 128,-1,28
 1450 643 1450 643 1450 553 c 2,29,-1
 1450 326 l 2,30,31
 1450 309 1450 309 1450.5 292 c 128,-1,32
 1451 275 1451 275 1451 258 c 0,33,34
 1451 222 1451 222 1445.5 186 c 128,-1,35
 1440 150 1440 150 1419.5 117 c 128,-1,36
 1399 84 1399 84 1359 55.5 c 128,-1,37
 1319 27 1319 27 1250.5 6 c 128,-1,38
 1182 -15 1182 -15 1080.5 -27 c 128,-1,39
 979 -39 979 -39 835 -39 c 2,40,-1
 736 -39 l 1,41,-1
 736 194 l 1,42,-1
 828 194 l 1,43,-1
 828 750 l 1,44,-1
 699 750 l 1,45,-1
 699 -205 l 1,0,-1
699 981 m 1,46,-1
 814 981 l 1,47,-1
 814 1364 l 1,48,-1
 699 1364 l 1,49,-1
 699 981 l 1,46,-1
EndSplineSet
Validated: 16385
EndChar

StartChar: OE
Encoding: 338 338 64
Width: 1906
Flags: W
HStem: 0 244<709.06 829 1502 1867> 711 250<1502 1842> 1354 241<708.808 829 1502 1867>
VStem: 85 623<233.522 1363.64> 829 673<244 711 961 1354>
LayerCount: 2
Fore
SplineSet
708 233 m 1,0,-1
 829 233 l 1,1,-1
 829 1364 l 1,2,-1
 708 1364 l 1,3,-1
 708 233 l 1,0,-1
755 0 m 2,4,5
 588 0 588 0 473 16.5 c 128,-1,6
 358 33 358 33 283.5 61 c 128,-1,7
 209 89 209 89 168.5 125.5 c 128,-1,8
 128 162 128 162 109.5 203.5 c 128,-1,9
 91 245 91 245 88 288 c 128,-1,10
 85 331 85 331 85 371 c 2,11,-1
 85 1227 l 2,12,13
 85 1266 85 1266 88 1308.5 c 128,-1,14
 91 1351 91 1351 109.5 1392 c 128,-1,15
 128 1433 128 1433 168.5 1470 c 128,-1,16
 209 1507 209 1507 283.5 1534.5 c 128,-1,17
 358 1562 358 1562 472.5 1578.5 c 128,-1,18
 587 1595 587 1595 755 1595 c 2,19,-1
 1867 1595 l 1,20,-1
 1867 1354 l 1,21,-1
 1502 1354 l 1,22,-1
 1502 961 l 1,23,-1
 1842 961 l 1,24,-1
 1842 711 l 1,25,-1
 1502 711 l 1,26,-1
 1502 244 l 1,27,-1
 1867 244 l 1,28,-1
 1867 0 l 1,29,-1
 755 0 l 2,4,5
EndSplineSet
Validated: 16385
EndChar

StartChar: Oslash
Encoding: 216 216 70
Width: 1653
Flags: W
HStem: -39 272<763.523 890.154> 1364 268<761.506 890.172>
VStem: 85 676<233.408 622 925 1363.53> 892 676<233.408 823 1125 1363.53>
LayerCount: 2
Fore
SplineSet
826 -39 m 0,0,1
 818 -39 818 -39 809 -39 c 0,2,3
 644 -39 644 -39 526 -20 c 0,4,5
 435 -6 435 -6 366 16 c 1,6,-1
 247 -166 l 1,7,-1
 110 -70 l 1,8,-1
 213 88 l 1,9,10
 201 97 201 97 190 106 c 0,11,12
 143 148 143 148 119.5 193.5 c 128,-1,13
 96 239 96 239 90.5 285 c 128,-1,14
 85 331 85 331 85 371 c 2,15,-1
 85 1227 l 2,16,17
 85 1267 85 1267 90.5 1312.5 c 128,-1,18
 96 1358 96 1358 119.5 1403 c 128,-1,19
 143 1448 143 1448 190 1489.5 c 128,-1,20
 237 1531 237 1531 319.5 1562.5 c 128,-1,21
 402 1594 402 1594 525.5 1613 c 128,-1,22
 649 1632 649 1632 826 1632 c 0,23,24
 1002 1632 1002 1632 1126 1613 c 0,25,26
 1167 1607 1167 1607 1202 1599 c 1,27,-1
 1345 1817 l 1,28,-1
 1474 1716 l 1,29,-1
 1365 1549 l 1,30,31
 1424 1524 1424 1524 1462 1490 c 0,32,33
 1510 1448 1510 1448 1533 1403 c 128,-1,34
 1556 1358 1556 1358 1562 1312.5 c 128,-1,35
 1568 1267 1568 1267 1568 1227 c 2,36,-1
 1568 371 l 2,37,38
 1568 331 1568 331 1562 285 c 128,-1,39
 1556 239 1556 239 1532.5 193.5 c 128,-1,40
 1509 148 1509 148 1461.5 106 c 128,-1,41
 1414 64 1414 64 1331.5 32 c 128,-1,42
 1249 0 1249 0 1125.5 -19.5 c 128,-1,43
 1002 -39 1002 -39 826 -39 c 0,0,1
761 233 m 1,44,-1
 892 233 l 1,45,-1
 892 823 l 1,46,-1
 761 622 l 1,47,-1
 761 233 l 1,44,-1
761 925 m 1,48,-1
 892 1125 l 1,49,-1
 892 1364 l 1,50,-1
 761 1364 l 1,51,-1
 761 925 l 1,48,-1
EndSplineSet
Validated: 16385
EndChar

StartChar: Eth
Encoding: 208 208 71
Width: 1665
Flags: W
HStem: 0 233<773 904> 659 296<0 97 773 856> 1364 231<773 904>
VStem: 97 676<233 659 955 1364> 904 676<233.762 1362.88>
LayerCount: 2
Fore
SplineSet
773 955 m 1,0,-1
 856 955 l 1,1,-1
 856 659 l 1,2,-1
 773 659 l 1,3,-1
 773 233 l 1,4,-1
 904 233 l 1,5,-1
 904 1364 l 1,6,-1
 773 1364 l 1,7,-1
 773 955 l 1,0,-1
97 955 m 1,8,-1
 97 1595 l 1,9,-1
 911 1595 l 2,10,11
 1078 1595 1078 1595 1192.5 1577 c 128,-1,12
 1307 1559 1307 1559 1381.5 1529 c 128,-1,13
 1456 1499 1456 1499 1496.5 1459.5 c 128,-1,14
 1537 1420 1537 1420 1555.5 1376.5 c 128,-1,15
 1574 1333 1574 1333 1577 1288.5 c 128,-1,16
 1580 1244 1580 1244 1580 1204 c 2,17,-1
 1580 393 l 2,18,19
 1580 353 1580 353 1577 308.5 c 128,-1,20
 1574 264 1574 264 1555.5 220 c 128,-1,21
 1537 176 1537 176 1496.5 136.5 c 128,-1,22
 1456 97 1456 97 1381.5 66.5 c 128,-1,23
 1307 36 1307 36 1192.5 18 c 128,-1,24
 1078 0 1078 0 911 0 c 2,25,-1
 97 0 l 1,26,-1
 97 659 l 1,27,-1
 0 659 l 1,28,-1
 0 955 l 1,29,-1
 97 955 l 1,8,-1
EndSplineSet
Validated: 16385
EndChar

StartChar: oe
Encoding: 339 339 79
Width: 2213
Flags: W
HStem: -23 254<697.203 812.717 1428.09 1544.87> 621 206<1426 1547> 1069 254<696.881 813.367 1427.8 1545.18>
VStem: 88 607<232.009 1068.99> 815 611<231 621 827 1069> 1547 612<232.009 555 827 1068.99>
LayerCount: 2
Fore
SplineSet
1426 827 m 1,0,-1
 1547 827 l 1,1,-1
 1547 1069 l 1,2,-1
 1426 1069 l 1,3,-1
 1426 827 l 1,0,-1
695 231 m 1,4,-1
 815 231 l 1,5,-1
 815 1069 l 1,6,-1
 695 1069 l 1,7,-1
 695 231 l 1,4,-1
2159 555 m 1,8,-1
 2159 369 l 2,9,10
 2159 329 2159 329 2156 284.5 c 128,-1,11
 2153 240 2153 240 2134.5 196.5 c 128,-1,12
 2116 153 2116 153 2075.5 113 c 128,-1,13
 2035 73 2035 73 1960.5 43 c 128,-1,14
 1886 13 1886 13 1771 -5 c 128,-1,15
 1656 -23 1656 -23 1489 -23 c 0,16,17
 1386 -23 1386 -23 1318.5 -11 c 128,-1,18
 1251 1 1251 1 1209.5 18.5 c 128,-1,19
 1168 36 1168 36 1148 57 c 128,-1,20
 1128 78 1128 78 1121 96 c 1,21,22
 1108 77 1108 77 1084.5 56 c 128,-1,23
 1061 35 1061 35 1019 17.5 c 128,-1,24
 977 0 977 0 913.5 -11.5 c 128,-1,25
 850 -23 850 -23 758 -23 c 0,26,27
 591 -23 591 -23 476 -5 c 128,-1,28
 361 13 361 13 286.5 43 c 128,-1,29
 212 73 212 73 171.5 113 c 128,-1,30
 131 153 131 153 112.5 196.5 c 128,-1,31
 94 240 94 240 91 284.5 c 128,-1,32
 88 329 88 329 88 369 c 2,33,-1
 88 932 l 2,34,35
 88 972 88 972 91 1016.5 c 128,-1,36
 94 1061 94 1061 112.5 1104.5 c 128,-1,37
 131 1148 131 1148 171.5 1187.5 c 128,-1,38
 212 1227 212 1227 286.5 1257 c 128,-1,39
 361 1287 361 1287 475.5 1305 c 128,-1,40
 590 1323 590 1323 758 1323 c 0,41,42
 856 1323 856 1323 922 1311.5 c 128,-1,43
 988 1300 988 1300 1029.5 1283 c 128,-1,44
 1071 1266 1071 1266 1092 1246.5 c 128,-1,45
 1113 1227 1113 1227 1121 1212 c 1,46,47
 1132 1229 1132 1229 1156 1248.5 c 128,-1,48
 1180 1268 1180 1268 1222.5 1284.5 c 128,-1,49
 1265 1301 1265 1301 1330 1312 c 128,-1,50
 1395 1323 1395 1323 1489 1323 c 0,51,52
 1657 1323 1657 1323 1772 1305 c 128,-1,53
 1887 1287 1887 1287 1961.5 1257 c 128,-1,54
 2036 1227 2036 1227 2076 1187.5 c 128,-1,55
 2116 1148 2116 1148 2134.5 1104.5 c 128,-1,56
 2153 1061 2153 1061 2156 1016.5 c 128,-1,57
 2159 972 2159 972 2159 932 c 2,58,-1
 2155 621 l 1,59,-1
 1426 621 l 1,60,-1
 1426 231 l 1,61,-1
 1547 231 l 1,62,-1
 1547 555 l 1,63,-1
 2159 555 l 1,8,-1
EndSplineSet
Validated: 16385
EndChar

StartChar: eth
Encoding: 240 240 84
Width: 1520
Flags: W
HStem: -38 274<694.967 817.076> 826 270<691 820>
VStem: 88 603<237.345 824.391> 820 612<303.355 822.061>
LayerCount: 2
Fore
SplineSet
820 826 m 1,0,-1
 691 826 l 1,1,-1
 691 236 l 1,2,-1
 820 236 l 1,3,-1
 820 826 l 1,0,-1
549 1415 m 1,4,5
 504 1444 504 1444 462 1468 c 2,6,-1
 387 1510 l 1,7,-1
 315 1546 l 1,8,-1
 553 1887 l 1,9,10
 607 1867 607 1867 674 1835 c 0,11,12
 732 1806 732 1806 800 1768 c 0,13,14
 870 1728 870 1728 947 1672 c 1,15,-1
 1168 1815 l 1,16,-1
 1244 1692 l 1,17,-1
 1065 1576 l 1,18,19
 1137 1511 1137 1511 1203.5 1431 c 128,-1,20
 1270 1351 1270 1351 1321 1255.5 c 128,-1,21
 1372 1160 1372 1160 1402 1047.5 c 128,-1,22
 1432 935 1432 935 1432 806 c 0,23,24
 1432 653 1432 653 1423.5 531 c 128,-1,25
 1415 409 1415 409 1390.5 315 c 128,-1,26
 1366 221 1366 221 1320.5 154 c 128,-1,27
 1275 87 1275 87 1200.5 44.5 c 128,-1,28
 1126 2 1126 2 1018.5 -18 c 128,-1,29
 911 -38 911 -38 763 -38 c 0,30,31
 613 -38 613 -38 504.5 -21 c 128,-1,32
 396 -4 396 -4 321 28.5 c 128,-1,33
 246 61 246 61 200 109 c 128,-1,34
 154 157 154 157 129.5 219.5 c 128,-1,35
 105 282 105 282 96.5 358 c 128,-1,36
 88 434 88 434 88 523 c 0,37,38
 88 604 88 604 94.5 678.5 c 128,-1,39
 101 753 101 753 121.5 816.5 c 128,-1,40
 142 880 142 880 181 931.5 c 128,-1,41
 220 983 220 983 285 1019.5 c 128,-1,42
 350 1056 350 1056 445 1076 c 128,-1,43
 540 1096 540 1096 674 1096 c 2,44,-1
 822 1096 l 1,45,46
 822 1125 822 1125 810.5 1154 c 128,-1,47
 799 1183 799 1183 779 1212 c 128,-1,48
 759 1241 759 1241 732 1269 c 128,-1,49
 705 1297 705 1297 674 1323 c 1,50,-1
 406 1150 l 1,51,-1
 331 1274 l 1,52,-1
 549 1415 l 1,4,5
EndSplineSet
Validated: 16385
EndChar

StartChar: oslash
Encoding: 248 248 86
Width: 1538
Flags: W
HStem: -39 270<710.828 827.87> 1069 274<710.846 827.87>
VStem: 88 621<231.591 440 706 1068.36> 829 621<231.591 592 857 1068.36>
LayerCount: 2
Fore
SplineSet
772 -39 m 0,0,1
 604 -39 604 -39 488 -21 c 0,2,3
 420 -10 420 -10 366 4 c 1,4,-1
 260 -131 l 1,5,-1
 133 -23 l 1,6,-1
 209 73 l 1,7,8
 192 85 192 85 179 97 c 0,9,10
 137 137 137 137 116.5 180 c 128,-1,11
 96 223 96 223 92 267.5 c 128,-1,12
 88 312 88 312 88 352 c 2,13,-1
 88 952 l 2,14,15
 88 992 88 992 92 1036.5 c 128,-1,16
 96 1081 96 1081 116.5 1124.5 c 128,-1,17
 137 1168 137 1168 179 1207.5 c 128,-1,18
 221 1247 221 1247 297 1277 c 128,-1,19
 373 1307 373 1307 488.5 1325 c 128,-1,20
 604 1343 604 1343 772 1343 c 0,21,22
 939 1343 939 1343 1054 1325 c 0,23,24
 1123 1314 1123 1314 1178 1299 c 1,25,-1
 1307 1462 l 1,26,-1
 1425 1350 l 1,27,-1
 1332 1232 l 1,28,29
 1350 1220 1350 1220 1362 1208 c 0,30,31
 1404 1168 1404 1168 1423 1124.5 c 128,-1,32
 1442 1081 1442 1081 1446 1036.5 c 128,-1,33
 1450 992 1450 992 1450 952 c 2,34,-1
 1450 352 l 2,35,36
 1450 312 1450 312 1446 267.5 c 128,-1,37
 1442 223 1442 223 1422.5 180 c 128,-1,38
 1403 137 1403 137 1361.5 97 c 128,-1,39
 1320 57 1320 57 1244.5 27 c 128,-1,40
 1169 -3 1169 -3 1054 -21 c 128,-1,41
 939 -39 939 -39 772 -39 c 0,0,1
709 231 m 1,42,-1
 829 231 l 1,43,-1
 829 592 l 1,44,-1
 709 440 l 1,45,-1
 709 231 l 1,42,-1
709 706 m 1,46,-1
 829 857 l 1,47,-1
 829 1069 l 1,48,-1
 709 1069 l 1,49,-1
 709 706 l 1,46,-1
EndSplineSet
Validated: 16385
EndChar

StartChar: thorn
Encoding: 254 254 87
Width: 1519
Flags: W
HStem: 1582 20G<92 700>
VStem: 92 608<-409 78 231 1069 1225 1602> 821 610<231.708 1068.31>
LayerCount: 2
Fore
SplineSet
700 231 m 1,0,-1
 821 231 l 1,1,-1
 821 1069 l 1,2,-1
 700 1069 l 1,3,-1
 700 231 l 1,0,-1
700 1602 m 1,4,-1
 700 1225 l 1,5,6
 708 1240 708 1240 722.5 1257 c 128,-1,7
 737 1274 737 1274 768.5 1289 c 128,-1,8
 800 1304 800 1304 853 1313.5 c 128,-1,9
 906 1323 906 1323 991 1323 c 0,10,11
 1101 1323 1101 1323 1176.5 1303.5 c 128,-1,12
 1252 1284 1252 1284 1301 1251.5 c 128,-1,13
 1350 1219 1350 1219 1376 1176 c 128,-1,14
 1402 1133 1402 1133 1414.5 1087 c 128,-1,15
 1427 1041 1427 1041 1429 995 c 128,-1,16
 1431 949 1431 949 1431 909 c 2,17,-1
 1431 391 l 2,18,19
 1431 352 1431 352 1429 305.5 c 128,-1,20
 1427 259 1427 259 1414.5 213 c 128,-1,21
 1402 167 1402 167 1376 124.5 c 128,-1,22
 1350 82 1350 82 1301 49 c 128,-1,23
 1252 16 1252 16 1176.5 -3.5 c 128,-1,24
 1101 -23 1101 -23 991 -23 c 0,25,26
 905 -23 905 -23 853.5 -13 c 128,-1,27
 802 -3 802 -3 772 12 c 128,-1,28
 742 27 742 27 727 44.5 c 128,-1,29
 712 62 712 62 700 78 c 1,30,-1
 700 -409 l 1,31,-1
 92 -409 l 1,32,-1
 92 1602 l 1,33,-1
 700 1602 l 1,4,-1
EndSplineSet
Validated: 16385
EndChar

StartChar: ae
Encoding: 230 230 97
Width: 2245
Flags: W
HStem: -37 268<709 827.219 1453.58 1566.47> 621 206<1451 1571> 1069 274<758.75 828.531 1452.1 1569.87>
VStem: 88 621<232.001 600.812> 829 622<231 602 827 1069> 1571 621<232.22 531 827 1067.92>
CounterMasks: 1 1c
LayerCount: 2
Fore
SplineSet
1451 827 m 1,0,-1
 1571 827 l 1,1,-1
 1571 1069 l 1,2,-1
 1451 1069 l 1,3,-1
 1451 827 l 1,0,-1
709 602 m 1,4,-1
 709 231 l 1,5,-1
 829 231 l 1,6,-1
 829 602 l 1,7,-1
 709 602 l 1,4,-1
2192 531 m 1,8,-1
 2192 354 l 2,9,10
 2192 314 2192 314 2187.5 269.5 c 128,-1,11
 2183 225 2183 225 2162 182 c 128,-1,12
 2141 139 2141 139 2098 99 c 128,-1,13
 2055 59 2055 59 1979 29 c 128,-1,14
 1903 -1 1903 -1 1787.5 -19 c 128,-1,15
 1672 -37 1672 -37 1506 -37 c 0,16,17
 1414 -37 1414 -37 1347 -19 c 128,-1,18
 1280 -1 1280 -1 1235 21 c 0,19,20
 1182 47 1182 47 1146 80 c 1,21,22
 1111 47 1111 47 1042 21 c 0,23,24
 983 -1 983 -1 881.5 -19 c 128,-1,25
 780 -37 780 -37 622 -37 c 0,26,27
 512 -37 512 -37 429.5 -19 c 128,-1,28
 347 -1 347 -1 287.5 30 c 128,-1,29
 228 61 228 61 189.5 103 c 128,-1,30
 151 145 151 145 128.5 193.5 c 128,-1,31
 106 242 106 242 97 294.5 c 128,-1,32
 88 347 88 347 88 399 c 0,33,34
 88 441 88 441 90.5 490 c 128,-1,35
 93 539 93 539 106.5 588.5 c 128,-1,36
 120 638 120 638 147.5 683.5 c 128,-1,37
 175 729 175 729 225 764.5 c 128,-1,38
 275 800 275 800 351.5 821 c 128,-1,39
 428 842 428 842 538 842 c 0,40,41
 596 842 596 842 642 836.5 c 128,-1,42
 688 831 688 831 723.5 822 c 128,-1,43
 759 813 759 813 785 802.5 c 128,-1,44
 811 792 811 792 829 782 c 1,45,-1
 829 1069 l 1,46,-1
 755 1069 l 1,47,-1
 755 928 l 1,48,-1
 142 894 l 1,49,50
 142 914 142 914 141.5 935 c 128,-1,51
 141 956 141 956 141 977 c 0,52,53
 141 1020 141 1020 148.5 1064.5 c 128,-1,54
 156 1109 156 1109 179 1149.5 c 128,-1,55
 202 1190 202 1190 245 1225.5 c 128,-1,56
 288 1261 288 1261 359.5 1287 c 128,-1,57
 431 1313 431 1313 534 1328 c 128,-1,58
 637 1343 637 1343 781 1343 c 0,59,60
 880 1343 880 1343 947.5 1330 c 128,-1,61
 1015 1317 1015 1317 1058 1301 c 0,62,63
 1108 1283 1108 1283 1139 1259 c 1,64,65
 1174 1283 1174 1283 1228 1301 c 0,66,67
 1274 1317 1274 1317 1344.5 1330 c 128,-1,68
 1415 1343 1415 1343 1514 1343 c 0,69,70
 1681 1343 1681 1343 1796 1325 c 128,-1,71
 1911 1307 1911 1307 1986.5 1277 c 128,-1,72
 2062 1247 2062 1247 2103.5 1207.5 c 128,-1,73
 2145 1168 2145 1168 2164.5 1125 c 128,-1,74
 2184 1082 2184 1082 2188 1037.5 c 128,-1,75
 2192 993 2192 993 2192 954 c 2,76,-1
 2192 621 l 1,77,-1
 1451 621 l 1,78,-1
 1451 231 l 1,79,-1
 1571 231 l 1,80,-1
 1571 531 l 1,81,-1
 2192 531 l 1,8,-1
EndSplineSet
Validated: 16385
EndChar

StartChar: guilsinglleft
Encoding: 8249 8249 98
Width: 1052
Flags: W
HStem: 0 21G<953.881 992> 1575 20G<954.495 992>
LayerCount: 2
Fore
SplineSet
60 1098 m 1,0,-1
 992 1595 l 1,1,-1
 992 1090 l 1,2,-1
 353 797 l 1,3,-1
 992 504 l 1,4,-1
 992 0 l 1,5,-1
 60 489 l 1,6,-1
 60 1098 l 1,0,-1
EndSplineSet
Validated: 16385
EndChar

StartChar: multiply
Encoding: 215 215 103
Width: 1360
Flags: W
LayerCount: 2
Fore
SplineSet
1325 924 m 1,0,-1
 1050 649 l 1,1,-1
 1325 375 l 1,2,-1
 954 4 l 1,3,-1
 680 279 l 1,4,-1
 405 4 l 1,5,-1
 35 375 l 1,6,-1
 309 649 l 1,7,-1
 35 924 l 1,8,-1
 405 1294 l 1,9,-1
 680 1020 l 1,10,-1
 954 1294 l 1,11,-1
 1325 924 l 1,0,-1
EndSplineSet
Validated: 1
EndChar

StartChar: divide
Encoding: 247 247 115
Width: 1316
Flags: W
HStem: 92 467<388 927> 670 238<40 1276> 1000 497<388 927>
VStem: 388 539<92 559 1000 1497>
LayerCount: 2
Fore
SplineSet
1276 908 m 1,0,-1
 1276 670 l 1,1,-1
 40 670 l 1,2,-1
 40 908 l 1,3,-1
 1276 908 l 1,0,-1
927 1000 m 1,4,-1
 388 1000 l 1,5,-1
 388 1497 l 1,6,-1
 927 1497 l 1,7,-1
 927 1000 l 1,4,-1
927 92 m 1,8,-1
 388 92 l 1,9,-1
 388 559 l 1,10,-1
 927 559 l 1,11,-1
 927 92 l 1,8,-1
EndSplineSet
Validated: 16385
EndChar

StartChar: fi
Encoding: 64257 64257 118
Width: 1781
Flags: W
HStem: 0 21G<154 775 1081 1702> 1098 202<-26 154 775 1081> 1393 316<1081 1702> 1477 232<775 1081>
VStem: 154 621<0 1098 1300 1475.43> 1081 621<0 1098 1393 1477>
LayerCount: 2
Fore
SplineSet
1702 0 m 1,0,-1
 1081 0 l 1,1,-1
 1081 1098 l 1,2,-1
 775 1098 l 1,3,-1
 775 0 l 1,4,-1
 154 0 l 1,5,-1
 154 1098 l 1,6,-1
 -26 1098 l 1,7,-1
 -26 1300 l 1,8,-1
 154 1300 l 1,9,-1
 154 1317 l 2,10,11
 154 1420 154 1420 179 1494.5 c 128,-1,12
 204 1569 204 1569 267 1616.5 c 128,-1,13
 330 1664 330 1664 437 1686.5 c 128,-1,14
 544 1709 544 1709 708 1709 c 2,15,-1
 1702 1709 l 1,16,-1
 1702 1393 l 1,17,-1
 1081 1393 l 1,18,-1
 1081 1477 l 1,19,-1
 775 1477 l 1,20,-1
 775 1300 l 1,21,-1
 1702 1300 l 1,22,-1
 1702 0 l 1,0,-1
EndSplineSet
Validated: 16385
Ligature2: "Ligature Substitution in Latin lookup 0-1" f i
EndChar

StartChar: fl
Encoding: 64258 64258 119
Width: 1781
Flags: W
HStem: 0 21G<154 775 1085 1706> 1098 202<-26 154 775 1085> 1477 234<775 1085>
VStem: 154 621<0 1098 1300 1475.43> 1085 621<0 1098 1300 1477>
LayerCount: 2
Fore
SplineSet
775 1300 m 1,0,-1
 1085 1300 l 1,1,-1
 1085 1477 l 1,2,-1
 775 1477 l 1,3,-1
 775 1300 l 1,0,-1
1706 0 m 1,4,-1
 1085 0 l 1,5,-1
 1085 1098 l 1,6,-1
 775 1098 l 1,7,-1
 775 0 l 1,8,-1
 154 0 l 1,9,-1
 154 1098 l 1,10,-1
 -26 1098 l 1,11,-1
 -26 1300 l 1,12,-1
 154 1300 l 1,13,-1
 154 1317 l 2,14,15
 154 1420 154 1420 179 1494.5 c 128,-1,16
 204 1569 204 1569 267 1617 c 128,-1,17
 330 1665 330 1665 437 1688 c 128,-1,18
 544 1711 544 1711 708 1711 c 2,19,-1
 1706 1710 l 1,20,-1
 1706 0 l 1,4,-1
EndSplineSet
Validated: 16385
Ligature2: "Ligature Substitution in Latin lookup 0-1" f l
EndChar

StartChar: exclam
Encoding: 33 33 124
Width: 774
Flags: W
HStem: 0 397<82 688> 1584 20G<82 688>
VStem: 82 606<0 397>
LayerCount: 2
Fore
SplineSet
82 0 m 1,0,-1
 82 397 l 1,1,-1
 688 397 l 1,2,-1
 688 0 l 1,3,-1
 82 0 l 1,0,-1
631 492 m 1,4,-1
 142 492 l 1,5,-1
 82 1604 l 1,6,-1
 688 1604 l 1,7,-1
 631 492 l 1,4,-1
EndSplineSet
Validated: 16385
EndChar

StartChar: quotedbl
Encoding: 34 34 125
Width: 1320
Flags: W
HStem: 798 806<180 519 801 1140>
LayerCount: 2
Fore
SplineSet
1140 798 m 1,0,-1
 801 798 l 1,1,-1
 701 1604 l 1,2,-1
 1240 1604 l 1,3,-1
 1140 798 l 1,0,-1
519 798 m 1,4,-1
 180 798 l 1,5,-1
 80 1604 l 1,6,-1
 619 1604 l 1,7,-1
 519 798 l 1,4,-1
EndSplineSet
Validated: 16385
EndChar

StartChar: numbersign
Encoding: 35 35 126
Width: 1768
Flags: W
HStem: 0 21G<117 696.01 816 1395> 299 431<82 162 803 861 1502 1613> 872 432<154 250 891 949 1590 1685> 1575 20G<357.976 935 1056.91 1634>
LayerCount: 2
Fore
SplineSet
803 730 m 1,0,-1
 927 730 l 1,1,-1
 949 872 l 1,2,-1
 825 872 l 1,3,-1
 803 730 l 1,0,-1
1613 300 m 1,4,-1
 1437 300 l 1,5,-1
 1392 0 l 1,6,-1
 816 0 l 1,7,-1
 861 299 l 1,8,-1
 738 299 l 1,9,-1
 693 0 l 1,10,-1
 117 0 l 1,11,-1
 162 299 l 1,12,-1
 20 299 l 1,13,-1
 82 730 l 1,14,-1
 229 730 l 1,15,-1
 250 872 l 1,16,-1
 92 872 l 1,17,-1
 154 1304 l 1,18,-1
 317 1304 l 1,19,-1
 361 1595 l 1,20,-1
 935 1595 l 1,21,-1
 891 1304 l 1,22,-1
 1015 1304 l 1,23,-1
 1060 1595 l 1,24,-1
 1634 1595 l 1,25,-1
 1590 1304 l 1,26,-1
 1748 1304 l 1,27,-1
 1685 873 l 1,28,-1
 1524 873 l 1,29,-1
 1502 730 l 1,30,-1
 1675 730 l 1,31,-1
 1613 300 l 1,4,-1
EndSplineSet
Validated: 16385
EndChar

StartChar: dollar
Encoding: 36 36 127
Width: 1561
Flags: W
VStem: 39 676<233.408 533 1081.69 1362.53> 494 600<-248 -16 1609.77 1843>
LayerCount: 2
Fore
SplineSet
715 1106 m 2,0,1
 715 1090 715 1090 749.5 1083.5 c 128,-1,2
 784 1077 784 1077 841 1071.5 c 128,-1,3
 898 1066 898 1066 970.5 1058 c 128,-1,4
 1043 1050 1043 1050 1118.5 1032 c 128,-1,5
 1194 1014 1194 1014 1266.5 982 c 128,-1,6
 1339 950 1339 950 1396 897 c 128,-1,7
 1453 844 1453 844 1487.5 766 c 128,-1,8
 1522 688 1522 688 1522 578 c 0,9,10
 1522 499 1522 499 1517 422.5 c 128,-1,11
 1512 346 1512 346 1490 277.5 c 128,-1,12
 1468 209 1468 209 1423 151 c 128,-1,13
 1378 93 1378 93 1298 51 c 128,-1,14
 1218 9 1218 9 1098 -15 c 2,15,-1
 1094 -16 l 1,16,-1
 1094 -248 l 1,17,-1
 494 -248 l 1,18,-1
 494 -17 l 1,19,20
 379 2 379 2 299 32 c 0,21,22
 214 64 214 64 162.5 106 c 128,-1,23
 111 148 111 148 83.5 193.5 c 128,-1,24
 56 239 56 239 47.5 285 c 128,-1,25
 39 331 39 331 39 371 c 2,26,-1
 39 533 l 1,27,-1
 715 533 l 1,28,-1
 715 233 l 1,29,-1
 846 233 l 1,30,-1
 846 553 l 2,31,32
 846 568 846 568 811.5 578.5 c 128,-1,33
 777 589 777 589 720 601 c 2,34,-1
 590 628 l 2,35,36
 518 642 518 642 442.5 664.5 c 128,-1,37
 367 687 367 687 294.5 719.5 c 128,-1,38
 222 752 222 752 165 800 c 128,-1,39
 108 848 108 848 73.5 912.5 c 128,-1,40
 39 977 39 977 39 1064 c 0,41,42
 39 1172 39 1172 52.5 1256.5 c 128,-1,43
 66 1341 66 1341 100 1404 c 0,44,45
 134 1466 134 1466 189 1510 c 0,46,47
 246 1554 246 1554 330 1581 c 0,48,49
 401 1604 401 1604 494 1616 c 1,50,-1
 494 1843 l 1,51,-1
 1094 1843 l 1,52,-1
 1094 1611 l 1,53,54
 1194 1594 1194 1594 1263 1568 c 0,55,56
 1338 1538 1338 1538 1380.5 1499.5 c 128,-1,57
 1423 1461 1423 1461 1444 1418 c 128,-1,58
 1465 1375 1465 1375 1470 1331 c 128,-1,59
 1475 1287 1475 1287 1475 1247 c 2,60,-1
 1475 1128 l 1,61,-1
 846 1128 l 1,62,-1
 846 1364 l 1,63,-1
 715 1364 l 1,64,-1
 715 1106 l 2,0,1
EndSplineSet
Validated: 16385
EndChar

StartChar: percent
Encoding: 37 37 128
Width: 2888
Flags: W
HStem: -40 21G<976 1519.69> 75 215<2271.52 2364.4> 454 215<526.522 619.398> 955 219<2271.52 2364.4> 1334 219<526.522 619.398>
VStem: 40 486<669.918 1333.91> 622 481<669.918 1333.91> 1785 486<290.842 954.788> 2367 481<290.842 954.788>
LayerCount: 2
Fore
SplineSet
1916 1670 m 1,0,-1
 1515 -40 l 1,1,-1
 976 -40 l 1,2,-1
 1380 1670 l 1,3,-1
 1916 1670 l 1,0,-1
2316 75 m 128,-1,5
 2183 75 2183 75 2092 89 c 128,-1,6
 2001 103 2001 103 1942 127 c 128,-1,7
 1883 151 1883 151 1851 182 c 128,-1,8
 1819 213 1819 213 1804.5 248 c 128,-1,9
 1790 283 1790 283 1787.5 318.5 c 128,-1,10
 1785 354 1785 354 1785 386 c 2,11,-1
 1785 863 l 2,12,13
 1785 895 1785 895 1787.5 930.5 c 128,-1,14
 1790 966 1790 966 1804.5 1000.5 c 128,-1,15
 1819 1035 1819 1035 1851 1066.5 c 128,-1,16
 1883 1098 1883 1098 1942 1122 c 128,-1,17
 2001 1146 2001 1146 2092 1160 c 128,-1,18
 2183 1174 2183 1174 2316 1174 c 128,-1,19
 2449 1174 2449 1174 2540 1160 c 128,-1,20
 2631 1146 2631 1146 2690 1122 c 128,-1,21
 2749 1098 2749 1098 2781.5 1066.5 c 128,-1,22
 2814 1035 2814 1035 2828.5 1000.5 c 128,-1,23
 2843 966 2843 966 2845.5 930.5 c 128,-1,24
 2848 895 2848 895 2848 863 c 2,25,-1
 2848 386 l 2,26,27
 2848 354 2848 354 2845.5 318.5 c 128,-1,28
 2843 283 2843 283 2828.5 248 c 128,-1,29
 2814 213 2814 213 2781.5 182 c 128,-1,30
 2749 151 2749 151 2690 127 c 128,-1,31
 2631 103 2631 103 2540 89 c 128,-1,4
 2449 75 2449 75 2316 75 c 128,-1,5
2367 955 m 1,32,-1
 2271 955 l 1,33,-1
 2271 290 l 1,34,-1
 2367 290 l 1,35,-1
 2367 955 l 1,32,-1
571 454 m 128,-1,37
 438 454 438 454 347 468 c 128,-1,38
 256 482 256 482 197 506 c 128,-1,39
 138 530 138 530 106 561.5 c 128,-1,40
 74 593 74 593 59.5 627.5 c 128,-1,41
 45 662 45 662 42.5 697.5 c 128,-1,42
 40 733 40 733 40 765 c 2,43,-1
 40 1244 l 2,44,45
 40 1276 40 1276 42.5 1311 c 128,-1,46
 45 1346 45 1346 59.5 1380.5 c 128,-1,47
 74 1415 74 1415 106 1446 c 128,-1,48
 138 1477 138 1477 197 1501 c 128,-1,49
 256 1525 256 1525 347 1539 c 128,-1,50
 438 1553 438 1553 571 1553 c 128,-1,51
 704 1553 704 1553 795 1539 c 128,-1,52
 886 1525 886 1525 945 1501 c 128,-1,53
 1004 1477 1004 1477 1036.5 1446 c 128,-1,54
 1069 1415 1069 1415 1083.5 1380.5 c 128,-1,55
 1098 1346 1098 1346 1100.5 1311 c 128,-1,56
 1103 1276 1103 1276 1103 1244 c 2,57,-1
 1103 765 l 2,58,59
 1103 733 1103 733 1100.5 697.5 c 128,-1,60
 1098 662 1098 662 1083.5 627.5 c 128,-1,61
 1069 593 1069 593 1036.5 561.5 c 128,-1,62
 1004 530 1004 530 945 506 c 128,-1,63
 886 482 886 482 795 468 c 128,-1,36
 704 454 704 454 571 454 c 128,-1,37
622 1334 m 1,64,-1
 526 1334 l 1,65,-1
 526 669 l 1,66,-1
 622 669 l 1,67,-1
 622 1334 l 1,64,-1
EndSplineSet
Validated: 16385
EndChar

StartChar: ampersand
Encoding: 38 38 129
Width: 1680
Flags: W
HStem: -38 274<702.041 918.21> 728 224<698 921 1519 1680> 1154 444.5<918.134 1381.23> 1364 271<699.647 917>
VStem: 75 623<237.145 727.07 952.911 1363.44> 921 598<238.302 728 952 1080 1154 1362.72>
LayerCount: 2
Fore
SplineSet
921 236 m 1,0,-1
 921 728 l 1,1,-1
 698 728 l 1,2,-1
 698 236 l 1,3,-1
 921 236 l 1,0,-1
917 1154 m 1,4,-1
 917 1364 l 1,5,-1
 698 1364 l 1,6,-1
 698 952 l 1,7,-1
 921 952 l 1,8,-1
 921 1080 l 1,9,-1
 1519 1080 l 1,10,-1
 1519 952 l 1,11,-1
 1680 952 l 1,12,-1
 1680 728 l 1,13,-1
 1519 728 l 1,14,-1
 1519 635 l 2,15,16
 1519 503 1519 503 1510 402 c 128,-1,17
 1501 301 1501 301 1474.5 226.5 c 128,-1,18
 1448 152 1448 152 1399.5 101 c 128,-1,19
 1351 50 1351 50 1271 19.5 c 128,-1,20
 1191 -11 1191 -11 1075.5 -24.5 c 128,-1,21
 960 -38 960 -38 800 -38 c 0,22,23
 636 -38 636 -38 518.5 -25 c 128,-1,24
 401 -12 401 -12 320.5 16 c 128,-1,25
 240 44 240 44 191.5 89 c 128,-1,26
 143 134 143 134 117 199 c 128,-1,27
 91 264 91 264 83 349 c 128,-1,28
 75 434 75 434 75 543 c 0,29,30
 75 602 75 602 85 646.5 c 128,-1,31
 95 691 95 691 110 724 c 128,-1,32
 125 757 125 757 143 779 c 128,-1,33
 161 801 161 801 177 814 c 128,-1,34
 193 827 193 827 204 833 c 128,-1,35
 215 839 215 839 217 840 c 1,36,37
 215 841 215 841 204 847 c 128,-1,38
 193 853 193 853 177 867 c 128,-1,39
 161 881 161 881 143 903 c 128,-1,40
 125 925 125 925 110 958 c 128,-1,41
 95 991 95 991 85 1035 c 128,-1,42
 75 1079 75 1079 75 1137 c 0,43,44
 75 1239 75 1239 88 1315.5 c 128,-1,45
 101 1392 101 1392 133 1447.5 c 128,-1,46
 165 1503 165 1503 218.5 1539 c 128,-1,47
 272 1575 272 1575 352.5 1596.5 c 128,-1,48
 433 1618 433 1618 543.5 1626.5 c 128,-1,49
 654 1635 654 1635 800 1635 c 0,50,51
 960 1635 960 1635 1075 1627 c 128,-1,52
 1190 1619 1190 1619 1269.5 1598.5 c 128,-1,53
 1349 1578 1349 1578 1397 1543 c 128,-1,54
 1445 1508 1445 1508 1471.5 1454.5 c 128,-1,55
 1498 1401 1498 1401 1506.5 1327 c 128,-1,56
 1515 1253 1515 1253 1515 1154 c 1,57,-1
 917 1154 l 1,4,-1
EndSplineSet
Validated: 16385
EndChar

StartChar: quotesingle
Encoding: 39 39 130
Width: 699
Flags: W
HStem: 1584 20G<80 619>
VStem: 80 539
LayerCount: 2
Fore
SplineSet
519 798 m 1,0,-1
 180 798 l 1,1,-1
 80 1604 l 1,2,-1
 619 1604 l 1,3,-1
 519 798 l 1,0,-1
EndSplineSet
Validated: 16385
EndChar

StartChar: parenleft
Encoding: 40 40 131
Width: 860
Flags: W
HStem: -330 279<766.62 979> 1657 278<766.62 979>
VStem: 41 602<266.722 1338.6>
LayerCount: 2
Fore
SplineSet
41 803 m 128,-1,1
 41 1068 41 1068 70 1254.5 c 128,-1,2
 99 1441 99 1441 154.5 1567 c 128,-1,3
 210 1693 210 1693 291 1766 c 128,-1,4
 372 1839 372 1839 476 1876.5 c 128,-1,5
 580 1914 580 1914 706.5 1924.5 c 128,-1,6
 833 1935 833 1935 979 1935 c 1,7,-1
 979 1657 l 1,8,9
 917 1657 917 1657 868.5 1652.5 c 128,-1,10
 820 1648 820 1648 782.5 1624 c 128,-1,11
 745 1600 745 1600 718.5 1548 c 128,-1,12
 692 1496 692 1496 675.5 1401 c 128,-1,13
 659 1306 659 1306 651 1160.5 c 128,-1,14
 643 1015 643 1015 643 803 c 128,-1,15
 643 591 643 591 651 445.5 c 128,-1,16
 659 300 659 300 675.5 205 c 128,-1,17
 692 110 692 110 718.5 58 c 128,-1,18
 745 6 745 6 782.5 -18 c 128,-1,19
 820 -42 820 -42 868.5 -46.5 c 128,-1,20
 917 -51 917 -51 979 -51 c 1,21,-1
 979 -330 l 1,22,23
 833 -330 833 -330 706.5 -319.5 c 128,-1,24
 580 -309 580 -309 476 -271.5 c 128,-1,25
 372 -234 372 -234 291 -160.5 c 128,-1,26
 210 -87 210 -87 154.5 38.5 c 128,-1,27
 99 164 99 164 70 351 c 128,-1,0
 41 538 41 538 41 803 c 128,-1,1
EndSplineSet
Validated: 16385
EndChar

StartChar: parenright
Encoding: 41 41 132
Width: 860
Flags: W
HStem: -330 279<-119 93.3799> 1657 278<-119 93.3799>
VStem: 217 602<266.722 1338.6>
LayerCount: 2
Fore
SplineSet
819 803 m 128,-1,1
 819 538 819 538 790 351 c 128,-1,2
 761 164 761 164 705.5 38.5 c 128,-1,3
 650 -87 650 -87 569 -160.5 c 128,-1,4
 488 -234 488 -234 384 -271.5 c 128,-1,5
 280 -309 280 -309 153.5 -319.5 c 128,-1,6
 27 -330 27 -330 -119 -330 c 1,7,-1
 -119 -51 l 1,8,9
 -57 -51 -57 -51 -8.5 -46.5 c 128,-1,10
 40 -42 40 -42 77.5 -18 c 128,-1,11
 115 6 115 6 141.5 58 c 128,-1,12
 168 110 168 110 184.5 205 c 128,-1,13
 201 300 201 300 209 445.5 c 128,-1,14
 217 591 217 591 217 803 c 128,-1,15
 217 1015 217 1015 209 1160.5 c 128,-1,16
 201 1306 201 1306 184.5 1401 c 128,-1,17
 168 1496 168 1496 141.5 1548 c 128,-1,18
 115 1600 115 1600 77.5 1624 c 128,-1,19
 40 1648 40 1648 -9 1652.5 c 128,-1,20
 -58 1657 -58 1657 -119 1657 c 1,21,-1
 -119 1935 l 1,22,23
 27 1935 27 1935 153.5 1924.5 c 128,-1,24
 280 1914 280 1914 384 1876.5 c 128,-1,25
 488 1839 488 1839 569 1766 c 128,-1,26
 650 1693 650 1693 705.5 1567 c 128,-1,27
 761 1441 761 1441 790 1254.5 c 128,-1,0
 819 1068 819 1068 819 803 c 128,-1,1
EndSplineSet
Validated: 16385
EndChar

StartChar: asterisk
Encoding: 42 42 133
Width: 1339
Flags: W
HStem: 1581 20G<504.346 544.471 793.529 833.654>
LayerCount: 2
Fore
SplineSet
572 346 m 1,0,-1
 158 478 l 1,1,-1
 368 791 l 1,2,-1
 41 733 l 1,3,-1
 41 1164 l 1,4,-1
 368 1097 l 1,5,-1
 134 1347 l 1,6,-1
 536 1601 l 1,7,-1
 669 1287 l 1,8,-1
 802 1601 l 1,9,-1
 1204 1347 l 1,10,-1
 970 1097 l 1,11,-1
 1297 1164 l 1,12,-1
 1297 733 l 1,13,-1
 970 791 l 1,14,-1
 1180 478 l 1,15,-1
 766 346 l 1,16,-1
 669 647 l 1,17,-1
 572 346 l 1,0,-1
EndSplineSet
Validated: 16385
EndChar

StartChar: plus
Encoding: 43 43 134
Width: 1339
Flags: W
HStem: 0 21G<408 932> 408 483<41 408 932 1298>
VStem: 408 524<0 408 891 1298>
LayerCount: 2
Fore
SplineSet
408 891 m 1,0,-1
 408 1298 l 1,1,-1
 932 1298 l 1,2,-1
 932 891 l 1,3,-1
 1298 891 l 1,4,-1
 1298 408 l 1,5,-1
 932 408 l 1,6,-1
 932 0 l 1,7,-1
 408 0 l 1,8,-1
 408 408 l 1,9,-1
 41 408 l 1,10,-1
 41 891 l 1,11,-1
 408 891 l 1,0,-1
EndSplineSet
Validated: 16385
EndChar

StartChar: comma
Encoding: 44 44 135
Width: 739
Flags: W
HStem: -367 199<108 237.358>
VStem: 80 579<3.31689 487>
LayerCount: 2
Fore
SplineSet
108 -168 m 1,0,1
 170 -156 170 -156 218 -133 c 0,2,3
 239 -123 239 -123 258.5 -110.5 c 128,-1,4
 278 -98 278 -98 293.5 -81.5 c 128,-1,5
 309 -65 309 -65 318.5 -44.5 c 128,-1,6
 328 -24 328 -24 328 0 c 1,7,-1
 80 0 l 1,8,-1
 80 487 l 1,9,-1
 659 487 l 1,10,-1
 659 150 l 2,11,12
 659 -2 659 -2 621.5 -101.5 c 128,-1,13
 584 -201 584 -201 512.5 -260 c 128,-1,14
 441 -319 441 -319 339 -343 c 128,-1,15
 237 -367 237 -367 108 -367 c 1,16,-1
 108 -168 l 1,0,1
EndSplineSet
Validated: 16385
EndChar

StartChar: hyphen
Encoding: 45 45 136
Width: 947
Flags: W
HStem: 461 436<30 917>
LayerCount: 2
Fore
SplineSet
917 897 m 1,0,-1
 917 461 l 1,1,-1
 30 461 l 1,2,-1
 30 897 l 1,3,-1
 917 897 l 1,0,-1
EndSplineSet
Validated: 16385
EndChar

StartChar: zero
Encoding: 48 48 138
Width: 1456
Flags: W
HStem: -39 270<668.203 784.855> 1359 274<667.881 784.855>
VStem: 59 607<231.591 1358.36> 786 611<231.591 1358.36>
LayerCount: 2
Fore
SplineSet
729 -39 m 128,-1,1
 562 -39 562 -39 447 -21 c 128,-1,2
 332 -3 332 -3 257.5 27 c 128,-1,3
 183 57 183 57 142.5 97 c 128,-1,4
 102 137 102 137 83.5 180 c 128,-1,5
 65 223 65 223 62 267.5 c 128,-1,6
 59 312 59 312 59 352 c 2,7,-1
 59 1242 l 2,8,9
 59 1282 59 1282 62 1326.5 c 128,-1,10
 65 1371 65 1371 83.5 1414.5 c 128,-1,11
 102 1458 102 1458 142.5 1497.5 c 128,-1,12
 183 1537 183 1537 257.5 1567 c 128,-1,13
 332 1597 332 1597 446.5 1615 c 128,-1,14
 561 1633 561 1633 729 1633 c 0,15,16
 896 1633 896 1633 1010.5 1615 c 128,-1,17
 1125 1597 1125 1597 1199 1567 c 128,-1,18
 1273 1537 1273 1537 1313.5 1497.5 c 128,-1,19
 1354 1458 1354 1458 1372.5 1414.5 c 128,-1,20
 1391 1371 1391 1371 1394 1326.5 c 128,-1,21
 1397 1282 1397 1282 1397 1242 c 2,22,-1
 1397 352 l 2,23,24
 1397 312 1397 312 1394 267.5 c 128,-1,25
 1391 223 1391 223 1372.5 180 c 128,-1,26
 1354 137 1354 137 1313.5 97 c 128,-1,27
 1273 57 1273 57 1199 27 c 128,-1,28
 1125 -3 1125 -3 1010.5 -21 c 128,-1,0
 896 -39 896 -39 729 -39 c 128,-1,1
666 231 m 1,29,-1
 786 231 l 1,30,-1
 786 1359 l 1,31,-1
 666 1359 l 1,32,-1
 666 231 l 1,29,-1
EndSplineSet
Validated: 16385
EndChar

StartChar: one
Encoding: 49 49 139
Width: 948
Flags: W
HStem: 0 21G<202 878> 1351 244<0 202>
VStem: 202 676<0 1351>
LayerCount: 2
Fore
SplineSet
878 1595 m 1,0,-1
 878 0 l 1,1,-1
 202 0 l 1,2,-1
 202 1351 l 1,3,-1
 0 1351 l 1,4,-1
 0 1595 l 1,5,-1
 878 1595 l 1,0,-1
EndSplineSet
Validated: 16385
EndChar

StartChar: two
Encoding: 50 50 140
Width: 1438
Flags: W
HStem: 0 300<662 1336> 1358 274<662.421 784.619>
VStem: 73 589<300 416.227 1064 1356.78> 785 613<1016.53 1357.24>
LayerCount: 2
Fore
SplineSet
74 1064 m 1,0,1
 74 1128 74 1128 77.5 1186 c 128,-1,2
 81 1244 81 1244 92 1296 c 128,-1,3
 103 1348 103 1348 122.5 1393 c 128,-1,4
 142 1438 142 1438 175 1475 c 128,-1,5
 208 1512 208 1512 256 1541.5 c 128,-1,6
 304 1571 304 1571 370.5 1591 c 128,-1,7
 437 1611 437 1611 524.5 1621.5 c 128,-1,8
 612 1632 612 1632 723 1632 c 0,9,10
 868 1632 868 1632 975 1615 c 128,-1,11
 1082 1598 1082 1598 1157 1566 c 128,-1,12
 1232 1534 1232 1534 1279 1488.5 c 128,-1,13
 1326 1443 1326 1443 1352.5 1385 c 128,-1,14
 1379 1327 1379 1327 1388.5 1258.5 c 128,-1,15
 1398 1190 1398 1190 1398 1112 c 0,16,17
 1398 971 1398 971 1366.5 875.5 c 128,-1,18
 1335 780 1335 780 1283 717 c 128,-1,19
 1231 654 1231 654 1165 617 c 128,-1,20
 1099 580 1099 580 1030 555.5 c 128,-1,21
 961 531 961 531 895 513 c 128,-1,22
 829 495 829 495 777 469.5 c 128,-1,23
 725 444 725 444 693.5 405 c 128,-1,24
 662 366 662 366 662 300 c 1,25,-1
 1336 300 l 1,26,-1
 1336 0 l 1,27,-1
 73 0 l 1,28,-1
 73 302 l 2,29,30
 73 457 73 457 103.5 567 c 128,-1,31
 134 677 134 677 184 752.5 c 128,-1,32
 234 828 234 828 298 873.5 c 128,-1,33
 362 919 362 919 429 945 c 128,-1,34
 496 971 496 971 560 983 c 128,-1,35
 624 995 624 995 674 1002.5 c 128,-1,36
 724 1010 724 1010 754.5 1019 c 128,-1,37
 785 1028 785 1028 785 1048 c 2,38,-1
 785 1358 l 1,39,-1
 662 1358 l 1,40,-1
 662 1064 l 1,41,-1
 74 1064 l 1,0,1
EndSplineSet
Validated: 16385
EndChar

StartChar: three
Encoding: 51 51 141
Width: 1438
Flags: W
HStem: -38 274<633.47 773.225> 708 224<540 776> 1364 271<633.47 773.225>
VStem: 45 588<246.279 614 1025 1361.99> 776 613<239.727 706.664 932.793 1362.99>
LayerCount: 2
Fore
SplineSet
45 1025 m 1,0,1
 45 1126 45 1126 53 1210 c 128,-1,2
 61 1294 61 1294 86 1362 c 128,-1,3
 111 1430 111 1430 156.5 1481 c 128,-1,4
 202 1532 202 1532 276 1566.5 c 128,-1,5
 350 1601 350 1601 457.5 1618 c 128,-1,6
 565 1635 565 1635 714 1635 c 0,7,8
 864 1635 864 1635 972.5 1616.5 c 128,-1,9
 1081 1598 1081 1598 1156 1564 c 128,-1,10
 1231 1530 1231 1530 1277 1482.5 c 128,-1,11
 1323 1435 1323 1435 1347.5 1377.5 c 128,-1,12
 1372 1320 1372 1320 1380.5 1254 c 128,-1,13
 1389 1188 1389 1188 1389 1117 c 0,14,15
 1389 1030 1389 1030 1367.5 973.5 c 128,-1,16
 1346 917 1346 917 1320 883 c 128,-1,17
 1294 849 1294 849 1271.5 835 c 128,-1,18
 1249 821 1249 821 1246 820 c 1,19,20
 1249 819 1249 819 1271.5 805.5 c 128,-1,21
 1294 792 1294 792 1320 759 c 128,-1,22
 1346 726 1346 726 1367.5 668.5 c 128,-1,23
 1389 611 1389 611 1389 523 c 0,24,25
 1389 450 1389 450 1380.5 380 c 128,-1,26
 1372 310 1372 310 1347.5 247.5 c 128,-1,27
 1323 185 1323 185 1277 132.5 c 128,-1,28
 1231 80 1231 80 1156 42 c 128,-1,29
 1081 4 1081 4 972.5 -17 c 128,-1,30
 864 -38 864 -38 714 -38 c 0,31,32
 565 -38 565 -38 457.5 -19 c 128,-1,33
 350 0 350 0 276 37.5 c 128,-1,34
 202 75 202 75 156.5 130 c 128,-1,35
 111 185 111 185 86 257.5 c 128,-1,36
 61 330 61 330 53 419.5 c 128,-1,37
 45 509 45 509 45 615 c 1,38,-1
 633 614 l 1,39,-1
 633 236 l 1,40,-1
 776 236 l 1,41,-1
 776 708 l 1,42,-1
 540 708 l 1,43,-1
 540 932 l 1,44,-1
 776 932 l 1,45,-1
 776 1364 l 1,46,-1
 633 1364 l 1,47,-1
 633 1025 l 1,48,-1
 45 1025 l 1,0,1
EndSplineSet
Validated: 16385
EndChar

StartChar: four
Encoding: 52 52 142
Width: 1458
Flags: W
HStem: 0 21G<770 1408> 1575 20G<269.776 901>
VStem: 770 638<0 242 603 938>
LayerCount: 2
Fore
SplineSet
1408 0 m 1,0,-1
 770 0 l 1,1,-1
 770 242 l 1,2,-1
 30 242 l 1,3,-1
 30 657 l 1,4,-1
 275 1595 l 1,5,-1
 901 1595 l 1,6,-1
 658 657 l 1,7,-1
 658 603 l 1,8,-1
 770 603 l 1,9,-1
 770 938 l 1,10,-1
 1408 938 l 1,11,-1
 1408 0 l 1,0,-1
EndSplineSet
Validated: 16385
EndChar

StartChar: five
Encoding: 53 53 143
Width: 1438
Flags: W
HStem: -38 274<645.47 785.225> 1299 302<658 1329>
VStem: 788 613<238.031 836.178>
LayerCount: 2
Fore
SplineSet
645 474 m 1,0,-1
 645 236 l 1,1,-1
 788 236 l 1,2,-1
 788 838 l 1,3,-1
 618 838 l 1,4,-1
 595 655 l 1,5,-1
 69 655 l 1,6,-1
 156 1601 l 1,7,-1
 1329 1601 l 1,8,-1
 1329 1299 l 1,9,-1
 658 1299 l 1,10,-1
 630 998 l 1,11,12
 658 1028 658 1028 707 1053 c 1,13,14
 749 1073 749 1073 817 1090.5 c 128,-1,15
 885 1108 885 1108 986 1108 c 0,16,17
 1108 1108 1108 1108 1188 1072 c 128,-1,18
 1268 1036 1268 1036 1315.5 966 c 128,-1,19
 1363 896 1363 896 1382 792.5 c 128,-1,20
 1401 689 1401 689 1401 553 c 0,21,22
 1401 454 1401 454 1392.5 371.5 c 128,-1,23
 1384 289 1384 289 1359.5 223.5 c 128,-1,24
 1335 158 1335 158 1289 109 c 128,-1,25
 1243 60 1243 60 1168 27.5 c 128,-1,26
 1093 -5 1093 -5 984.5 -21.5 c 128,-1,27
 876 -38 876 -38 726 -38 c 0,28,29
 577 -38 577 -38 469.5 -21 c 128,-1,30
 362 -4 362 -4 288 27.5 c 128,-1,31
 214 59 214 59 168.5 104.5 c 128,-1,32
 123 150 123 150 98 207 c 128,-1,33
 73 264 73 264 65 331.5 c 128,-1,34
 57 399 57 399 57 475 c 1,35,-1
 645 474 l 1,0,-1
EndSplineSet
Validated: 16385
EndChar

StartChar: six
Encoding: 54 54 144
Width: 1457
Flags: W
HStem: -38 274<647.954 787.225> 798 270<649 787.348> 1376 256<649.885 762.125>
VStem: 61 586<236.156 798 1068 1360.34> 790 613<237.345 797.93>
LayerCount: 2
Fore
SplineSet
728 -38 m 0,0,1
 580 -38 580 -38 472.5 -21 c 128,-1,2
 365 -4 365 -4 290.5 27.5 c 128,-1,3
 216 59 216 59 170.5 104.5 c 128,-1,4
 125 150 125 150 100 207 c 128,-1,5
 75 264 75 264 67 331.5 c 128,-1,6
 59 399 59 399 59 475 c 2,7,-1
 61 987 l 1,8,-1
 61 1055 l 2,9,10
 61 1122 61 1122 66 1190.5 c 128,-1,11
 71 1259 71 1259 91.5 1323 c 128,-1,12
 112 1387 112 1387 152.5 1443.5 c 128,-1,13
 193 1500 193 1500 265 1542 c 128,-1,14
 337 1584 337 1584 444.5 1608 c 128,-1,15
 552 1632 552 1632 706 1632 c 0,16,17
 874 1632 874 1632 987 1609 c 128,-1,18
 1100 1586 1100 1586 1172.5 1548 c 128,-1,19
 1245 1510 1245 1510 1282.5 1461 c 128,-1,20
 1320 1412 1320 1412 1336.5 1359.5 c 128,-1,21
 1353 1307 1353 1307 1354.5 1255 c 128,-1,22
 1356 1203 1356 1203 1356 1160 c 1,23,-1
 764 1158 l 1,24,-1
 764 1376 l 1,25,-1
 649 1376 l 1,26,-1
 649 1068 l 1,27,-1
 770 1068 l 2,28,29
 910 1068 910 1068 1011 1054.5 c 128,-1,30
 1112 1041 1112 1041 1182.5 1013 c 128,-1,31
 1253 985 1253 985 1296 941.5 c 128,-1,32
 1339 898 1339 898 1363 837.5 c 128,-1,33
 1387 777 1387 777 1395 698.5 c 128,-1,34
 1403 620 1403 620 1403 523 c 0,35,36
 1403 434 1403 434 1394.5 358 c 128,-1,37
 1386 282 1386 282 1361.5 219.5 c 128,-1,38
 1337 157 1337 157 1291 109 c 128,-1,39
 1245 61 1245 61 1170 28.5 c 128,-1,40
 1095 -4 1095 -4 986.5 -21 c 128,-1,41
 878 -38 878 -38 728 -38 c 0,0,1
647 236 m 1,42,-1
 790 236 l 1,43,-1
 790 798 l 1,44,-1
 647 798 l 1,45,-1
 647 236 l 1,42,-1
EndSplineSet
Validated: 16385
EndChar

StartChar: seven
Encoding: 55 55 145
Width: 1092
Flags: W
HStem: 0 21G<127 806.627> 1351 244<7 370>
LayerCount: 2
Fore
SplineSet
1048 1595 m 1,0,-1
 1048 1351 l 1,1,-1
 803 0 l 1,2,-1
 127 0 l 1,3,-1
 370 1351 l 1,4,-1
 7 1351 l 1,5,-1
 7 1595 l 1,6,-1
 1048 1595 l 1,0,-1
EndSplineSet
Validated: 16385
EndChar

StartChar: eight
Encoding: 56 56 146
Width: 1410
Flags: W
HStem: -41 277<636.205 772.205> 721 240<655 755> 1610 20G<629.5 786.5>
VStem: 30 605<236.952 720.842> 107 548<961.748 1354.78> 755 548<961.508 1354.78> 775 605<236.987 720.842>
LayerCount: 2
Fore
SplineSet
635 236 m 1,0,-1
 775 236 l 1,1,-1
 775 721 l 1,2,-1
 635 721 l 1,3,-1
 635 236 l 1,0,-1
655 1355 m 1,4,-1
 655 961 l 1,5,-1
 755 961 l 1,6,-1
 755 1355 l 1,7,-1
 655 1355 l 1,4,-1
708 1630 m 128,-1,9
 865 1630 865 1630 977.5 1604.5 c 128,-1,10
 1090 1579 1090 1579 1162.5 1524.5 c 128,-1,11
 1235 1470 1235 1470 1269 1385 c 128,-1,12
 1303 1300 1303 1300 1303 1181 c 0,13,14
 1303 1127 1303 1127 1297.5 1085 c 128,-1,15
 1292 1043 1292 1043 1283.5 1011 c 128,-1,16
 1275 979 1275 979 1264 955.5 c 128,-1,17
 1253 932 1253 932 1242 916 c 0,18,19
 1216 878 1216 878 1182 865 c 1,20,21
 1237 852 1237 852 1281 805 c 0,22,23
 1299 785 1299 785 1317 756 c 128,-1,24
 1335 727 1335 727 1349 686.5 c 128,-1,25
 1363 646 1363 646 1371.5 592.5 c 128,-1,26
 1380 539 1380 539 1380 471 c 0,27,28
 1380 397 1380 397 1372.5 330 c 128,-1,29
 1365 263 1365 263 1341 206 c 128,-1,30
 1317 149 1317 149 1272 103.5 c 128,-1,31
 1227 58 1227 58 1153 25.5 c 128,-1,32
 1079 -7 1079 -7 971 -24 c 128,-1,33
 863 -41 863 -41 713 -41 c 128,-1,34
 563 -41 563 -41 454 -24 c 128,-1,35
 345 -7 345 -7 269 25.5 c 128,-1,36
 193 58 193 58 146 103.5 c 128,-1,37
 99 149 99 149 73.5 206 c 128,-1,38
 48 263 48 263 39 329.5 c 128,-1,39
 30 396 30 396 30 471 c 0,40,41
 30 539 30 539 38.5 592.5 c 128,-1,42
 47 646 47 646 61 686.5 c 128,-1,43
 75 727 75 727 92.5 756 c 128,-1,44
 110 785 110 785 129 805 c 0,45,46
 172 852 172 852 228 865 c 1,47,48
 193 878 193 878 167 917 c 0,49,50
 156 933 156 933 145 956.5 c 128,-1,51
 134 980 134 980 125.5 1012.5 c 128,-1,52
 117 1045 117 1045 112 1086.5 c 128,-1,53
 107 1128 107 1128 107 1181 c 0,54,55
 107 1300 107 1300 142 1385 c 128,-1,56
 177 1470 177 1470 250.5 1524.5 c 128,-1,57
 324 1579 324 1579 437.5 1604.5 c 128,-1,8
 551 1630 551 1630 708 1630 c 128,-1,9
EndSplineSet
Validated: 16385
EndChar

StartChar: nine
Encoding: 57 57 147
Width: 1457
Flags: W
HStem: -38 256<690.364 789.131> 498 270<662 791> 1358 274<665.967 788.076>
VStem: 59 603<769.609 1356.65> 791 610<218.32 498 768 1357.84>
LayerCount: 2
Fore
SplineSet
734 1632 m 0,0,1
 882 1632 882 1632 989.5 1615 c 128,-1,2
 1097 1598 1097 1598 1171.5 1566.5 c 128,-1,3
 1246 1535 1246 1535 1291.5 1489.5 c 128,-1,4
 1337 1444 1337 1444 1362 1387 c 128,-1,5
 1387 1330 1387 1330 1395 1262.5 c 128,-1,6
 1403 1195 1403 1195 1403 1119 c 2,7,-1
 1401 579 l 1,8,-1
 1401 512 l 2,9,10
 1401 446 1401 446 1396 379.5 c 128,-1,11
 1391 313 1391 313 1370.5 252 c 128,-1,12
 1350 191 1350 191 1309.5 138 c 128,-1,13
 1269 85 1269 85 1197 46 c 128,-1,14
 1125 7 1125 7 1017.5 -15.5 c 128,-1,15
 910 -38 910 -38 756 -38 c 0,16,17
 589 -38 589 -38 475.5 -16.5 c 128,-1,18
 362 5 362 5 289.5 41 c 128,-1,19
 217 77 217 77 179.5 124 c 128,-1,20
 142 171 142 171 125.5 221 c 128,-1,21
 109 271 109 271 107.5 321.5 c 128,-1,22
 106 372 106 372 106 416 c 1,23,-1
 688 418 l 1,24,-1
 688 218 l 1,25,-1
 793 218 l 1,26,-1
 793 498 l 1,27,-1
 500 498 l 2,28,29
 390 498 390 498 314.5 518 c 128,-1,30
 239 538 239 538 190 574.5 c 128,-1,31
 141 611 141 611 114.5 662.5 c 128,-1,32
 88 714 88 714 75.5 777.5 c 128,-1,33
 63 841 63 841 61 915 c 128,-1,34
 59 989 59 989 59 1071 c 0,35,36
 59 1160 59 1160 67.5 1236 c 128,-1,37
 76 1312 76 1312 100.5 1374.5 c 128,-1,38
 125 1437 125 1437 171 1485 c 128,-1,39
 217 1533 217 1533 292 1565.5 c 128,-1,40
 367 1598 367 1598 475.5 1615 c 128,-1,41
 584 1632 584 1632 734 1632 c 0,0,1
791 1358 m 1,42,-1
 662 1358 l 1,43,-1
 662 768 l 1,44,-1
 791 768 l 1,45,-1
 791 1358 l 1,42,-1
EndSplineSet
Validated: 16385
EndChar

StartChar: colon
Encoding: 58 58 148
Width: 774
Flags: W
HStem: 92 467<129 668> 1000 497<129 668>
VStem: 129 539<92 559 1000 1497>
LayerCount: 2
Fore
SplineSet
668 1000 m 1,0,-1
 129 1000 l 1,1,-1
 129 1497 l 1,2,-1
 668 1497 l 1,3,-1
 668 1000 l 1,0,-1
668 92 m 1,4,-1
 129 92 l 1,5,-1
 129 559 l 1,6,-1
 668 559 l 1,7,-1
 668 92 l 1,4,-1
EndSplineSet
Validated: 16385
EndChar

StartChar: semicolon
Encoding: 59 59 149
Width: 774
Flags: W
HStem: -247 199<148 277.358> 1000 497<129 668>
VStem: 120 579<123.317 607> 129 539<1000 1497>
LayerCount: 2
Fore
SplineSet
148 -48 m 1,0,1
 210 -36 210 -36 258 -13 c 0,2,3
 279 -3 279 -3 298.5 9.5 c 128,-1,4
 318 22 318 22 333.5 38.5 c 128,-1,5
 349 55 349 55 358.5 75.5 c 128,-1,6
 368 96 368 96 368 120 c 1,7,-1
 120 120 l 1,8,-1
 120 607 l 1,9,-1
 699 607 l 1,10,-1
 699 270 l 2,11,12
 699 118 699 118 661.5 18.5 c 128,-1,13
 624 -81 624 -81 552.5 -140 c 128,-1,14
 481 -199 481 -199 379 -223 c 128,-1,15
 277 -247 277 -247 148 -247 c 1,16,-1
 148 -48 l 1,0,1
668 1000 m 1,17,-1
 129 1000 l 1,18,-1
 129 1497 l 1,19,-1
 668 1497 l 1,20,-1
 668 1000 l 1,17,-1
EndSplineSet
Validated: 16385
EndChar

StartChar: less
Encoding: 60 60 150
Width: 1052
Flags: W
HStem: 0 21G<953.881 992> 1577 20G<954.645 992>
LayerCount: 2
Fore
SplineSet
60 1098 m 1,0,-1
 992 1597 l 1,1,-1
 992 1092 l 1,2,-1
 353 797 l 1,3,-1
 992 504 l 1,4,-1
 992 0 l 1,5,-1
 60 489 l 1,6,-1
 60 1098 l 1,0,-1
EndSplineSet
Validated: 16385
EndChar

StartChar: equal
Encoding: 61 61 151
Width: 947
Flags: W
HStem: 0 336<30 917> 561 336<30 917>
VStem: 30 887<0 336 561 897>
LayerCount: 2
Fore
SplineSet
917 897 m 1,0,-1
 917 561 l 1,1,-1
 30 561 l 1,2,-1
 30 897 l 1,3,-1
 917 897 l 1,0,-1
917 336 m 1,4,-1
 917 0 l 1,5,-1
 30 0 l 1,6,-1
 30 336 l 1,7,-1
 917 336 l 1,4,-1
EndSplineSet
Validated: 16385
EndChar

StartChar: greater
Encoding: 62 62 152
Width: 1052
Flags: W
HStem: 0 21G<60 98.1186> 1577 20G<60 97.3547>
LayerCount: 2
Fore
SplineSet
992 489 m 1,0,-1
 60 0 l 1,1,-1
 60 504 l 1,2,-1
 699 797 l 1,3,-1
 60 1092 l 1,4,-1
 60 1597 l 1,5,-1
 992 1098 l 1,6,-1
 992 489 l 1,0,-1
EndSplineSet
Validated: 16385
EndChar

StartChar: at
Encoding: 64 64 153
Width: 2304
Flags: W
HStem: -394 375<792.377 1601.88> 637 195<1140 1232.32> 1352 389<826.701 1591.72>
VStem: 69 450<265.246 1065.58> 641.5 498.5<332.166 635.992> 1238 464<332 637 784 1017.2> 1794 466<466.484 1144.48>
LayerCount: 2
Fore
SplineSet
1140 637 m 1,0,-1
 1140 332 l 1,1,-1
 1238 332 l 1,2,-1
 1238 637 l 1,3,-1
 1140 637 l 1,0,-1
1269 235 m 1,4,5
 1237 200 1237 200 1197 172 c 0,6,7
 1160 148 1160 148 1112 128 c 0,8,9
 1064 109 1064 109 1006 109 c 0,10,11
 1003 109 1003 109 1000 109 c 0,12,13
 910 109 910 109 848.5 125.5 c 128,-1,14
 787 142 787 142 747 170 c 128,-1,15
 707 198 707 198 685 235.5 c 128,-1,16
 663 273 663 273 653 315 c 128,-1,17
 643 357 643 357 641.5 401.5 c 128,-1,18
 640 446 640 446 640 489 c 0,19,20
 640 522 640 522 641.5 560 c 128,-1,21
 643 598 643 598 653 636 c 128,-1,22
 663 674 663 674 685 709.5 c 128,-1,23
 707 745 707 745 747 772 c 128,-1,24
 787 799 787 799 848.5 815.5 c 128,-1,25
 910 832 910 832 1000 832 c 0,26,27
 1096 832 1096 832 1152.5 817 c 128,-1,28
 1209 802 1209 802 1238 784 c 1,29,-1
 1238 1018 l 1,30,-1
 1176 1018 l 1,31,-1
 1176 883 l 1,32,-1
 695 883 l 1,33,34
 695 900 695 900 694.5 918 c 128,-1,35
 694 936 694 936 694 955 c 0,36,37
 694 990 694 990 699 1025 c 128,-1,38
 704 1060 704 1060 720.5 1092.5 c 128,-1,39
 737 1125 737 1125 770 1152.5 c 128,-1,40
 803 1180 803 1180 859.5 1200.5 c 128,-1,41
 916 1221 916 1221 999 1233 c 128,-1,42
 1082 1245 1082 1245 1200 1245 c 0,43,44
 1316 1245 1316 1245 1398.5 1231 c 128,-1,45
 1481 1217 1481 1217 1537 1193.5 c 128,-1,46
 1593 1170 1593 1170 1625.5 1137.5 c 128,-1,47
 1658 1105 1658 1105 1675 1067.5 c 128,-1,48
 1692 1030 1692 1030 1697 990 c 128,-1,49
 1702 950 1702 950 1702 910 c 0,50,51
 1702 888 1702 888 1702 868 c 0,52,53
 1702 851 1702 851 1701 827 c 2,54,-1
 1699 328 l 1,55,-1
 1794 328 l 1,56,57
 1794 458 1794 458 1794.5 580 c 128,-1,58
 1795 702 1795 702 1795 830 c 0,59,60
 1795 955 1795 955 1778.5 1042 c 128,-1,61
 1762 1129 1762 1129 1729.5 1187 c 128,-1,62
 1697 1245 1697 1245 1648.5 1278 c 128,-1,63
 1600 1311 1600 1311 1535.5 1327.5 c 128,-1,64
 1471 1344 1471 1344 1391 1348 c 128,-1,65
 1311 1352 1311 1352 1216 1352 c 0,66,67
 1064 1352 1064 1352 953.5 1335.5 c 128,-1,68
 843 1319 843 1319 766 1284.5 c 128,-1,69
 689 1250 689 1250 640.5 1196.5 c 128,-1,70
 592 1143 592 1143 565 1069.5 c 128,-1,71
 538 996 538 996 528.5 901.5 c 128,-1,72
 519 807 519 807 519 690 c 0,73,74
 519 523 519 523 534 405.5 c 128,-1,75
 549 288 549 288 584.5 209 c 128,-1,76
 620 130 620 130 678.5 84.5 c 128,-1,77
 737 39 737 39 824 16 c 128,-1,78
 911 -7 911 -7 1029.5 -13 c 128,-1,79
 1148 -19 1148 -19 1304 -19 c 0,80,81
 1336 -19 1336 -19 1374.5 -17.5 c 128,-1,82
 1413 -16 1413 -16 1454.5 -13 c 128,-1,83
 1496 -10 1496 -10 1538 -6 c 0,84,85
 1575 -3 1575 -3 1618 1 c 0,86,87
 1718 11 1718 11 1802 21 c 1,88,-1
 1864 -234 l 1,89,90
 1790 -279 1790 -279 1702 -314 c 0,91,92
 1664 -329 1664 -329 1620 -343.5 c 128,-1,93
 1576 -358 1576 -358 1526 -369 c 128,-1,94
 1476 -380 1476 -380 1421.5 -387 c 128,-1,95
 1367 -394 1367 -394 1309 -394 c 0,96,97
 1097 -394 1097 -394 922.5 -378 c 128,-1,98
 748 -362 748 -362 610.5 -319 c 128,-1,99
 473 -276 473 -276 371 -200 c 128,-1,100
 269 -124 269 -124 202 -3.5 c 128,-1,101
 135 117 135 117 102 286.5 c 128,-1,102
 69 456 69 456 69 687 c 0,103,104
 69 893 69 893 99.5 1051.5 c 128,-1,105
 130 1210 130 1210 192 1327 c 128,-1,106
 254 1444 254 1444 348 1523.5 c 128,-1,107
 442 1603 442 1603 569 1651 c 128,-1,108
 696 1699 696 1699 856.5 1720 c 128,-1,109
 1017 1741 1017 1741 1212 1741 c 0,110,111
 1419 1741 1419 1741 1577 1717.5 c 128,-1,112
 1735 1694 1735 1694 1851.5 1647 c 128,-1,113
 1968 1600 1968 1600 2046.5 1528.5 c 128,-1,114
 2125 1457 2125 1457 2172.5 1361 c 128,-1,115
 2220 1265 2220 1265 2240 1144.5 c 128,-1,116
 2260 1024 2260 1024 2260 878 c 0,117,118
 2260 643 2260 643 2221.5 490 c 128,-1,119
 2183 337 2183 337 2105.5 248 c 128,-1,120
 2028 159 2028 159 1912.5 123.5 c 128,-1,121
 1797 88 1797 88 1643 88 c 0,122,123
 1533 88 1533 88 1461 110.5 c 128,-1,124
 1389 133 1389 133 1346 161 c 0,125,126
 1296 194 1296 194 1269 235 c 1,4,5
EndSplineSet
Validated: 16385
EndChar

StartChar: quotedblbase
Encoding: 8222 8222 154
Width: 1320
Flags: W
HStem: -507 806<180 519 801 1140>
LayerCount: 2
Fore
SplineSet
1140 -507 m 1,0,-1
 801 -507 l 1,1,-1
 701 299 l 1,2,-1
 1240 299 l 1,3,-1
 1140 -507 l 1,0,-1
519 -507 m 1,4,-1
 180 -507 l 1,5,-1
 80 299 l 1,6,-1
 619 299 l 1,7,-1
 519 -507 l 1,4,-1
EndSplineSet
Validated: 16385
EndChar

StartChar: ellipsis
Encoding: 8230 8230 155
Width: 2077
Flags: W
HStem: 0 467<80 619 771 1310 1462 2001>
VStem: 80 539<0 467> 771 539<0 467> 1462 539<0 467>
CounterMasks: 1 70
LayerCount: 2
Fore
SplineSet
2001 0 m 1,0,-1
 1462 0 l 1,1,-1
 1462 467 l 1,2,-1
 2001 467 l 1,3,-1
 2001 0 l 1,0,-1
1310 0 m 1,4,-1
 771 0 l 1,5,-1
 771 467 l 1,6,-1
 1310 467 l 1,7,-1
 1310 0 l 1,4,-1
619 0 m 1,8,-1
 80 0 l 1,9,-1
 80 467 l 1,10,-1
 619 467 l 1,11,-1
 619 0 l 1,8,-1
EndSplineSet
Validated: 16385
EndChar

StartChar: dagger
Encoding: 8224 8224 156
Width: 1362
Flags: W
HStem: 0 21G<370 982> 900 400<60 370 982 1302> 1575 20G<386 982>
VStem: 370 612<0 900>
LayerCount: 2
Fore
SplineSet
982 0 m 1,0,-1
 370 0 l 1,1,-1
 370 900 l 1,2,-1
 60 900 l 1,3,-1
 60 1300 l 1,4,-1
 386 1300 l 1,5,-1
 386 1595 l 1,6,-1
 982 1595 l 1,7,-1
 982 1300 l 1,8,-1
 1302 1300 l 1,9,-1
 1302 900 l 1,10,-1
 982 900 l 1,11,-1
 982 0 l 1,0,-1
EndSplineSet
Validated: 16385
EndChar

StartChar: daggerdbl
Encoding: 8225 8225 157
Width: 1362
Flags: W
HStem: 0 21G<370 982> 295 400<60 370 982 1302> 900 400<60 370 982 1302> 1575 20G<370 982>
VStem: 370 612<0 295 695 900 1300 1595>
LayerCount: 2
Fore
SplineSet
982 695 m 1,0,-1
 1302 695 l 1,1,-1
 1302 295 l 1,2,-1
 982 295 l 1,3,-1
 982 0 l 1,4,-1
 370 0 l 1,5,-1
 370 295 l 1,6,-1
 60 295 l 1,7,-1
 60 695 l 1,8,-1
 370 695 l 1,9,-1
 370 900 l 1,10,-1
 60 900 l 1,11,-1
 60 1300 l 1,12,-1
 370 1300 l 1,13,-1
 370 1595 l 1,14,-1
 982 1595 l 1,15,-1
 982 1300 l 1,16,-1
 1302 1300 l 1,17,-1
 1302 900 l 1,18,-1
 982 900 l 1,19,-1
 982 695 l 1,0,-1
EndSplineSet
Validated: 16385
EndChar

StartChar: circumflex
Encoding: 710 710 158
Width: 1706
Flags: W
HStem: 61 615<604 825 1008 1219>
LayerCount: 2
Fore
SplineSet
1219 676 m 1,0,-1
 1520 61 l 1,1,-1
 1008 61 l 1,2,-1
 915 381 l 1,3,-1
 825 61 l 1,4,-1
 315 61 l 1,5,-1
 604 676 l 1,6,-1
 1219 676 l 1,0,-1
EndSplineSet
Validated: 16385
EndChar

StartChar: perthousand
Encoding: 8240 8240 159
Width: 3996
Flags: W
HStem: -40 21G<976 1519.69> 75 215<2271.52 2364.4 3379.52 3472.4> 454 215<526.522 619.398> 955 219<2271.52 2364.4 3379.52 3472.4> 1334 219<526.522 619.398>
VStem: 40 486<669.918 1333.91> 622 481<669.918 1333.91> 1785 486<290.842 954.788> 2367 481<290.842 954.788> 2893 486<290.842 954.788> 3475 481<290.842 954.788>
LayerCount: 2
Fore
SplineSet
571 454 m 128,-1,1
 438 454 438 454 347 468 c 128,-1,2
 256 482 256 482 197 506 c 128,-1,3
 138 530 138 530 106 561.5 c 128,-1,4
 74 593 74 593 59.5 627.5 c 128,-1,5
 45 662 45 662 42.5 697.5 c 128,-1,6
 40 733 40 733 40 765 c 2,7,-1
 40 1244 l 2,8,9
 40 1276 40 1276 42.5 1311 c 128,-1,10
 45 1346 45 1346 59.5 1380.5 c 128,-1,11
 74 1415 74 1415 106 1446 c 128,-1,12
 138 1477 138 1477 197 1501 c 128,-1,13
 256 1525 256 1525 347 1539 c 128,-1,14
 438 1553 438 1553 571 1553 c 128,-1,15
 704 1553 704 1553 795 1539 c 128,-1,16
 886 1525 886 1525 945 1501 c 128,-1,17
 1004 1477 1004 1477 1036.5 1446 c 128,-1,18
 1069 1415 1069 1415 1083.5 1380.5 c 128,-1,19
 1098 1346 1098 1346 1100.5 1311 c 128,-1,20
 1103 1276 1103 1276 1103 1244 c 2,21,-1
 1103 765 l 2,22,23
 1103 733 1103 733 1100.5 697.5 c 128,-1,24
 1098 662 1098 662 1083.5 627.5 c 128,-1,25
 1069 593 1069 593 1036.5 561.5 c 128,-1,26
 1004 530 1004 530 945 506 c 128,-1,27
 886 482 886 482 795 468 c 128,-1,0
 704 454 704 454 571 454 c 128,-1,1
622 1334 m 1,28,-1
 526 1334 l 1,29,-1
 526 669 l 1,30,-1
 622 669 l 1,31,-1
 622 1334 l 1,28,-1
2316 75 m 128,-1,33
 2183 75 2183 75 2092 89 c 128,-1,34
 2001 103 2001 103 1942 127 c 128,-1,35
 1883 151 1883 151 1851 182 c 128,-1,36
 1819 213 1819 213 1804.5 248 c 128,-1,37
 1790 283 1790 283 1787.5 318.5 c 128,-1,38
 1785 354 1785 354 1785 386 c 2,39,-1
 1785 863 l 2,40,41
 1785 895 1785 895 1787.5 930.5 c 128,-1,42
 1790 966 1790 966 1804.5 1000.5 c 128,-1,43
 1819 1035 1819 1035 1851 1066.5 c 128,-1,44
 1883 1098 1883 1098 1942 1122 c 128,-1,45
 2001 1146 2001 1146 2092 1160 c 128,-1,46
 2183 1174 2183 1174 2316 1174 c 128,-1,47
 2449 1174 2449 1174 2540 1160 c 128,-1,48
 2631 1146 2631 1146 2690 1122 c 128,-1,49
 2749 1098 2749 1098 2781.5 1066.5 c 128,-1,50
 2814 1035 2814 1035 2828.5 1000.5 c 128,-1,51
 2843 966 2843 966 2845.5 930.5 c 128,-1,52
 2848 895 2848 895 2848 863 c 2,53,-1
 2848 386 l 2,54,55
 2848 354 2848 354 2845.5 318.5 c 128,-1,56
 2843 283 2843 283 2828.5 248 c 128,-1,57
 2814 213 2814 213 2781.5 182 c 128,-1,58
 2749 151 2749 151 2690 127 c 128,-1,59
 2631 103 2631 103 2540 89 c 128,-1,32
 2449 75 2449 75 2316 75 c 128,-1,33
2367 955 m 1,60,-1
 2271 955 l 1,61,-1
 2271 290 l 1,62,-1
 2367 290 l 1,63,-1
 2367 955 l 1,60,-1
3424 75 m 128,-1,65
 3291 75 3291 75 3200 89 c 128,-1,66
 3109 103 3109 103 3050 127 c 128,-1,67
 2991 151 2991 151 2959 182 c 128,-1,68
 2927 213 2927 213 2912.5 248 c 128,-1,69
 2898 283 2898 283 2895.5 318.5 c 128,-1,70
 2893 354 2893 354 2893 386 c 2,71,-1
 2893 863 l 2,72,73
 2893 895 2893 895 2895.5 930.5 c 128,-1,74
 2898 966 2898 966 2912.5 1000.5 c 128,-1,75
 2927 1035 2927 1035 2959 1066.5 c 128,-1,76
 2991 1098 2991 1098 3050 1122 c 128,-1,77
 3109 1146 3109 1146 3200 1160 c 128,-1,78
 3291 1174 3291 1174 3424 1174 c 128,-1,79
 3557 1174 3557 1174 3648 1160 c 128,-1,80
 3739 1146 3739 1146 3798 1122 c 128,-1,81
 3857 1098 3857 1098 3889.5 1066.5 c 128,-1,82
 3922 1035 3922 1035 3936.5 1000.5 c 128,-1,83
 3951 966 3951 966 3953.5 930.5 c 128,-1,84
 3956 895 3956 895 3956 863 c 2,85,-1
 3956 386 l 2,86,87
 3956 354 3956 354 3953.5 318.5 c 128,-1,88
 3951 283 3951 283 3936.5 248 c 128,-1,89
 3922 213 3922 213 3889.5 182 c 128,-1,90
 3857 151 3857 151 3798 127 c 128,-1,91
 3739 103 3739 103 3648 89 c 128,-1,64
 3557 75 3557 75 3424 75 c 128,-1,65
3475 955 m 1,92,-1
 3379 955 l 1,93,-1
 3379 290 l 1,94,-1
 3475 290 l 1,95,-1
 3475 955 l 1,92,-1
1916 1670 m 1,96,-1
 1515 -40 l 1,97,-1
 976 -40 l 1,98,-1
 1380 1670 l 1,99,-1
 1916 1670 l 1,96,-1
EndSplineSet
Validated: 16385
EndChar

StartChar: quoteleft
Encoding: 8216 8216 161
Width: 739
Flags: W
HStem: 1436 199<501.642 631>
VStem: 80 579<781 1264.68>
LayerCount: 2
Fore
SplineSet
631 1436 m 1,0,1
 569 1424 569 1424 521 1401 c 0,2,3
 500 1391 500 1391 480.5 1378.5 c 128,-1,4
 461 1366 461 1366 445.5 1349.5 c 128,-1,5
 430 1333 430 1333 420.5 1312.5 c 128,-1,6
 411 1292 411 1292 411 1268 c 1,7,-1
 659 1268 l 1,8,-1
 659 781 l 1,9,-1
 80 781 l 1,10,-1
 80 1118 l 2,11,12
 80 1270 80 1270 117.5 1369.5 c 128,-1,13
 155 1469 155 1469 226.5 1528 c 128,-1,14
 298 1587 298 1587 400 1611 c 128,-1,15
 502 1635 502 1635 631 1635 c 1,16,-1
 631 1436 l 1,0,1
EndSplineSet
Validated: 16385
EndChar

StartChar: quoteright
Encoding: 8217 8217 162
Width: 739
Flags: W
HStem: 749 199<108 237.358> 1583 20G<80 659>
VStem: 80 579<1119.32 1603>
LayerCount: 2
Fore
SplineSet
108 948 m 1,0,1
 170 960 170 960 218 983 c 0,2,3
 239 993 239 993 258.5 1005.5 c 128,-1,4
 278 1018 278 1018 293.5 1034.5 c 128,-1,5
 309 1051 309 1051 318.5 1071.5 c 128,-1,6
 328 1092 328 1092 328 1116 c 1,7,-1
 80 1116 l 1,8,-1
 80 1603 l 1,9,-1
 659 1603 l 1,10,-1
 659 1266 l 2,11,12
 659 1114 659 1114 621.5 1014.5 c 128,-1,13
 584 915 584 915 512.5 856 c 128,-1,14
 441 797 441 797 339 773 c 128,-1,15
 237 749 237 749 108 749 c 1,16,-1
 108 948 l 1,0,1
EndSplineSet
Validated: 16385
EndChar

StartChar: quotedblleft
Encoding: 8220 8220 163
Width: 1395
Flags: W
HStem: 781 487<411 659 1067 1315> 1436 199<501.642 631 1157.64 1287>
VStem: 80 579<781 1264.68> 736 579<781 1264.68>
LayerCount: 2
Fore
SplineSet
1287 1436 m 1,0,1
 1225 1424 1225 1424 1177 1401 c 0,2,3
 1156 1391 1156 1391 1136.5 1378.5 c 128,-1,4
 1117 1366 1117 1366 1101.5 1349.5 c 128,-1,5
 1086 1333 1086 1333 1076.5 1312.5 c 128,-1,6
 1067 1292 1067 1292 1067 1268 c 1,7,-1
 1315 1268 l 1,8,-1
 1315 781 l 1,9,-1
 736 781 l 1,10,-1
 736 1118 l 2,11,12
 736 1270 736 1270 773.5 1369.5 c 128,-1,13
 811 1469 811 1469 882.5 1528 c 128,-1,14
 954 1587 954 1587 1056 1611 c 128,-1,15
 1158 1635 1158 1635 1287 1635 c 1,16,-1
 1287 1436 l 1,0,1
631 1436 m 1,17,18
 569 1424 569 1424 521 1401 c 0,19,20
 500 1391 500 1391 480.5 1378.5 c 128,-1,21
 461 1366 461 1366 445.5 1349.5 c 128,-1,22
 430 1333 430 1333 420.5 1312.5 c 128,-1,23
 411 1292 411 1292 411 1268 c 1,24,-1
 659 1268 l 1,25,-1
 659 781 l 1,26,-1
 80 781 l 1,27,-1
 80 1118 l 2,28,29
 80 1270 80 1270 117.5 1369.5 c 128,-1,30
 155 1469 155 1469 226.5 1528 c 128,-1,31
 298 1587 298 1587 400 1611 c 128,-1,32
 502 1635 502 1635 631 1635 c 1,33,-1
 631 1436 l 1,17,18
EndSplineSet
Validated: 16385
EndChar

StartChar: quotedblright
Encoding: 8221 8221 164
Width: 1399
Flags: W
HStem: 749 199<108 237.358 768 897.358> 1116 487<80 328 740 988>
VStem: 80 579<1119.32 1603> 740 579<1119.32 1603>
LayerCount: 2
Fore
SplineSet
768 948 m 1,0,1
 830 960 830 960 878 983 c 0,2,3
 899 993 899 993 918.5 1005.5 c 128,-1,4
 938 1018 938 1018 953.5 1034.5 c 128,-1,5
 969 1051 969 1051 978.5 1071.5 c 128,-1,6
 988 1092 988 1092 988 1116 c 1,7,-1
 740 1116 l 1,8,-1
 740 1603 l 1,9,-1
 1319 1603 l 1,10,-1
 1319 1266 l 2,11,12
 1319 1114 1319 1114 1281.5 1014.5 c 128,-1,13
 1244 915 1244 915 1172.5 856 c 128,-1,14
 1101 797 1101 797 999 773 c 128,-1,15
 897 749 897 749 768 749 c 1,16,-1
 768 948 l 1,0,1
108 948 m 1,17,18
 170 960 170 960 218 983 c 0,19,20
 239 993 239 993 258.5 1005.5 c 128,-1,21
 278 1018 278 1018 293.5 1034.5 c 128,-1,22
 309 1051 309 1051 318.5 1071.5 c 128,-1,23
 328 1092 328 1092 328 1116 c 1,24,-1
 80 1116 l 1,25,-1
 80 1603 l 1,26,-1
 659 1603 l 1,27,-1
 659 1266 l 2,28,29
 659 1114 659 1114 621.5 1014.5 c 128,-1,30
 584 915 584 915 512.5 856 c 128,-1,31
 441 797 441 797 339 773 c 128,-1,32
 237 749 237 749 108 749 c 1,33,-1
 108 948 l 1,17,18
EndSplineSet
Validated: 16385
EndChar

StartChar: bullet
Encoding: 8226 8226 165
Width: 1164
Flags: W
VStem: 60 1044<429.646 1023.07>
LayerCount: 2
Fore
SplineSet
1104 726 m 128,-1,1
 1104 584 1104 584 1077.5 486 c 128,-1,2
 1051 388 1051 388 1008.5 325 c 128,-1,3
 966 262 966 262 911.5 227.5 c 128,-1,4
 857 193 857 193 800.5 177 c 128,-1,5
 744 161 744 161 691.5 158.5 c 128,-1,6
 639 156 639 156 599 156 c 0,7,8
 544 156 544 156 482 159 c 128,-1,9
 420 162 420 162 360.5 178 c 128,-1,10
 301 194 301 194 246.5 228.5 c 128,-1,11
 192 263 192 263 150.5 326.5 c 128,-1,12
 109 390 109 390 84.5 487 c 128,-1,13
 60 584 60 584 60 726 c 0,14,15
 60 867 60 867 84.5 964 c 128,-1,16
 109 1061 109 1061 150.5 1124 c 128,-1,17
 192 1187 192 1187 246.5 1221.5 c 128,-1,18
 301 1256 301 1256 360.5 1272 c 128,-1,19
 420 1288 420 1288 481.5 1291 c 128,-1,20
 543 1294 543 1294 599 1294 c 0,21,22
 639 1294 639 1294 691.5 1291.5 c 128,-1,23
 744 1289 744 1289 800.5 1273 c 128,-1,24
 857 1257 857 1257 911.5 1223 c 128,-1,25
 966 1189 966 1189 1008.5 1126 c 128,-1,26
 1051 1063 1051 1063 1077.5 965.5 c 128,-1,0
 1104 868 1104 868 1104 726 c 128,-1,1
EndSplineSet
Validated: 16385
EndChar

StartChar: endash
Encoding: 8211 8211 166
Width: 947
Flags: W
HStem: 461 436<30 917>
LayerCount: 2
Fore
SplineSet
917 897 m 1,0,-1
 917 461 l 1,1,-1
 30 461 l 1,2,-1
 30 897 l 1,3,-1
 917 897 l 1,0,-1
EndSplineSet
Validated: 16385
EndChar

StartChar: emdash
Encoding: 8212 8212 167
Width: 1852
Flags: W
HStem: 461 436<30 1823>
LayerCount: 2
Fore
SplineSet
1823 897 m 1,0,-1
 1823 461 l 1,1,-1
 30 461 l 1,2,-1
 30 897 l 1,3,-1
 1823 897 l 1,0,-1
EndSplineSet
Validated: 16385
EndChar

StartChar: tilde
Encoding: 732 732 168
Width: 1288
Flags: W
HStem: 70 443<305.752 501.273> 260 446<788.203 975.939>
LayerCount: 2
Fore
SplineSet
891 260 m 0,0,1
 862 260 862 260 836 246 c 128,-1,2
 810 232 810 232 782 211 c 2,3,-1
 719 165 l 2,4,5
 685 140 685 140 639.5 119 c 128,-1,6
 594 98 594 98 533 84 c 128,-1,7
 472 70 472 70 391 70 c 0,8,9
 286 70 286 70 205.5 96 c 128,-1,10
 125 122 125 122 70 190 c 128,-1,11
 15 258 15 258 -13 376.5 c 128,-1,12
 -41 495 -41 495 -41 681 c 1,13,-1
 274 681 l 1,14,15
 274 648 274 648 280 617.5 c 128,-1,16
 286 587 286 587 300.5 564 c 128,-1,17
 315 541 315 541 337.5 527 c 128,-1,18
 360 513 360 513 393 513 c 0,19,20
 422 513 422 513 450 527.5 c 128,-1,21
 478 542 478 542 509 563 c 2,22,-1
 576 610 l 2,23,24
 612 636 612 636 657.5 656.5 c 128,-1,25
 703 677 703 677 760.5 691.5 c 128,-1,26
 818 706 818 706 891 706 c 0,27,28
 996 706 996 706 1076.5 680.5 c 128,-1,29
 1157 655 1157 655 1212 587 c 128,-1,30
 1267 519 1267 519 1295 400.5 c 128,-1,31
 1323 282 1323 282 1323 96 c 1,32,-1
 1008 96 l 1,33,34
 1008 124 1008 124 1002 153 c 128,-1,35
 996 182 996 182 982.5 206 c 128,-1,36
 969 230 969 230 946.5 245 c 128,-1,37
 924 260 924 260 891 260 c 0,0,1
EndSplineSet
Validated: 16385
EndChar

StartChar: trademark
Encoding: 8482 8482 169
Width: 1968
Flags: W
HStem: 657 938<212 609 829 1223 1501 1895> 1453 142<40 212 609 782>
VStem: 212 397<657 1453> 829 394<657 951> 1501 394<657 951>
LayerCount: 2
Fore
SplineSet
1307 657 m 1,0,-1
 1223 951 l 1,1,-1
 1223 657 l 1,2,-1
 829 657 l 1,3,-1
 829 1595 l 1,4,-1
 1291 1595 l 1,5,-1
 1363 1158 l 1,6,-1
 1427 1595 l 1,7,-1
 1895 1595 l 1,8,-1
 1895 657 l 1,9,-1
 1501 657 l 1,10,-1
 1501 951 l 1,11,-1
 1417 657 l 1,12,-1
 1307 657 l 1,0,-1
782 1595 m 1,13,-1
 782 1453 l 1,14,-1
 609 1453 l 1,15,-1
 609 657 l 1,16,-1
 212 657 l 1,17,-1
 212 1453 l 1,18,-1
 40 1453 l 1,19,-1
 40 1595 l 1,20,-1
 782 1595 l 1,13,-1
EndSplineSet
Validated: 16385
EndChar

StartChar: guilsinglright
Encoding: 8250 8250 171
Width: 1052
Flags: W
HStem: 0 21G<60 98.1186> 1577 20G<60 97.3547>
LayerCount: 2
Fore
SplineSet
992 489 m 1,0,-1
 60 0 l 1,1,-1
 60 504 l 1,2,-1
 699 797 l 1,3,-1
 60 1092 l 1,4,-1
 60 1597 l 1,5,-1
 992 1098 l 1,6,-1
 992 489 l 1,0,-1
EndSplineSet
Validated: 16385
EndChar

StartChar: cent
Encoding: 162 162 175
Width: 1456
Flags: W
HStem: 1689 20G<474 980>
VStem: 59 607<319.125 1156.58> 474 506<-304 85.0601 1390.94 1709> 786 611<319.875 645 866 1156.25>
LayerCount: 2
Fore
SplineSet
474 79 m 1,0,1
 396 89 396 89 337 104.5 c 128,-1,2
 278 120 278 120 234.5 140.5 c 128,-1,3
 191 161 191 161 160.5 185 c 128,-1,4
 130 209 130 209 111 236 c 0,5,6
 91 263 91 263 80.5 291 c 128,-1,7
 70 319 70 319 65.5 347.5 c 128,-1,8
 61 376 61 376 60 403.5 c 128,-1,9
 59 431 59 431 59 457 c 2,10,-1
 59 1022 l 2,11,12
 59 1055 59 1055 61 1092.5 c 128,-1,13
 63 1130 63 1130 74.5 1167 c 128,-1,14
 86 1204 86 1204 111 1240 c 128,-1,15
 136 1276 136 1276 182 1306.5 c 128,-1,16
 228 1337 228 1337 299 1360.5 c 128,-1,17
 370 1384 370 1384 474 1397 c 1,18,-1
 474 1709 l 1,19,-1
 980 1709 l 1,20,-1
 980 1397 l 1,21,22
 1058 1387 1058 1387 1117.5 1371.5 c 128,-1,23
 1177 1356 1177 1356 1221 1335.5 c 128,-1,24
 1265 1315 1265 1315 1295 1291 c 128,-1,25
 1325 1267 1325 1267 1345 1241 c 1,26,27
 1364 1214 1364 1214 1375 1186 c 128,-1,28
 1386 1158 1386 1158 1390.5 1130 c 128,-1,29
 1395 1102 1395 1102 1396 1074.5 c 128,-1,30
 1397 1047 1397 1047 1397 1022 c 2,31,-1
 1395 866 l 1,32,-1
 786 866 l 1,33,-1
 786 1157 l 1,34,-1
 666 1157 l 1,35,-1
 666 319 l 1,36,-1
 786 319 l 1,37,-1
 786 645 l 1,38,-1
 1397 645 l 1,39,-1
 1397 457 l 2,40,41
 1397 423 1397 423 1395 385.5 c 128,-1,42
 1393 348 1393 348 1381.5 310.5 c 128,-1,43
 1370 273 1370 273 1345 237 c 128,-1,44
 1320 201 1320 201 1273.5 170 c 128,-1,45
 1227 139 1227 139 1155.5 115.5 c 128,-1,46
 1084 92 1084 92 980 79 c 1,47,-1
 980 -304 l 1,48,-1
 474 -304 l 1,49,-1
 474 79 l 1,0,1
EndSplineSet
Validated: 16385
EndChar

StartChar: sterling
Encoding: 163 163 176
Width: 1607
Flags: W
HStem: 0 268<30 168.566> 718 222<30 198 823 1277> 1364 268<825.625 934.833>
VStem: 198 625<301.737 718 940 1362.53>
LayerCount: 2
Fore
SplineSet
1277 718 m 1,0,-1
 823 718 l 1,1,-1
 823 268 l 1,2,-1
 959 268 l 1,3,-1
 959 562 l 1,4,-1
 1577 562 l 1,5,-1
 1577 385 l 2,6,7
 1577 345 1577 345 1574.5 301 c 128,-1,8
 1572 257 1572 257 1559 214 c 128,-1,9
 1546 171 1546 171 1518.5 132.5 c 128,-1,10
 1491 94 1491 94 1440 64.5 c 128,-1,11
 1389 35 1389 35 1311 17.5 c 128,-1,12
 1233 0 1233 0 1119 0 c 0,13,14
 1033 0 1033 0 976 14.5 c 128,-1,15
 919 29 919 29 882 49 c 128,-1,16
 845 69 845 69 822.5 91.5 c 128,-1,17
 800 114 800 114 782 130 c 1,18,19
 750 98 750 98 720.5 75.5 c 128,-1,20
 691 53 691 53 654 38.5 c 128,-1,21
 617 24 617 24 567.5 16 c 128,-1,22
 518 8 518 8 445 4.5 c 128,-1,23
 372 1 372 1 271 0.5 c 128,-1,24
 170 0 170 0 30 0 c 1,25,-1
 30 265 l 1,26,27
 77 270 77 270 114 283 c 0,28,29
 130 289 130 289 145 297 c 128,-1,30
 160 305 160 305 172 316 c 128,-1,31
 184 327 184 327 191 341.5 c 128,-1,32
 198 356 198 356 198 375 c 2,33,-1
 198 718 l 1,34,-1
 30 718 l 1,35,-1
 30 940 l 1,36,-1
 198 940 l 1,37,-1
 198 1064 l 2,38,39
 198 1172 198 1172 207 1256.5 c 128,-1,40
 216 1341 216 1341 242.5 1404 c 128,-1,41
 269 1467 269 1467 317.5 1510.5 c 128,-1,42
 366 1554 366 1554 444 1581 c 128,-1,43
 522 1608 522 1608 634 1620 c 128,-1,44
 746 1632 746 1632 900 1632 c 0,45,46
 1062 1632 1062 1632 1173.5 1614.5 c 128,-1,47
 1285 1597 1285 1597 1357.5 1567.5 c 128,-1,48
 1430 1538 1430 1538 1470 1499.5 c 128,-1,49
 1510 1461 1510 1461 1529 1418 c 128,-1,50
 1548 1375 1548 1375 1551.5 1331 c 128,-1,51
 1555 1287 1555 1287 1555 1247 c 2,52,-1
 1555 1070 l 1,53,-1
 937 1070 l 1,54,-1
 937 1364 l 1,55,-1
 823 1364 l 1,56,-1
 823 940 l 1,57,-1
 1277 940 l 1,58,-1
 1277 718 l 1,0,-1
EndSplineSet
Validated: 16385
EndChar

StartChar: currency
Encoding: 164 164 177
Width: 1456
Flags: W
HStem: 299 270<668.784 784.812> 1069 274<669.461 783.469>
VStem: 59 607<570.014 1067.51> 786 608<569.959 1067.59>
LayerCount: 2
Fore
SplineSet
666 569 m 1,0,-1
 786 569 l 1,1,-1
 786 1069 l 1,2,-1
 666 1069 l 1,3,-1
 666 569 l 1,0,-1
332 1286 m 1,4,5
 404 1312 404 1312 501 1327.5 c 128,-1,6
 598 1343 598 1343 729 1343 c 0,7,8
 857 1343 857 1343 953 1328 c 128,-1,9
 1049 1313 1049 1313 1121 1287 c 1,10,-1
 1245 1414 l 1,11,-1
 1330 1330 l 1,12,-1
 1233 1231 l 1,13,14
 1294 1189 1294 1189 1327.5 1136.5 c 128,-1,15
 1361 1084 1361 1084 1376.5 1027.5 c 128,-1,16
 1392 971 1392 971 1394.5 913.5 c 128,-1,17
 1397 856 1397 856 1397 804 c 0,18,19
 1397 765 1397 765 1394 712.5 c 128,-1,20
 1391 660 1391 660 1373 604.5 c 128,-1,21
 1355 549 1355 549 1316 495 c 128,-1,22
 1277 441 1277 441 1205 398 c 1,23,-1
 1330 272 l 1,24,-1
 1245 188 l 1,25,-1
 1089 346 l 1,26,27
 1020 324 1020 324 932 311.5 c 128,-1,28
 844 299 844 299 729 299 c 0,29,30
 612 299 612 299 522.5 312 c 128,-1,31
 433 325 433 325 364 348 c 1,32,-1
 207 188 l 1,33,-1
 122 272 l 1,34,-1
 248 400 l 1,35,36
 177 443 177 443 138.5 497 c 128,-1,37
 100 551 100 551 82.5 606 c 128,-1,38
 65 661 65 661 62 713 c 128,-1,39
 59 765 59 765 59 804 c 0,40,41
 59 856 59 856 61.5 913 c 128,-1,42
 64 970 64 970 79 1026 c 128,-1,43
 94 1082 94 1082 127 1134.5 c 128,-1,44
 160 1187 160 1187 220 1229 c 1,45,-1
 122 1330 l 1,46,-1
 207 1414 l 1,47,-1
 332 1286 l 1,4,5
EndSplineSet
Validated: 16385
EndChar

StartChar: yen
Encoding: 165 165 178
Width: 1460
Flags: W
HStem: 0 21G<391 1065> 299 143<40 391 1065 1421> 585 143<40 281 1179 1421> 1575 20G<-74 535.997 923.82 1534>
LayerCount: 2
Fore
SplineSet
391 442 m 1,0,-1
 391 459 l 1,1,-1
 339 585 l 1,2,-1
 40 585 l 1,3,-1
 40 728 l 1,4,-1
 281 728 l 1,5,-1
 -74 1595 l 1,6,-1
 530 1595 l 1,7,-1
 727 938 l 1,8,-1
 930 1595 l 1,9,-1
 1534 1595 l 1,10,-1
 1179 728 l 1,11,-1
 1421 728 l 1,12,-1
 1421 585 l 1,13,-1
 1120 585 l 1,14,-1
 1065 449 l 1,15,-1
 1065 442 l 1,16,-1
 1421 442 l 1,17,-1
 1421 299 l 1,18,-1
 1065 299 l 1,19,-1
 1065 0 l 1,20,-1
 391 0 l 1,21,-1
 391 299 l 1,22,-1
 40 299 l 1,23,-1
 40 442 l 1,24,-1
 391 442 l 1,0,-1
EndSplineSet
Validated: 16385
EndChar

StartChar: brokenbar
Encoding: 166 166 179
Width: 844
Flags: W
HStem: -255 911<84 760> 797 911<84 760>
VStem: 84 676<-255 656 797 1708>
LayerCount: 2
Fore
SplineSet
760 1708 m 1,0,-1
 760 797 l 1,1,-1
 84 797 l 1,2,-1
 84 1708 l 1,3,-1
 760 1708 l 1,0,-1
760 656 m 1,4,-1
 760 -255 l 1,5,-1
 84 -255 l 1,6,-1
 84 656 l 1,7,-1
 760 656 l 1,4,-1
EndSplineSet
Validated: 16385
EndChar

StartChar: section
Encoding: 167 167 180
Width: 1342
Flags: W
VStem: 37 588<235.195 426 751.625 949.102> 703 604<235.184 492.823>
LayerCount: 2
Fore
SplineSet
712 750 m 1,0,-1
 712 973 l 1,1,-1
 638 973 l 1,2,-1
 638 750 l 1,3,-1
 712 750 l 1,0,-1
43 1331 m 0,4,5
 43 1395 43 1395 50 1452.5 c 128,-1,6
 57 1510 57 1510 80.5 1559 c 128,-1,7
 104 1608 104 1608 147.5 1647.5 c 128,-1,8
 191 1687 191 1687 263.5 1714.5 c 128,-1,9
 336 1742 336 1742 442 1757 c 128,-1,10
 548 1772 548 1772 696 1772 c 0,11,12
 840 1772 840 1772 941.5 1759.5 c 128,-1,13
 1043 1747 1043 1747 1112 1724 c 128,-1,14
 1181 1701 1181 1701 1220.5 1668.5 c 128,-1,15
 1260 1636 1260 1636 1281 1596 c 128,-1,16
 1302 1556 1302 1556 1307.5 1509.5 c 128,-1,17
 1313 1463 1313 1463 1313 1412 c 0,18,19
 1313 1386 1313 1386 1312.5 1360 c 128,-1,20
 1312 1334 1312 1334 1312 1307 c 1,21,-1
 725 1307 l 1,22,-1
 725 1498 l 1,23,-1
 647 1498 l 1,24,-1
 647 1249 l 1,25,26
 656 1240 656 1240 690 1237 c 128,-1,27
 724 1234 724 1234 774 1232 c 2,28,-1
 883 1228 l 2,29,30
 943 1226 943 1226 1004.5 1216.5 c 128,-1,31
 1066 1207 1066 1207 1123.5 1189.5 c 128,-1,32
 1181 1172 1181 1172 1226 1141.5 c 128,-1,33
 1271 1111 1271 1111 1298 1064 c 128,-1,34
 1325 1017 1325 1017 1325 950 c 0,35,36
 1325 895 1325 895 1309 854.5 c 128,-1,37
 1293 814 1293 814 1269 784.5 c 128,-1,38
 1245 755 1245 755 1216.5 736.5 c 128,-1,39
 1188 718 1188 718 1162.5 707 c 128,-1,40
 1137 696 1137 696 1119.5 691 c 128,-1,41
 1102 686 1102 686 1099 686 c 1,42,43
 1101 685 1101 685 1117.5 679.5 c 128,-1,44
 1134 674 1134 674 1157 661.5 c 128,-1,45
 1180 649 1180 649 1206.5 628 c 128,-1,46
 1233 607 1233 607 1255.5 575.5 c 128,-1,47
 1278 544 1278 544 1292.5 501 c 128,-1,48
 1307 458 1307 458 1307 402 c 0,49,50
 1307 338 1307 338 1300 280.5 c 128,-1,51
 1293 223 1293 223 1269.5 174 c 128,-1,52
 1246 125 1246 125 1202.5 85.5 c 128,-1,53
 1159 46 1159 46 1086.5 18.5 c 128,-1,54
 1014 -9 1014 -9 908 -24 c 128,-1,55
 802 -39 802 -39 654 -39 c 0,56,57
 510 -39 510 -39 408.5 -26.5 c 128,-1,58
 307 -14 307 -14 238 9 c 128,-1,59
 169 32 169 32 129.5 64.5 c 128,-1,60
 90 97 90 97 69 137 c 128,-1,61
 48 177 48 177 42.5 223.5 c 128,-1,62
 37 270 37 270 37 321 c 0,63,64
 37 347 37 347 37.5 373 c 128,-1,65
 38 399 38 399 38 426 c 1,66,-1
 625 426 l 1,67,-1
 625 235 l 1,68,-1
 703 235 l 1,69,-1
 703 484 l 1,70,71
 694 493 694 493 653 493 c 0,72,73
 615 493 615 493 556.5 488.5 c 128,-1,74
 498 484 498 484 431 484 c 0,75,76
 384 484 384 484 335.5 488 c 128,-1,77
 287 492 287 492 242 504 c 128,-1,78
 197 516 197 516 157.5 537 c 128,-1,79
 118 558 118 558 88.5 591 c 128,-1,80
 59 624 59 624 42 671 c 128,-1,81
 25 718 25 718 25 783 c 0,82,83
 25 834 25 834 39.5 873.5 c 128,-1,84
 54 913 54 913 76 942 c 128,-1,85
 98 971 98 971 123.5 990.5 c 128,-1,86
 149 1010 149 1010 172 1022 c 128,-1,87
 195 1034 195 1034 211 1039.5 c 128,-1,88
 227 1045 227 1045 229 1046 c 1,89,90
 227 1047 227 1047 212 1053.5 c 128,-1,91
 197 1060 197 1060 176.5 1074 c 128,-1,92
 156 1088 156 1088 132.5 1109.5 c 128,-1,93
 109 1131 109 1131 89 1162.5 c 128,-1,94
 69 1194 69 1194 56 1235.5 c 128,-1,95
 43 1277 43 1277 43 1331 c 0,4,5
EndSplineSet
Validated: 16385
EndChar

StartChar: dieresis
Encoding: 168 168 181
Width: 774
Flags: W
HStem: 82 336<-209 270 518 997>
VStem: -209 479<82 418> 518 479<82 418>
LayerCount: 2
Fore
SplineSet
997 418 m 1,0,-1
 997 82 l 1,1,-1
 518 82 l 1,2,-1
 518 418 l 1,3,-1
 997 418 l 1,0,-1
270 418 m 1,4,-1
 270 82 l 1,5,-1
 -209 82 l 1,6,-1
 -209 418 l 1,7,-1
 270 418 l 1,4,-1
EndSplineSet
Validated: 16385
EndChar

StartChar: copyright
Encoding: 169 169 182
Width: 1944
Flags: W
HStem: -102 171<603.507 1340.49> 215 160<914.473 993.979> 1274 160<914.473 993.979> 1573 176<601.337 1342.66>
VStem: 69 254<278.814 1365.11> 498 414<375.133 1273.86> 996 412<375.399 752 915 1273.92> 1620 255<278.814 1365.11>
LayerCount: 2
Fore
SplineSet
912 375 m 1,0,-1
 996 375 l 1,1,-1
 996 752 l 1,2,-1
 1408 752 l 1,3,-1
 1408 485 l 2,4,5
 1408 458 1408 458 1406 427 c 128,-1,6
 1404 396 1404 396 1391 366 c 128,-1,7
 1378 336 1378 336 1350 308.5 c 128,-1,8
 1322 281 1322 281 1270.5 260.5 c 128,-1,9
 1219 240 1219 240 1140 227.5 c 128,-1,10
 1061 215 1061 215 945 215 c 0,11,12
 834 215 834 215 758 227.5 c 128,-1,13
 682 240 682 240 632.5 261 c 128,-1,14
 583 282 583 282 555.5 309.5 c 128,-1,15
 528 337 528 337 515.5 367.5 c 128,-1,16
 503 398 503 398 500.5 429 c 128,-1,17
 498 460 498 460 498 489 c 2,18,-1
 498 1159 l 2,19,20
 498 1188 498 1188 500.5 1219.5 c 128,-1,21
 503 1251 503 1251 515.5 1281.5 c 128,-1,22
 528 1312 528 1312 555.5 1339.5 c 128,-1,23
 583 1367 583 1367 632.5 1388 c 128,-1,24
 682 1409 682 1409 758 1421.5 c 128,-1,25
 834 1434 834 1434 945 1434 c 0,26,27
 1061 1434 1061 1434 1140 1421.5 c 128,-1,28
 1219 1409 1219 1409 1270.5 1388.5 c 128,-1,29
 1322 1368 1322 1368 1350 1340.5 c 128,-1,30
 1378 1313 1378 1313 1391 1282.5 c 128,-1,31
 1404 1252 1404 1252 1406 1221.5 c 128,-1,32
 1408 1191 1408 1191 1408 1163 c 2,33,-1
 1408 915 l 1,34,-1
 996 915 l 1,35,-1
 996 1274 l 1,36,-1
 912 1274 l 1,37,-1
 912 375 l 1,0,-1
972 69 m 128,-1,39
 1126 69 1126 69 1234 88.5 c 128,-1,40
 1342 108 1342 108 1414 140.5 c 128,-1,41
 1486 173 1486 173 1527 215.5 c 128,-1,42
 1568 258 1568 258 1589 304 c 128,-1,43
 1610 350 1610 350 1615 396 c 128,-1,44
 1620 442 1620 442 1620 482 c 2,45,-1
 1620 1165 l 2,46,47
 1620 1205 1620 1205 1615 1250.5 c 128,-1,48
 1610 1296 1610 1296 1589 1341 c 128,-1,49
 1568 1386 1568 1386 1527 1428 c 128,-1,50
 1486 1470 1486 1470 1414 1502.5 c 128,-1,51
 1342 1535 1342 1535 1234 1554 c 128,-1,52
 1126 1573 1126 1573 972 1573 c 128,-1,53
 818 1573 818 1573 710 1554 c 128,-1,54
 602 1535 602 1535 530 1502.5 c 128,-1,55
 458 1470 458 1470 416.5 1428 c 128,-1,56
 375 1386 375 1386 354.5 1341 c 128,-1,57
 334 1296 334 1296 328.5 1250 c 128,-1,58
 323 1204 323 1204 323 1165 c 0,59,60
 323 1151 323 1151 323.5 1138 c 128,-1,61
 324 1125 324 1125 324 1113 c 2,62,-1
 324 534 l 2,63,64
 324 522 324 522 323 509 c 128,-1,65
 322 496 322 496 323 482 c 0,66,67
 323 442 323 442 328.5 396 c 128,-1,68
 334 350 334 350 354.5 304 c 128,-1,69
 375 258 375 258 416.5 215.5 c 128,-1,70
 458 173 458 173 530 140.5 c 128,-1,71
 602 108 602 108 710 88.5 c 128,-1,38
 818 69 818 69 972 69 c 128,-1,39
972 -102 m 128,-1,73
 801 -102 801 -102 671 -81.5 c 128,-1,74
 541 -61 541 -61 445.5 -26.5 c 128,-1,75
 350 8 350 8 285 54 c 128,-1,76
 220 100 220 100 178 152 c 128,-1,77
 136 204 136 204 114 258.5 c 128,-1,78
 92 313 92 313 82 364 c 128,-1,79
 72 415 72 415 70.5 460.5 c 128,-1,80
 69 506 69 506 69 539 c 2,81,-1
 69 1116 l 2,82,83
 69 1160 69 1160 72.5 1224 c 128,-1,84
 76 1288 76 1288 100 1358.5 c 128,-1,85
 124 1429 124 1429 178 1498.5 c 128,-1,86
 232 1568 232 1568 332 1624 c 128,-1,87
 432 1680 432 1680 588 1714.5 c 128,-1,88
 744 1749 744 1749 972 1749 c 128,-1,89
 1200 1749 1200 1749 1356 1714.5 c 128,-1,90
 1512 1680 1512 1680 1612 1624 c 128,-1,91
 1712 1568 1712 1568 1766 1498.5 c 128,-1,92
 1820 1429 1820 1429 1844 1358.5 c 128,-1,93
 1868 1288 1868 1288 1871.5 1224 c 128,-1,94
 1875 1160 1875 1160 1875 1116 c 2,95,-1
 1875 539 l 2,96,97
 1875 506 1875 506 1873.5 460.5 c 128,-1,98
 1872 415 1872 415 1862 364 c 128,-1,99
 1852 313 1852 313 1830 258.5 c 128,-1,100
 1808 204 1808 204 1766 152 c 128,-1,101
 1724 100 1724 100 1659 54 c 128,-1,102
 1594 8 1594 8 1498.5 -26.5 c 128,-1,103
 1403 -61 1403 -61 1273 -81.5 c 128,-1,72
 1143 -102 1143 -102 972 -102 c 128,-1,73
EndSplineSet
Validated: 16385
EndChar

StartChar: guillemotleft
Encoding: 171 171 184
Width: 1872
Flags: W
HStem: 0 21G<857.971 892 1777.97 1812> 1577 20G<858.653 892 1778.65 1812>
LayerCount: 2
Fore
SplineSet
980 1098 m 1,0,-1
 1812 1597 l 1,1,-1
 1812 1092 l 1,2,-1
 1273 797 l 1,3,-1
 1812 504 l 1,4,-1
 1812 0 l 1,5,-1
 980 489 l 1,6,-1
 980 1098 l 1,0,-1
60 1098 m 1,7,-1
 892 1597 l 1,8,-1
 892 1092 l 1,9,-1
 353 797 l 1,10,-1
 892 504 l 1,11,-1
 892 0 l 1,12,-1
 60 489 l 1,13,-1
 60 1098 l 1,7,-1
EndSplineSet
Validated: 16385
EndChar

StartChar: logicalnot
Encoding: 172 172 185
Width: 1165
Flags: W
HStem: 641 676<0 922>
VStem: 922 244<278 641>
LayerCount: 2
Fore
SplineSet
1166 278 m 1,0,-1
 922 278 l 1,1,-1
 922 641 l 1,2,-1
 0 641 l 1,3,-1
 0 1317 l 1,4,-1
 1166 1317 l 1,5,-1
 1166 278 l 1,0,-1
EndSplineSet
Validated: 16385
EndChar

StartChar: minus
Encoding: 8722 8722 186
Width: 947
Flags: W
HStem: 461 436<30 917>
LayerCount: 2
Fore
SplineSet
917 897 m 1,0,-1
 917 461 l 1,1,-1
 30 461 l 1,2,-1
 30 897 l 1,3,-1
 917 897 l 1,0,-1
EndSplineSet
Validated: 16385
EndChar

StartChar: registered
Encoding: 174 174 187
Width: 1944
Flags: W
HStem: -102 171<603.507 1340.49> 756 159<933 1021> 1274 160<933 1018.34> 1573 176<601.337 1342.66>
VStem: 69 254<278.814 1365.11> 519 414<279 756 915 1274> 1021 426<279 755.633> 1021 408<915.373 1273.92> 1620 255<278.814 1365.11>
LayerCount: 2
Fore
SplineSet
972 69 m 128,-1,1
 1126 69 1126 69 1234 88.5 c 128,-1,2
 1342 108 1342 108 1414 140.5 c 128,-1,3
 1486 173 1486 173 1527 215.5 c 128,-1,4
 1568 258 1568 258 1589 304 c 128,-1,5
 1610 350 1610 350 1615 396 c 128,-1,6
 1620 442 1620 442 1620 482 c 2,7,-1
 1620 1165 l 2,8,9
 1620 1205 1620 1205 1615 1250.5 c 128,-1,10
 1610 1296 1610 1296 1589 1341 c 128,-1,11
 1568 1386 1568 1386 1527 1428 c 128,-1,12
 1486 1470 1486 1470 1414 1502.5 c 128,-1,13
 1342 1535 1342 1535 1234 1554 c 128,-1,14
 1126 1573 1126 1573 972 1573 c 128,-1,15
 818 1573 818 1573 710 1554 c 128,-1,16
 602 1535 602 1535 530 1502.5 c 128,-1,17
 458 1470 458 1470 416.5 1428 c 128,-1,18
 375 1386 375 1386 354.5 1341 c 128,-1,19
 334 1296 334 1296 328.5 1250 c 128,-1,20
 323 1204 323 1204 323 1165 c 0,21,22
 323 1151 323 1151 323.5 1138 c 128,-1,23
 324 1125 324 1125 324 1113 c 2,24,-1
 324 534 l 2,25,26
 324 522 324 522 323 509 c 128,-1,27
 322 496 322 496 323 482 c 0,28,29
 323 442 323 442 328.5 396 c 128,-1,30
 334 350 334 350 354.5 304 c 128,-1,31
 375 258 375 258 416.5 215.5 c 128,-1,32
 458 173 458 173 530 140.5 c 128,-1,33
 602 108 602 108 710 88.5 c 128,-1,0
 818 69 818 69 972 69 c 128,-1,1
933 915 m 1,34,-1
 1021 915 l 1,35,-1
 1021 1274 l 1,36,-1
 933 1274 l 1,37,-1
 933 915 l 1,34,-1
1021 756 m 1,38,-1
 933 756 l 1,39,-1
 933 279 l 1,40,-1
 519 279 l 1,41,-1
 519 1434 l 1,42,-1
 966 1434 l 2,43,44
 1082 1434 1082 1434 1161 1421.5 c 128,-1,45
 1240 1409 1240 1409 1291.5 1388.5 c 128,-1,46
 1343 1368 1343 1368 1371 1340.5 c 128,-1,47
 1399 1313 1399 1313 1412 1282.5 c 128,-1,48
 1425 1252 1425 1252 1427 1221.5 c 128,-1,49
 1429 1191 1429 1191 1429 1163 c 2,50,-1
 1429 1010 l 2,51,52
 1429 963 1429 963 1412.5 933 c 128,-1,53
 1396 903 1396 903 1371 884.5 c 128,-1,54
 1346 866 1346 866 1317 856.5 c 128,-1,55
 1288 847 1288 847 1263 842 c 1,56,57
 1291 839 1291 839 1323 829 c 128,-1,58
 1355 819 1355 819 1382 796.5 c 128,-1,59
 1409 774 1409 774 1427 737 c 0,60,61
 1445 701 1445 701 1445 643 c 2,62,-1
 1447 279 l 1,63,-1
 1021 279 l 1,64,-1
 1021 756 l 1,38,-1
972 -102 m 128,-1,66
 801 -102 801 -102 671 -81.5 c 128,-1,67
 541 -61 541 -61 445.5 -26.5 c 128,-1,68
 350 8 350 8 285 54 c 128,-1,69
 220 100 220 100 178 152 c 128,-1,70
 136 204 136 204 114 258.5 c 128,-1,71
 92 313 92 313 82 364 c 128,-1,72
 72 415 72 415 70.5 460.5 c 128,-1,73
 69 506 69 506 69 539 c 2,74,-1
 69 1116 l 2,75,76
 69 1160 69 1160 72.5 1224 c 128,-1,77
 76 1288 76 1288 100 1358.5 c 128,-1,78
 124 1429 124 1429 178 1498.5 c 128,-1,79
 232 1568 232 1568 332 1624 c 128,-1,80
 432 1680 432 1680 588 1714.5 c 128,-1,81
 744 1749 744 1749 972 1749 c 128,-1,82
 1200 1749 1200 1749 1356 1714.5 c 128,-1,83
 1512 1680 1512 1680 1612 1624 c 128,-1,84
 1712 1568 1712 1568 1766 1498.5 c 128,-1,85
 1820 1429 1820 1429 1844 1358.5 c 128,-1,86
 1868 1288 1868 1288 1871.5 1224 c 128,-1,87
 1875 1160 1875 1160 1875 1116 c 2,88,-1
 1875 539 l 2,89,90
 1875 506 1875 506 1873.5 460.5 c 128,-1,91
 1872 415 1872 415 1862 364 c 128,-1,92
 1852 313 1852 313 1830 258.5 c 128,-1,93
 1808 204 1808 204 1766 152 c 128,-1,94
 1724 100 1724 100 1659 54 c 128,-1,95
 1594 8 1594 8 1498.5 -26.5 c 128,-1,96
 1403 -61 1403 -61 1273 -81.5 c 128,-1,65
 1143 -102 1143 -102 972 -102 c 128,-1,66
EndSplineSet
Validated: 16385
EndChar

StartChar: macron
Encoding: 175 175 188
Width: 774
Flags: W
HStem: 82 336<-147 940>
LayerCount: 2
Fore
SplineSet
940 418 m 1,0,-1
 940 82 l 1,1,-1
 -147 82 l 1,2,-1
 -147 418 l 1,3,-1
 940 418 l 1,0,-1
EndSplineSet
Validated: 16385
EndChar

StartChar: degree
Encoding: 176 176 189
Width: 774
Flags: W
HStem: 1030 213<293.774 487.291> 1501 211<293.271 487.797>
VStem: 53 209<1274.77 1470.33> 520 215<1276.28 1468.81>
LayerCount: 2
Fore
SplineSet
262 1372 m 0,0,1
 262 1346 262 1346 272 1322.5 c 128,-1,2
 282 1299 282 1299 299.5 1281.5 c 128,-1,3
 317 1264 317 1264 340.5 1253.5 c 128,-1,4
 364 1243 364 1243 391 1243 c 0,5,6
 417 1243 417 1243 440.5 1253.5 c 128,-1,7
 464 1264 464 1264 481.5 1281.5 c 128,-1,8
 499 1299 499 1299 509.5 1322.5 c 128,-1,9
 520 1346 520 1346 520 1372 c 0,10,11
 520 1399 520 1399 509.5 1422.5 c 128,-1,12
 499 1446 499 1446 481.5 1463.5 c 128,-1,13
 464 1481 464 1481 440.5 1491 c 128,-1,14
 417 1501 417 1501 391 1501 c 0,15,16
 364 1501 364 1501 340.5 1491 c 128,-1,17
 317 1481 317 1481 299.5 1463.5 c 128,-1,18
 282 1446 282 1446 272 1422.5 c 128,-1,19
 262 1399 262 1399 262 1372 c 0,0,1
53 1370 m 0,20,21
 53 1442 53 1442 79.5 1504 c 128,-1,22
 106 1566 106 1566 152.5 1612.5 c 128,-1,23
 199 1659 199 1659 260.5 1685.5 c 128,-1,24
 322 1712 322 1712 393 1712 c 0,25,26
 465 1712 465 1712 527 1685.5 c 128,-1,27
 589 1659 589 1659 635.5 1612.5 c 128,-1,28
 682 1566 682 1566 708.5 1504 c 128,-1,29
 735 1442 735 1442 735 1370 c 0,30,31
 735 1299 735 1299 708.5 1237.5 c 128,-1,32
 682 1176 682 1176 635.5 1129.5 c 128,-1,33
 589 1083 589 1083 527 1056.5 c 128,-1,34
 465 1030 465 1030 393 1030 c 0,35,36
 322 1030 322 1030 260.5 1056.5 c 128,-1,37
 199 1083 199 1083 152.5 1129.5 c 128,-1,38
 106 1176 106 1176 79.5 1237.5 c 128,-1,39
 53 1299 53 1299 53 1370 c 0,20,21
EndSplineSet
Validated: 16385
EndChar

StartChar: plusminus
Encoding: 177 177 190
Width: 1339
Flags: W
HStem: -1 436<220 1107> 911 483<41 408 932 1298>
VStem: 408 524<503 911 1394 1801>
LayerCount: 2
Fore
SplineSet
1107 435 m 1,0,-1
 1107 -1 l 1,1,-1
 220 -1 l 1,2,-1
 220 435 l 1,3,-1
 1107 435 l 1,0,-1
408 1394 m 1,4,-1
 408 1801 l 1,5,-1
 932 1801 l 1,6,-1
 932 1394 l 1,7,-1
 1298 1394 l 1,8,-1
 1298 911 l 1,9,-1
 932 911 l 1,10,-1
 932 503 l 1,11,-1
 408 503 l 1,12,-1
 408 911 l 1,13,-1
 41 911 l 1,14,-1
 41 1394 l 1,15,-1
 408 1394 l 1,4,-1
EndSplineSet
Validated: 16385
EndChar

StartChar: twosuperior
Encoding: 178 178 191
Width: 1092
Flags: W
HStem: 0 240<521 1060> 1086 220<521.44 617.603>
VStem: 50 471<240 343.609 851 1085.04> 619 491<810.383 1085.16>
LayerCount: 2
Fore
SplineSet
50 851 m 1,0,1
 50 902 50 902 53 948.5 c 128,-1,2
 56 995 56 995 64.5 1036.5 c 128,-1,3
 73 1078 73 1078 89 1114 c 128,-1,4
 105 1150 105 1150 131 1180 c 0,5,6
 158 1210 158 1210 196.5 1233.5 c 128,-1,7
 235 1257 235 1257 288 1273 c 128,-1,8
 341 1289 341 1289 411 1297.5 c 128,-1,9
 481 1306 481 1306 570 1306 c 0,10,11
 744 1306 744 1306 850.5 1276 c 128,-1,12
 957 1246 957 1246 1014.5 1191 c 128,-1,13
 1072 1136 1072 1136 1091 1059.5 c 128,-1,14
 1110 983 1110 983 1110 890 c 0,15,16
 1110 777 1110 777 1084.5 700.5 c 128,-1,17
 1059 624 1059 624 1018 574 c 128,-1,18
 977 524 977 524 924 494 c 128,-1,19
 871 464 871 464 815.5 444.5 c 128,-1,20
 760 425 760 425 707 410.5 c 128,-1,21
 654 396 654 396 613 375.5 c 128,-1,22
 572 355 572 355 546.5 324 c 128,-1,23
 521 293 521 293 521 240 c 1,24,-1
 1060 240 l 1,25,-1
 1060 0 l 1,26,-1
 50 0 l 1,27,-1
 50 242 l 2,28,29
 50 366 50 366 74.5 454 c 128,-1,30
 99 542 99 542 139 602 c 128,-1,31
 179 662 179 662 230 698.5 c 128,-1,32
 281 735 281 735 334.5 756 c 128,-1,33
 388 777 388 777 439 786.5 c 128,-1,34
 490 796 490 796 530 802 c 128,-1,35
 570 808 570 808 594.5 815 c 128,-1,36
 619 822 619 822 619 838 c 2,37,-1
 619 1086 l 1,38,-1
 521 1086 l 1,39,-1
 521 851 l 1,40,-1
 50 851 l 1,0,1
EndSplineSet
Validated: 16385
EndChar

StartChar: threesuperior
Encoding: 179 179 192
Width: 1092
Flags: W
HStem: -30 219<503.673 615.388> 566 180<429 618> 1091 217<503.673 615.388>
VStem: 33 470<189.964 491 820 1089.49> 618 490<190.236 565.808 746.186 1090.39>
LayerCount: 2
Fore
SplineSet
33 820 m 1,0,1
 33 900 33 900 39.5 967.5 c 128,-1,2
 46 1035 46 1035 66 1089.5 c 128,-1,3
 86 1144 86 1144 122 1185 c 128,-1,4
 158 1226 158 1226 217.5 1253 c 128,-1,5
 277 1280 277 1280 363 1294 c 128,-1,6
 449 1308 449 1308 568 1308 c 0,7,8
 688 1308 688 1308 775 1293 c 128,-1,9
 862 1278 862 1278 922 1251 c 128,-1,10
 982 1224 982 1224 1018.5 1186 c 128,-1,11
 1055 1148 1055 1148 1075 1102 c 128,-1,12
 1095 1056 1095 1056 1101.5 1003 c 128,-1,13
 1108 950 1108 950 1108 894 c 0,14,15
 1108 822 1108 822 1090 776.5 c 128,-1,16
 1072 731 1072 731 1051 704 c 0,17,18
 1025 672 1025 672 994 656 c 1,19,20
 1025 641 1025 641 1051 610 c 0,21,22
 1072 584 1072 584 1090 537.5 c 128,-1,23
 1108 491 1108 491 1108 418 c 0,24,25
 1108 360 1108 360 1101.5 304 c 128,-1,26
 1095 248 1095 248 1075 198 c 128,-1,27
 1055 148 1055 148 1018.5 106 c 128,-1,28
 982 64 982 64 922 34 c 128,-1,29
 862 4 862 4 775 -13 c 128,-1,30
 688 -30 688 -30 568 -30 c 0,31,32
 449 -30 449 -30 363 -15 c 128,-1,33
 277 0 277 0 217.5 30 c 128,-1,34
 158 60 158 60 122 104 c 128,-1,35
 86 148 86 148 66 206 c 128,-1,36
 46 264 46 264 39.5 335.5 c 128,-1,37
 33 407 33 407 33 492 c 1,38,-1
 503 491 l 1,39,-1
 503 189 l 1,40,-1
 618 189 l 1,41,-1
 618 566 l 1,42,-1
 429 566 l 1,43,-1
 429 746 l 1,44,-1
 618 746 l 1,45,-1
 618 1091 l 1,46,-1
 503 1091 l 1,47,-1
 503 820 l 1,48,-1
 33 820 l 1,0,1
EndSplineSet
Validated: 16385
EndChar

StartChar: acute
Encoding: 180 180 193
Width: 1706
Flags: W
LayerCount: 2
Fore
SplineSet
1520 266 m 1,0,-1
 549 41 l 1,1,-1
 467 246 l 1,2,-1
 1274 809 l 1,3,-1
 1520 266 l 1,0,-1
EndSplineSet
Validated: 1
EndChar

StartChar: mu
Encoding: 181 181 194
AltUni2: 0003bc.ffffffff.0 0003bc.ffffffff.0
Width: 1505
Flags: W
HStem: 0 21G<878.842 1417> 1280 20G<78 690 809 1417>
VStem: 78 612<-114 -1.54883 231 1300> 809 608<231 1300>
LayerCount: 2
Fore
SplineSet
78 -114 m 1,0,-1
 78 1300 l 1,1,-1
 690 1300 l 1,2,-1
 690 231 l 1,3,-1
 809 231 l 1,4,-1
 809 1300 l 1,5,-1
 1417 1300 l 1,6,-1
 1417 0 l 1,7,-1
 887 0 l 1,8,-1
 856 76 l 1,9,10
 840 56 840 56 819.5 41.5 c 128,-1,11
 799 27 799 27 777 16 c 128,-1,12
 755 5 755 5 731.5 -2.5 c 128,-1,13
 708 -10 708 -10 686 -16 c 1,14,-1
 686 -345 l 1,15,-1
 156 -345 l 1,16,-1
 78 -114 l 1,0,-1
EndSplineSet
Validated: 16385
EndChar

StartChar: paragraph
Encoding: 182 182 195
Width: 1343
Flags: W
HStem: 0 21G<580 859 974 1252> 1580 20G<614 1252>
VStem: 11 1241<885.025 1355.18> 580 279<0 658> 974 278<0 658>
LayerCount: 2
Fore
SplineSet
580 659 m 1,0,1
 417 659 417 659 307.5 692.5 c 128,-1,2
 198 726 198 726 132 785.5 c 128,-1,3
 66 845 66 845 38.5 927 c 128,-1,4
 11 1009 11 1009 11 1107 c 0,5,6
 11 1180 11 1180 22 1245.5 c 128,-1,7
 33 1311 33 1311 61 1365.5 c 128,-1,8
 89 1420 89 1420 137 1463.5 c 128,-1,9
 185 1507 185 1507 260 1537.5 c 128,-1,10
 335 1568 335 1568 439.5 1584 c 128,-1,11
 544 1600 544 1600 684 1600 c 2,12,-1
 1252 1600 l 1,13,-1
 1252 0 l 1,14,-1
 974 0 l 1,15,-1
 974 658 l 1,16,-1
 859 658 l 1,17,-1
 859 0 l 1,18,-1
 580 0 l 1,19,-1
 580 659 l 1,0,1
EndSplineSet
Validated: 16385
EndChar

StartChar: periodcentered
Encoding: 183 183 196
Width: 699
Flags: W
HStem: 655 467<80 619>
VStem: 80 539<655 1122>
LayerCount: 2
Fore
SplineSet
619 655 m 1,0,-1
 80 655 l 1,1,-1
 80 1122 l 1,2,-1
 619 1122 l 1,3,-1
 619 655 l 1,0,-1
EndSplineSet
Validated: 16385
EndChar

StartChar: cedilla
Encoding: 184 184 197
Width: 1456
Flags: W
HStem: -782 676<645 1135.49> -782 180<791.85 867> -288 296<559 869>
VStem: 869 401<-601.394 -288.445>
LayerCount: 2
Fore
SplineSet
559 8 m 1,0,-1
 869 8 l 1,1,-1
 869 -106 l 1,2,3
 966 -106 966 -106 1033.5 -118 c 128,-1,4
 1101 -130 1101 -130 1145.5 -150.5 c 128,-1,5
 1190 -171 1190 -171 1215 -197 c 128,-1,6
 1240 -223 1240 -223 1252.5 -252 c 128,-1,7
 1265 -281 1265 -281 1267.5 -310.5 c 128,-1,8
 1270 -340 1270 -340 1270 -366 c 2,9,-1
 1270 -522 l 2,10,11
 1270 -549 1270 -549 1267 -578.5 c 128,-1,12
 1264 -608 1264 -608 1251 -636.5 c 128,-1,13
 1238 -665 1238 -665 1210.5 -691.5 c 128,-1,14
 1183 -718 1183 -718 1134 -738 c 128,-1,15
 1085 -758 1085 -758 1010 -770 c 128,-1,16
 935 -782 935 -782 828 -782 c 0,17,18
 720 -782 720 -782 645 -770 c 128,-1,19
 570 -758 570 -758 520.5 -738 c 128,-1,20
 471 -718 471 -718 444 -691.5 c 128,-1,21
 417 -665 417 -665 403.5 -636.5 c 128,-1,22
 390 -608 390 -608 387.5 -578.5 c 128,-1,23
 385 -549 385 -549 385 -522 c 2,24,-1
 385 -415 l 1,25,-1
 789 -352 l 1,26,-1
 789 -602 l 1,27,-1
 869 -602 l 1,28,-1
 869 -288 l 1,29,-1
 559 -288 l 1,30,-1
 559 8 l 1,0,-1
EndSplineSet
Validated: 16385
EndChar

StartChar: onesuperior
Encoding: 185 185 198
Width: 1092
Flags: W
HStem: 0 21G<223 764> 1081 195<62 223>
VStem: 223 541<0 1081>
LayerCount: 2
Fore
SplineSet
764 1276 m 1,0,-1
 764 0 l 1,1,-1
 223 0 l 1,2,-1
 223 1081 l 1,3,-1
 62 1081 l 1,4,-1
 62 1276 l 1,5,-1
 764 1276 l 1,0,-1
EndSplineSet
Validated: 16385
EndChar

StartChar: grave
Encoding: 96 96 205
Width: 1706
Flags: W
LayerCount: 2
Fore
SplineSet
631 809 m 1,0,-1
 1438 246 l 1,1,-1
 1356 41 l 1,2,-1
 385 266 l 1,3,-1
 631 809 l 1,0,-1
EndSplineSet
Validated: 1
EndChar

StartChar: caron
Encoding: 711 711 206
Width: 1706
Flags: W
HStem: 82 614<604 825 1008 1219>
LayerCount: 2
Fore
SplineSet
604 82 m 1,0,-1
 315 696 l 1,1,-1
 825 696 l 1,2,-1
 915 377 l 1,3,-1
 1008 696 l 1,4,-1
 1520 696 l 1,5,-1
 1219 82 l 1,6,-1
 604 82 l 1,0,-1
EndSplineSet
Validated: 16385
EndChar

StartChar: dotlessi
Encoding: 305 305 207
Width: 774
Flags: W
HStem: 0 21G<82 688>
VStem: 82 606<0 1298>
LayerCount: 2
Fore
SplineSet
688 0 m 1,0,-1
 82 0 l 1,1,-1
 82 1298 l 1,2,-1
 688 1298 l 1,3,-1
 688 0 l 1,0,-1
EndSplineSet
Validated: 16385
EndChar

StartChar: bracketleft
Encoding: 91 91 210
Width: 1380
Flags: W
HStem: -319 242<903 1266> 1578 241<903 1266>
VStem: 229 674<-77 1578>
LayerCount: 2
Fore
SplineSet
229 1819 m 1,0,-1
 1266 1819 l 1,1,-1
 1266 1578 l 1,2,-1
 903 1578 l 1,3,-1
 903 -77 l 1,4,-1
 1266 -77 l 1,5,-1
 1266 -319 l 1,6,-1
 229 -319 l 1,7,-1
 229 1819 l 1,0,-1
EndSplineSet
Validated: 16385
EndChar

StartChar: ring
Encoding: 730 730 211
Width: 774
Flags: W
HStem: 90 213<293.774 487.291> 561 211<293.271 487.797>
VStem: 53 209<334.766 530.328> 520 215<336.278 528.814>
LayerCount: 2
Fore
SplineSet
262 432 m 0,0,1
 262 406 262 406 272 382.5 c 128,-1,2
 282 359 282 359 299.5 341.5 c 128,-1,3
 317 324 317 324 340.5 313.5 c 128,-1,4
 364 303 364 303 391 303 c 0,5,6
 417 303 417 303 440.5 313.5 c 128,-1,7
 464 324 464 324 481.5 341.5 c 128,-1,8
 499 359 499 359 509.5 382.5 c 128,-1,9
 520 406 520 406 520 432 c 0,10,11
 520 459 520 459 509.5 482.5 c 128,-1,12
 499 506 499 506 481.5 523.5 c 128,-1,13
 464 541 464 541 440.5 551 c 128,-1,14
 417 561 417 561 391 561 c 0,15,16
 364 561 364 561 340.5 551 c 128,-1,17
 317 541 317 541 299.5 523.5 c 128,-1,18
 282 506 282 506 272 482.5 c 128,-1,19
 262 459 262 459 262 432 c 0,0,1
53 430 m 0,20,21
 53 502 53 502 79.5 564 c 128,-1,22
 106 626 106 626 152.5 672.5 c 128,-1,23
 199 719 199 719 260.5 745.5 c 128,-1,24
 322 772 322 772 393 772 c 0,25,26
 465 772 465 772 527 745.5 c 128,-1,27
 589 719 589 719 635.5 672.5 c 128,-1,28
 682 626 682 626 708.5 564 c 128,-1,29
 735 502 735 502 735 430 c 0,30,31
 735 359 735 359 708.5 297.5 c 128,-1,32
 682 236 682 236 635.5 189.5 c 128,-1,33
 589 143 589 143 527 116.5 c 128,-1,34
 465 90 465 90 393 90 c 0,35,36
 322 90 322 90 260.5 116.5 c 128,-1,37
 199 143 199 143 152.5 189.5 c 128,-1,38
 106 236 106 236 79.5 297.5 c 128,-1,39
 53 359 53 359 53 430 c 0,20,21
EndSplineSet
Validated: 16385
EndChar

StartChar: bracketright
Encoding: 93 93 212
Width: 1380
Flags: W
HStem: -319 242<229 592> 1578 241<229 592>
VStem: 592 674<-77 1578>
LayerCount: 2
Fore
SplineSet
1266 -319 m 1,0,-1
 229 -319 l 1,1,-1
 229 -77 l 1,2,-1
 592 -77 l 1,3,-1
 592 1578 l 1,4,-1
 229 1578 l 1,5,-1
 229 1819 l 1,6,-1
 1266 1819 l 1,7,-1
 1266 -319 l 1,0,-1
EndSplineSet
Validated: 16385
EndChar

StartChar: asciicircum
Encoding: 94 94 226
Width: 1706
Flags: W
HStem: 61 615<604 825 1008 1219>
LayerCount: 2
Fore
SplineSet
1219 676 m 1,0,-1
 1520 61 l 1,1,-1
 1008 61 l 1,2,-1
 915 381 l 1,3,-1
 825 61 l 1,4,-1
 315 61 l 1,5,-1
 604 676 l 1,6,-1
 1219 676 l 1,0,-1
EndSplineSet
Validated: 16385
EndChar

StartChar: backslash
Encoding: 92 92 227
Width: 1253
Flags: W
HStem: 0 21G<470.323 1151> 1575 20G<102 780.702>
LayerCount: 2
Fore
SplineSet
776 1595 m 1,0,-1
 1151 0 l 1,1,-1
 475 0 l 1,2,-1
 102 1595 l 1,3,-1
 776 1595 l 1,0,-1
EndSplineSet
Validated: 16385
EndChar

StartChar: question
Encoding: 63 63 245
Width: 1410
Flags: W
HStem: 0 397<285 930> 1364 268<672.167 785.849>
VStem: 285 645<0 397 462 614.09> 783 626<1027.06 1362.53>
LayerCount: 2
Fore
SplineSet
285 397 m 1,0,-1
 930 397 l 1,1,-1
 930 0 l 1,2,-1
 285 0 l 1,3,-1
 285 397 l 1,0,-1
283 462 m 1,4,5
 283 573 283 573 305 653.5 c 128,-1,6
 327 734 327 734 362 792 c 128,-1,7
 397 850 397 850 442 888 c 128,-1,8
 487 926 487 926 534 950 c 0,9,10
 582 974 582 974 626 988 c 2,11,-1
 705 1014 l 2,12,13
 740 1025 740 1025 761.5 1036.5 c 128,-1,14
 783 1048 783 1048 783 1066 c 2,15,-1
 787 1364 l 1,16,-1
 670 1364 l 1,17,-1
 670 1070 l 1,18,-1
 52 1070 l 1,19,-1
 52 1247 l 2,20,21
 52 1287 52 1287 55.5 1331 c 128,-1,22
 59 1375 59 1375 78 1418 c 128,-1,23
 97 1461 97 1461 137 1499.5 c 128,-1,24
 177 1538 177 1538 249.5 1567.5 c 128,-1,25
 322 1597 322 1597 433.5 1614.5 c 128,-1,26
 545 1632 545 1632 707 1632 c 0,27,28
 861 1632 861 1632 973 1620 c 128,-1,29
 1085 1608 1085 1608 1163 1581 c 128,-1,30
 1241 1554 1241 1554 1289.5 1510.5 c 128,-1,31
 1338 1467 1338 1467 1364.5 1404 c 128,-1,32
 1391 1341 1391 1341 1400 1256.5 c 128,-1,33
 1409 1172 1409 1172 1409 1064 c 0,34,35
 1409 977 1409 977 1388.5 913.5 c 128,-1,36
 1368 850 1368 850 1334 804.5 c 128,-1,37
 1300 759 1300 759 1257.5 729 c 128,-1,38
 1215 699 1215 699 1170 680 c 0,39,40
 1125 660 1125 660 1082 648 c 2,41,-1
 1005 626 l 2,42,43
 971 616 971 616 950.5 607 c 128,-1,44
 930 598 930 598 930 583 c 2,45,-1
 930 462 l 1,46,-1
 283 462 l 1,4,5
EndSplineSet
Validated: 16385
EndChar

StartChar: euro
Encoding: 8364 8364 246
Width: 1607
Flags: W
HStem: -39 218<825.625 934.833> 553 173<30 198 823 1177> 814 176<30 198 823 1177> 1314 268<825.625 934.833>
VStem: 198 625<189.013 553 726 814 990 1312.53> 937 618<179.033 473 1070 1313.86>
LayerCount: 2
Fore
SplineSet
198 814 m 1,0,-1
 30 814 l 1,1,-1
 30 990 l 1,2,-1
 198 990 l 1,3,-1
 198 1014 l 2,4,5
 198 1122 198 1122 207 1206.5 c 128,-1,6
 216 1291 216 1291 242.5 1354 c 128,-1,7
 269 1417 269 1417 317.5 1460.5 c 128,-1,8
 366 1504 366 1504 444 1531 c 128,-1,9
 522 1558 522 1558 634 1570 c 128,-1,10
 746 1582 746 1582 900 1582 c 0,11,12
 1062 1582 1062 1582 1173.5 1564.5 c 128,-1,13
 1285 1547 1285 1547 1357.5 1517.5 c 128,-1,14
 1430 1488 1430 1488 1470 1449.5 c 128,-1,15
 1510 1411 1510 1411 1529 1368 c 128,-1,16
 1548 1325 1548 1325 1551.5 1281 c 128,-1,17
 1555 1237 1555 1237 1555 1197 c 2,18,-1
 1555 1070 l 1,19,-1
 937 1070 l 1,20,-1
 937 1314 l 1,21,-1
 823 1314 l 1,22,-1
 823 990 l 1,23,-1
 1177 990 l 1,24,-1
 1177 814 l 1,25,-1
 823 814 l 1,26,-1
 823 726 l 1,27,-1
 1177 726 l 1,28,-1
 1177 553 l 1,29,-1
 823 553 l 1,30,-1
 823 179 l 1,31,-1
 937 179 l 1,32,-1
 937 473 l 1,33,-1
 1555 473 l 1,34,-1
 1555 346 l 2,35,36
 1555 306 1555 306 1551.5 262 c 128,-1,37
 1548 218 1548 218 1529 175 c 128,-1,38
 1510 132 1510 132 1470 93.5 c 128,-1,39
 1430 55 1430 55 1357.5 25.5 c 128,-1,40
 1285 -4 1285 -4 1173.5 -21.5 c 128,-1,41
 1062 -39 1062 -39 900 -39 c 0,42,43
 746 -39 746 -39 634 -27 c 128,-1,44
 522 -15 522 -15 444 12 c 128,-1,45
 366 39 366 39 317.5 82.5 c 128,-1,46
 269 126 269 126 242.5 189 c 128,-1,47
 216 252 216 252 207 336.5 c 128,-1,48
 198 421 198 421 198 529 c 2,49,-1
 198 553 l 1,50,-1
 30 553 l 1,51,-1
 30 726 l 1,52,-1
 198 726 l 1,53,-1
 198 814 l 1,0,-1
EndSplineSet
Validated: 16385
EndChar

StartChar: underscore
Encoding: 95 95 247
Width: 947
Flags: W
HStem: -435 436<0 946>
LayerCount: 2
Fore
SplineSet
946 1 m 1,0,-1
 946 -435 l 1,1,-1
 0 -435 l 1,2,-1
 0 1 l 1,3,-1
 946 1 l 1,0,-1
EndSplineSet
Validated: 16385
EndChar

StartChar: asciitilde
Encoding: 126 126 248
Width: 1424
Flags: W
HStem: 616 443<376.752 572.273> 806 446<857.755 1046.94>
LayerCount: 2
Fore
SplineSet
962 806 m 0,0,1
 933 806 933 806 907 792 c 0,2,3
 880 778 880 778 852 757 c 2,4,-1
 790 711 l 2,5,6
 756 686 756 686 710.5 665 c 128,-1,7
 665 644 665 644 604 630 c 128,-1,8
 543 616 543 616 462 616 c 0,9,10
 357 616 357 616 276.5 642 c 128,-1,11
 196 668 196 668 141 736 c 128,-1,12
 86 804 86 804 58 922.5 c 128,-1,13
 30 1041 30 1041 30 1227 c 1,14,-1
 345 1227 l 1,15,16
 345 1194 345 1194 351 1163.5 c 128,-1,17
 357 1133 357 1133 371.5 1110 c 128,-1,18
 386 1087 386 1087 408.5 1073 c 128,-1,19
 431 1059 431 1059 464 1059 c 0,20,21
 493 1059 493 1059 521 1073.5 c 128,-1,22
 549 1088 549 1088 580 1109 c 2,23,-1
 647 1156 l 2,24,25
 683 1182 683 1182 728.5 1202.5 c 128,-1,26
 774 1223 774 1223 831.5 1237.5 c 128,-1,27
 889 1252 889 1252 962 1252 c 0,28,29
 1067 1252 1067 1252 1147.5 1226.5 c 128,-1,30
 1228 1201 1228 1201 1283 1133 c 128,-1,31
 1338 1065 1338 1065 1366 946.5 c 128,-1,32
 1394 828 1394 828 1394 642 c 1,33,-1
 1079 642 l 1,34,35
 1079 670 1079 670 1073 699 c 128,-1,36
 1067 728 1067 728 1053.5 752 c 128,-1,37
 1040 776 1040 776 1017.5 791 c 128,-1,38
 995 806 995 806 962 806 c 0,0,1
EndSplineSet
Validated: 16385
EndChar

StartChar: bar
Encoding: 124 124 249
Width: 844
Flags: W
VStem: 84 676<-100 1795>
LayerCount: 2
Fore
SplineSet
760 1795 m 1,0,-1
 760 -100 l 1,1,-1
 84 -100 l 1,2,-1
 84 1795 l 1,3,-1
 760 1795 l 1,0,-1
EndSplineSet
Validated: 16385
EndChar

StartChar: braceleft
Encoding: 123 123 250
Width: 1052
Flags: W
HStem: -330 279<920.98 1132> 658 279<20 165.475> 1646 279<920.98 1132>
CounterMasks: 1 e0
LayerCount: 2
Fore
SplineSet
822 1348 m 0,0,1
 807 1241 807 1241 800 1156 c 128,-1,2
 793 1071 793 1071 781 1003.5 c 128,-1,3
 769 936 769 936 745.5 885 c 128,-1,4
 722 834 722 834 674 797 c 1,5,6
 722 760 722 760 745.5 709.5 c 128,-1,7
 769 659 769 659 781 591.5 c 128,-1,8
 793 524 793 524 800 438.5 c 128,-1,9
 807 353 807 353 822 247 c 0,10,11
 838 136 838 136 864 76 c 128,-1,12
 890 16 890 16 928 -12.5 c 128,-1,13
 966 -41 966 -41 1016.5 -46 c 128,-1,14
 1067 -51 1067 -51 1132 -51 c 1,15,-1
 1132 -330 l 1,16,17
 1009 -330 1009 -330 900 -323 c 128,-1,18
 791 -316 791 -316 697.5 -292.5 c 128,-1,19
 604 -269 604 -269 526.5 -223.5 c 128,-1,20
 449 -178 449 -178 388.5 -100.5 c 128,-1,21
 328 -23 328 -23 286 91.5 c 128,-1,22
 244 206 244 206 221 367 c 0,23,24
 210 447 210 447 202 489 c 0,25,26
 193 539 193 539 183 571 c 128,-1,27
 173 603 173 603 160.5 621 c 128,-1,28
 148 639 148 639 129 647 c 128,-1,29
 110 655 110 655 83.5 656.5 c 128,-1,30
 57 658 57 658 20 658 c 1,31,-1
 20 937 l 1,32,33
 57 937 57 937 83.5 938.5 c 128,-1,34
 110 940 110 940 129 948 c 128,-1,35
 148 956 148 956 160.5 974 c 128,-1,36
 173 992 173 992 183 1024 c 128,-1,37
 193 1056 193 1056 201.5 1106 c 128,-1,38
 210 1156 210 1156 221 1228 c 0,39,40
 247 1396 247 1396 286 1504 c 0,41,42
 328 1618 328 1618 388.5 1695.5 c 128,-1,43
 449 1773 449 1773 526.5 1818.5 c 128,-1,44
 604 1864 604 1864 697.5 1887.5 c 128,-1,45
 791 1911 791 1911 900 1918 c 128,-1,46
 1009 1925 1009 1925 1132 1925 c 1,47,-1
 1132 1646 l 1,48,49
 1067 1646 1067 1646 1016.5 1641 c 128,-1,50
 966 1636 966 1636 928 1607.5 c 128,-1,51
 890 1579 890 1579 864 1519 c 128,-1,52
 838 1459 838 1459 822 1348 c 0,0,1
EndSplineSet
Validated: 16385
EndChar

StartChar: braceright
Encoding: 125 125 251
Width: 1052
Flags: W
HStem: -330 279<-80 131.02> 658 279<885.525 1032> 1646 279<-80 131.02>
CounterMasks: 1 e0
LayerCount: 2
Fore
SplineSet
230 1348 m 0,0,1
 214 1459 214 1459 188 1519 c 128,-1,2
 162 1579 162 1579 124 1607.5 c 128,-1,3
 86 1636 86 1636 35.5 1641 c 128,-1,4
 -15 1646 -15 1646 -80 1646 c 1,5,-1
 -80 1925 l 1,6,7
 43 1925 43 1925 152 1918 c 128,-1,8
 261 1911 261 1911 354.5 1887.5 c 128,-1,9
 448 1864 448 1864 525.5 1818.5 c 128,-1,10
 603 1773 603 1773 663 1695.5 c 128,-1,11
 723 1618 723 1618 765.5 1503.5 c 128,-1,12
 808 1389 808 1389 831 1228 c 0,13,14
 844 1145 844 1145 850 1106 c 0,15,16
 858 1056 858 1056 868 1024 c 128,-1,17
 878 992 878 992 890.5 974 c 128,-1,18
 903 956 903 956 922 948 c 0,19,20
 942 940 942 940 968 938 c 0,21,22
 986 937 986 937 1008 937 c 0,23,24
 1019 937 1019 937 1032 937 c 1,25,-1
 1032 658 l 1,26,27
 995 658 995 658 968 656.5 c 128,-1,28
 941 655 941 655 922 647 c 128,-1,29
 903 639 903 639 890.5 621 c 128,-1,30
 878 603 878 603 868 571 c 128,-1,31
 858 539 858 539 850 489 c 0,32,33
 843 450 843 450 831 367 c 0,34,35
 808 206 808 206 765.5 91.5 c 128,-1,36
 723 -23 723 -23 663 -100.5 c 128,-1,37
 603 -178 603 -178 525.5 -223.5 c 128,-1,38
 448 -269 448 -269 354.5 -292.5 c 128,-1,39
 261 -316 261 -316 152 -323 c 128,-1,40
 43 -330 43 -330 -80 -330 c 1,41,-1
 -80 -51 l 1,42,43
 -15 -51 -15 -51 35.5 -46 c 128,-1,44
 86 -41 86 -41 124 -12.5 c 128,-1,45
 162 16 162 16 188 76 c 128,-1,46
 214 136 214 136 230 247 c 0,47,48
 245 353 245 353 252 438.5 c 128,-1,49
 259 524 259 524 271 591.5 c 128,-1,50
 283 659 283 659 306.5 709.5 c 128,-1,51
 330 760 330 760 378 797 c 1,52,53
 330 834 330 834 306.5 885 c 128,-1,54
 283 936 283 936 271 1003.5 c 128,-1,55
 259 1071 259 1071 252 1156 c 128,-1,56
 245 1241 245 1241 230 1348 c 0,0,1
EndSplineSet
Validated: 16385
EndChar

StartChar: breve
Encoding: 728 728 252
Width: 1288
Flags: W
HStem: 70 403<506.271 766.962>
VStem: 150 315<517.106 731> 807 315<512.5 731>
LayerCount: 2
Fore
SplineSet
641 70 m 0,0,1
 515 70 515 70 423 103.5 c 128,-1,2
 331 137 331 137 270 214.5 c 128,-1,3
 209 292 209 292 179.5 418.5 c 128,-1,4
 150 545 150 545 150 731 c 1,5,-1
 465 731 l 1,6,7
 465 671 465 671 468.5 623.5 c 128,-1,8
 472 576 472 576 489 542.5 c 128,-1,9
 506 509 506 509 541.5 491 c 128,-1,10
 577 473 577 473 641 473 c 0,11,12
 701 473 701 473 734.5 491 c 128,-1,13
 768 509 768 509 784 542.5 c 128,-1,14
 800 576 800 576 803.5 624 c 128,-1,15
 807 672 807 672 807 731 c 1,16,-1
 1122 731 l 1,17,18
 1122 545 1122 545 1093 418.5 c 128,-1,19
 1064 292 1064 292 1004.5 214.5 c 128,-1,20
 945 137 945 137 854.5 103.5 c 128,-1,21
 764 70 764 70 641 70 c 0,0,1
EndSplineSet
Validated: 16385
EndChar

StartChar: hungarumlaut
Encoding: 733 733 262
Width: 2571
Flags: W
LayerCount: 2
Fore
SplineSet
1961 953 m 1,0,-1
 1643 30 l 1,1,-1
 1427 30 l 1,2,-1
 1427 1011 l 1,3,-1
 1961 953 l 1,0,-1
1355 957 m 1,4,-1
 1037 30 l 1,5,-1
 822 30 l 1,6,-1
 822 1015 l 1,7,-1
 1355 957 l 1,4,-1
EndSplineSet
Validated: 1
EndChar

StartChar: ogonek
Encoding: 731 731 282
Width: 1288
Flags: W
HStem: -737 315<730.957 937> -13 92<746.816 937>
VStem: 276 403<-369.478 -177.877>
LayerCount: 2
Fore
SplineSet
276 -316 m 0,0,1
 276 -253 276 -253 304.5 -203 c 128,-1,2
 333 -153 333 -153 379.5 -113.5 c 128,-1,3
 426 -74 426 -74 485 -44 c 0,4,5
 543 -15 543 -15 606 7 c 0,6,7
 753 57 753 57 937 79 c 1,8,-1
 937 0 l 1,9,10
 877 0 877 0 829.5 -13 c 128,-1,11
 782 -26 782 -26 748.5 -54.5 c 128,-1,12
 715 -83 715 -83 697 -127.5 c 128,-1,13
 679 -172 679 -172 679 -236 c 0,14,15
 679 -296 679 -296 697 -333 c 128,-1,16
 715 -370 715 -370 748.5 -389.5 c 128,-1,17
 782 -409 782 -409 830 -415.5 c 128,-1,18
 878 -422 878 -422 937 -422 c 1,19,-1
 937 -737 l 1,20,21
 778 -737 778 -737 654.5 -711.5 c 128,-1,22
 531 -686 531 -686 447 -634 c 128,-1,23
 363 -582 363 -582 319.5 -503 c 128,-1,24
 276 -424 276 -424 276 -316 c 0,0,1
EndSplineSet
Validated: 16385
EndChar

StartChar: dcroat
Encoding: 273 273 295
Width: 1487
Flags: W
HStem: 0 21G<890.051 1441> 1462 138<599 820 1441 1486> 1690 20G<820 1441>
VStem: 79 621<232.062 1067.75> 820 621<231 1069 1225 1462 1600 1710>
LayerCount: 2
Fore
SplineSet
820 1069 m 1,0,-1
 700 1069 l 1,1,-1
 700 231 l 1,2,-1
 820 231 l 1,3,-1
 820 1069 l 1,0,-1
1486 1600 m 1,4,-1
 1486 1462 l 1,5,-1
 1441 1462 l 1,6,-1
 1441 0 l 1,7,-1
 898 0 l 1,8,-1
 867 78 l 1,9,10
 841 46 841 46 798 24 c 128,-1,11
 755 2 755 2 706 -11.5 c 128,-1,12
 657 -25 657 -25 607.5 -31 c 128,-1,13
 558 -37 558 -37 520 -37 c 0,14,15
 410 -37 410 -37 334.5 -17.5 c 128,-1,16
 259 2 259 2 210 35 c 128,-1,17
 161 68 161 68 134.5 110.5 c 128,-1,18
 108 153 108 153 95.5 199 c 128,-1,19
 83 245 83 245 81 291 c 128,-1,20
 79 337 79 337 79 377 c 2,21,-1
 79 930 l 2,22,23
 79 970 79 970 81 1016 c 128,-1,24
 83 1062 83 1062 95.5 1108 c 128,-1,25
 108 1154 108 1154 134.5 1196.5 c 128,-1,26
 161 1239 161 1239 210 1271.5 c 128,-1,27
 259 1304 259 1304 334.5 1323.5 c 128,-1,28
 410 1343 410 1343 520 1343 c 0,29,30
 585 1343 585 1343 633.5 1335 c 128,-1,31
 682 1327 682 1327 718 1312 c 128,-1,32
 754 1297 754 1297 778.5 1275 c 128,-1,33
 803 1253 803 1253 820 1225 c 1,34,-1
 820 1462 l 1,35,-1
 599 1462 l 1,36,-1
 599 1600 l 1,37,-1
 820 1600 l 1,38,-1
 820 1710 l 1,39,-1
 1441 1710 l 1,40,-1
 1441 1600 l 1,41,-1
 1486 1600 l 1,4,-1
EndSplineSet
Validated: 16385
EndChar

StartChar: Dcroat
Encoding: 272 272 297
Width: 1606
Flags: W
HStem: 0 233<772 903> 726 142<1 96 772 822> 1364 231<772 903>
VStem: 96 676<233 726 868 1364> 903 676<233.762 1362.88>
LayerCount: 2
Fore
SplineSet
1579 393 m 2,0,1
 1579 353 1579 353 1576 308.5 c 128,-1,2
 1573 264 1573 264 1554.5 220 c 128,-1,3
 1536 176 1536 176 1495.5 136.5 c 128,-1,4
 1455 97 1455 97 1380.5 66.5 c 128,-1,5
 1306 36 1306 36 1191.5 18 c 128,-1,6
 1077 0 1077 0 910 0 c 2,7,-1
 96 0 l 1,8,-1
 96 726 l 1,9,-1
 1 726 l 1,10,-1
 1 868 l 1,11,-1
 96 868 l 1,12,-1
 96 1595 l 1,13,-1
 910 1595 l 2,14,15
 1077 1595 1077 1595 1191.5 1577 c 128,-1,16
 1306 1559 1306 1559 1380.5 1529 c 128,-1,17
 1455 1499 1455 1499 1495.5 1459.5 c 128,-1,18
 1536 1420 1536 1420 1554.5 1376.5 c 128,-1,19
 1573 1333 1573 1333 1576 1288.5 c 128,-1,20
 1579 1244 1579 1244 1579 1204 c 2,21,-1
 1579 393 l 2,0,1
772 233 m 1,22,-1
 903 233 l 1,23,-1
 903 1364 l 1,24,-1
 772 1364 l 1,25,-1
 772 868 l 1,26,-1
 822 868 l 1,27,-1
 822 726 l 1,28,-1
 772 726 l 1,29,-1
 772 233 l 1,22,-1
EndSplineSet
Validated: 16385
EndChar

StartChar: uni00AD
Encoding: 173 173 298
Width: 947
Flags: W
HStem: 461 436<30 917>
LayerCount: 2
Fore
SplineSet
917 897 m 1,0,-1
 917 461 l 1,1,-1
 30 461 l 1,2,-1
 30 897 l 1,3,-1
 917 897 l 1,0,-1
EndSplineSet
Validated: 16385
EndChar

StartChar: four.superior
Encoding: 8308 8308 299
Width: 1166
Flags: W
HStem: 1586 20G<214.773 721>
VStem: 616 510<330 524 812 1080>
LayerCount: 2
Fore
SplineSet
1126 330 m 1,0,-1
 616 330 l 1,1,-1
 616 524 l 1,2,-1
 24 524 l 1,3,-1
 24 856 l 1,4,-1
 220 1606 l 1,5,-1
 721 1606 l 1,6,-1
 526 856 l 1,7,-1
 526 812 l 1,8,-1
 616 812 l 1,9,-1
 616 1080 l 1,10,-1
 1126 1080 l 1,11,-1
 1126 330 l 1,0,-1
EndSplineSet
Validated: 16385
EndChar

StartChar: Scedilla
Encoding: 350 350 302
Width: 1561
Flags: W
HStem: -782 676<721 1211.49> -782 180<867.85 943> 1364 268<717.341 845.584>
VStem: 39 676<233.781 533 1081.69 1362.53> 945 401<-601.394 -288.445>
LayerCount: 2
Fore
SplineSet
635 -33 m 1,0,1
 535 -26 535 -26 456 -11 c 128,-1,2
 377 4 377 4 316.5 25 c 128,-1,3
 256 46 256 46 211.5 72.5 c 128,-1,4
 167 99 167 99 136 128 c 128,-1,5
 105 157 105 157 86 188.5 c 128,-1,6
 67 220 67 220 56.5 251.5 c 128,-1,7
 46 283 46 283 42.5 313.5 c 128,-1,8
 39 344 39 344 39 371 c 2,9,-1
 39 533 l 1,10,-1
 715 533 l 1,11,-1
 715 233 l 1,12,-1
 846 233 l 1,13,-1
 846 553 l 2,14,15
 846 568 846 568 811.5 578.5 c 128,-1,16
 777 589 777 589 720 601 c 2,17,-1
 590 628 l 2,18,19
 518 642 518 642 442.5 664.5 c 128,-1,20
 367 687 367 687 294.5 719.5 c 128,-1,21
 222 752 222 752 165 800 c 128,-1,22
 108 848 108 848 73.5 912.5 c 128,-1,23
 39 977 39 977 39 1064 c 0,24,25
 39 1172 39 1172 52.5 1256.5 c 128,-1,26
 66 1341 66 1341 99.5 1404 c 128,-1,27
 133 1467 133 1467 189 1510.5 c 128,-1,28
 245 1554 245 1554 329.5 1581 c 128,-1,29
 414 1608 414 1608 530.5 1620 c 128,-1,30
 647 1632 647 1632 801 1632 c 0,31,32
 963 1632 963 1632 1075.5 1614.5 c 128,-1,33
 1188 1597 1188 1597 1263 1567.5 c 128,-1,34
 1338 1538 1338 1538 1380.5 1499.5 c 128,-1,35
 1423 1461 1423 1461 1444 1418 c 128,-1,36
 1465 1375 1465 1375 1470 1331 c 128,-1,37
 1475 1287 1475 1287 1475 1247 c 2,38,-1
 1475 1128 l 1,39,-1
 846 1128 l 1,40,-1
 846 1364 l 1,41,-1
 715 1364 l 1,42,-1
 715 1106 l 2,43,44
 715 1090 715 1090 749.5 1083.5 c 128,-1,45
 784 1077 784 1077 841 1071.5 c 128,-1,46
 898 1066 898 1066 970.5 1058 c 128,-1,47
 1043 1050 1043 1050 1118.5 1032 c 128,-1,48
 1194 1014 1194 1014 1266.5 982 c 128,-1,49
 1339 950 1339 950 1396 897 c 128,-1,50
 1453 844 1453 844 1487.5 766 c 128,-1,51
 1522 688 1522 688 1522 578 c 0,52,53
 1522 505 1522 505 1517.5 433.5 c 128,-1,54
 1513 362 1513 362 1495.5 297.5 c 128,-1,55
 1478 233 1478 233 1441.5 176.5 c 128,-1,56
 1405 120 1405 120 1341 76.5 c 128,-1,57
 1277 33 1277 33 1180 4 c 128,-1,58
 1083 -25 1083 -25 945 -34 c 1,59,-1
 945 -106 l 1,60,61
 1042 -106 1042 -106 1109.5 -118 c 128,-1,62
 1177 -130 1177 -130 1221.5 -150.5 c 128,-1,63
 1266 -171 1266 -171 1291 -197 c 128,-1,64
 1316 -223 1316 -223 1328.5 -252 c 128,-1,65
 1341 -281 1341 -281 1343.5 -310.5 c 128,-1,66
 1346 -340 1346 -340 1346 -366 c 2,67,-1
 1346 -522 l 2,68,69
 1346 -549 1346 -549 1343 -578.5 c 128,-1,70
 1340 -608 1340 -608 1327 -636.5 c 128,-1,71
 1314 -665 1314 -665 1286.5 -691.5 c 128,-1,72
 1259 -718 1259 -718 1210 -738 c 128,-1,73
 1161 -758 1161 -758 1086 -770 c 128,-1,74
 1011 -782 1011 -782 904 -782 c 0,75,76
 796 -782 796 -782 721 -770 c 128,-1,77
 646 -758 646 -758 596.5 -738 c 128,-1,78
 547 -718 547 -718 520 -691.5 c 128,-1,79
 493 -665 493 -665 479.5 -636.5 c 128,-1,80
 466 -608 466 -608 463.5 -578.5 c 128,-1,81
 461 -549 461 -549 461 -522 c 2,82,-1
 461 -415 l 1,83,-1
 865 -352 l 1,84,-1
 865 -602 l 1,85,-1
 945 -602 l 1,86,-1
 945 -288 l 1,87,-1
 635 -288 l 1,88,-1
 635 -33 l 1,0,1
EndSplineSet
Validated: 16385
EndChar

StartChar: scedilla
Encoding: 351 351 303
Width: 1368
Flags: W
HStem: -782 676<604 1094.49> -782 180<750.85 826> 1069 274<624.406 739.999>
VStem: 1 621<845.593 1068.82> 742 621<233.096 460.656> 828 401<-601.394 -288.445>
LayerCount: 2
Fore
SplineSet
518 -32 m 1,0,1
 409 -25 409 -25 330.5 -6.5 c 128,-1,2
 252 12 252 12 198.5 39 c 128,-1,3
 145 66 145 66 112.5 100.5 c 128,-1,4
 80 135 80 135 62.5 174 c 128,-1,5
 45 213 45 213 39.5 256.5 c 128,-1,6
 34 300 34 300 34 345 c 0,7,8
 34 370 34 370 34.5 394.5 c 128,-1,9
 35 419 35 419 35 444 c 1,10,-1
 622 414 l 1,11,-1
 622 231 l 1,12,-1
 742 231 l 1,13,-1
 742 447 l 1,14,15
 734 456 734 456 698 461 c 2,16,-1
 608 473 l 2,17,18
 554 480 554 480 488 490.5 c 128,-1,19
 422 501 422 501 354.5 520 c 128,-1,20
 287 539 287 539 223.5 569 c 128,-1,21
 160 599 160 599 110.5 644.5 c 128,-1,22
 61 690 61 690 31 753 c 128,-1,23
 1 816 1 816 1 902 c 0,24,25
 1 966 1 966 11.5 1023.5 c 128,-1,26
 22 1081 22 1081 49.5 1130 c 128,-1,27
 77 1179 77 1179 126 1218.5 c 128,-1,28
 175 1258 175 1258 252 1285.5 c 128,-1,29
 329 1313 329 1313 438.5 1328 c 128,-1,30
 548 1343 548 1343 696 1343 c 0,31,32
 840 1343 840 1343 943 1329.5 c 128,-1,33
 1046 1316 1046 1316 1116 1292 c 128,-1,34
 1186 1268 1186 1268 1228.5 1234 c 128,-1,35
 1271 1200 1271 1200 1293 1158.5 c 128,-1,36
 1315 1117 1315 1117 1322 1069 c 128,-1,37
 1329 1021 1329 1021 1329 970 c 0,38,39
 1329 944 1329 944 1328.5 917.5 c 128,-1,40
 1328 891 1328 891 1328 864 c 1,41,-1
 742 894 l 1,42,-1
 742 1069 l 1,43,-1
 622 1069 l 1,44,-1
 622 860 l 1,45,46
 631 851 631 851 668 845 c 128,-1,47
 705 839 705 839 758.5 832.5 c 128,-1,48
 812 826 812 826 878 815.5 c 128,-1,49
 944 805 944 805 1011 786.5 c 128,-1,50
 1078 768 1078 768 1141.5 739.5 c 128,-1,51
 1205 711 1205 711 1254 667.5 c 128,-1,52
 1303 624 1303 624 1333 563.5 c 128,-1,53
 1363 503 1363 503 1363 421 c 0,54,55
 1363 320 1363 320 1340 240.5 c 128,-1,56
 1317 161 1317 161 1257 104 c 128,-1,57
 1197 47 1197 47 1093.5 13 c 128,-1,58
 990 -21 990 -21 828 -32 c 1,59,-1
 828 -106 l 1,60,61
 925 -106 925 -106 992.5 -118 c 128,-1,62
 1060 -130 1060 -130 1104.5 -150.5 c 128,-1,63
 1149 -171 1149 -171 1174 -197 c 128,-1,64
 1199 -223 1199 -223 1211.5 -252 c 128,-1,65
 1224 -281 1224 -281 1226.5 -310.5 c 128,-1,66
 1229 -340 1229 -340 1229 -366 c 2,67,-1
 1229 -522 l 2,68,69
 1229 -549 1229 -549 1226 -578.5 c 128,-1,70
 1223 -608 1223 -608 1210 -636.5 c 128,-1,71
 1197 -665 1197 -665 1169.5 -691.5 c 128,-1,72
 1142 -718 1142 -718 1093 -738 c 128,-1,73
 1044 -758 1044 -758 969 -770 c 128,-1,74
 894 -782 894 -782 787 -782 c 0,75,76
 679 -782 679 -782 604 -770 c 128,-1,77
 529 -758 529 -758 479.5 -738 c 128,-1,78
 430 -718 430 -718 403 -691.5 c 128,-1,79
 376 -665 376 -665 362.5 -636.5 c 128,-1,80
 349 -608 349 -608 346.5 -578.5 c 128,-1,81
 344 -549 344 -549 344 -522 c 2,82,-1
 344 -415 l 1,83,-1
 748 -352 l 1,84,-1
 748 -602 l 1,85,-1
 828 -602 l 1,86,-1
 828 -288 l 1,87,-1
 518 -288 l 1,88,-1
 518 -32 l 1,0,1
EndSplineSet
Validated: 16385
EndChar

StartChar: dotaccent
Encoding: 729 729 304
Width: 699
Flags: W
HStem: 0 467<80 619>
VStem: 80 539<0 467>
LayerCount: 2
Fore
SplineSet
619 0 m 1,0,-1
 80 0 l 1,1,-1
 80 467 l 1,2,-1
 619 467 l 1,3,-1
 619 0 l 1,0,-1
EndSplineSet
Validated: 16385
EndChar
